{"glyphs":{"0":{"ha":893,"x_min":97,"x_max":796,"o":"m 97 225 l 97 792 q 165 958 97 900 q 336 1017 232 1017 l 564 1017 q 740 953 683 1017 q 796 792 796 890 l 796 225 q 564 0 796 0 l 336 0 q 165 54 232 0 q 97 225 97 108 m 200 225 q 240 132 200 161 q 336 103 279 103 l 564 103 q 693 225 693 103 l 693 792 q 564 914 693 914 l 336 914 q 233 880 267 914 q 200 792 200 846 l 200 225 z "},"1":{"ha":503,"x_min":56,"x_max":392,"o":"m 392 1017 l 392 0 l 289 0 l 289 900 l 56 825 l 56 899 l 289 1017 l 392 1017 z "},"2":{"ha":829,"x_min":56,"x_max":760,"o":"m 56 926 l 56 1003 q 478 1031 274 1031 q 689 944 618 1031 q 760 739 760 858 q 717 575 760 663 q 615 417 674 488 q 481 278 557 347 q 264 103 363 168 l 760 103 l 760 0 l 65 0 l 65 94 q 493 444 340 282 q 607 595 558 514 q 656 750 656 676 q 611 875 656 824 q 476 926 567 926 l 56 926 z "},"3":{"ha":825,"x_min":42,"x_max":721,"o":"m 42 981 q 374 1021 150 1021 q 483 1019 426 1021 q 658 953 594 1018 q 721 790 721 889 l 721 694 q 629 506 721 542 q 721 306 721 447 l 721 224 q 474 -10 721 -10 q 391 -10 422 -10 q 322 -9 360 -10 q 271 -8 285 -8 q 226 -5 257 -7 q 178 0 194 -3 l 136 7 q 50 29 92 14 l 51 94 l 465 94 q 603 156 575 94 q 615 224 615 182 l 615 306 q 474 453 615 447 l 136 463 l 136 543 l 474 557 q 618 694 618 564 l 618 790 q 576 885 618 853 q 474 917 533 917 l 42 917 l 42 981 z "},"4":{"ha":838,"x_min":28,"x_max":810,"o":"m 582 368 l 582 656 l 633 760 l 685 760 l 685 368 l 810 368 l 810 286 l 685 260 l 685 3 l 582 3 l 582 260 l 75 260 l 28 311 l 474 1017 l 596 1017 l 188 368 l 582 368 z "},"5":{"ha":838,"x_min":106,"x_max":756,"o":"m 393 624 l 528 619 q 701 558 646 619 q 756 389 756 496 l 756 231 q 733 115 756 164 q 672 42 710 65 q 528 -6 603 -6 q 313 0 388 -6 q 106 28 238 6 l 106 104 l 528 104 q 623 142 593 104 q 653 233 653 179 l 653 386 q 599 504 653 479 q 528 517 571 517 l 314 517 q 234 490 268 517 q 200 413 200 464 l 108 413 l 139 1017 l 725 1017 l 725 914 l 233 914 l 217 578 q 393 624 254 624 z "},"6":{"ha":865,"x_min":90,"x_max":782,"o":"m 90 533 q 160 906 90 788 q 329 1025 231 1025 q 749 999 556 1025 l 749 922 l 347 922 q 271 885 303 922 q 224 786 239 847 q 193 565 196 675 q 565 594 442 594 q 735 539 688 594 q 782 388 782 483 l 782 206 q 558 -1 782 -1 l 351 -1 q 246 22 290 -1 q 164 101 201 44 q 90 533 90 217 m 193 492 q 215 247 193 319 q 242 175 226 210 q 351 101 275 101 l 558 101 q 650 124 619 101 q 681 214 681 146 l 681 388 q 558 492 681 492 l 193 492 z "},"7":{"ha":758,"x_min":42,"x_max":717,"o":"m 42 914 l 42 1017 l 679 1017 l 717 950 l 349 0 l 226 0 l 585 914 l 42 914 z "},"8":{"ha":881,"x_min":104,"x_max":778,"o":"m 104 214 l 104 350 q 124 430 104 397 q 165 475 143 463 q 222 499 188 488 q 133 574 161 519 q 104 693 104 629 l 104 783 q 168 969 104 915 q 349 1024 232 1024 l 551 1024 q 721 967 665 1024 q 776 783 776 910 l 776 693 q 776 678 776 688 q 774 653 776 669 q 763 610 772 638 q 731 560 754 582 q 672 532 707 539 q 751 464 724 522 q 776 350 778 406 l 776 214 q 754 105 776 150 q 694 39 732 60 q 550 0 629 0 l 349 0 q 232 17 281 0 q 159 58 183 35 q 122 114 135 81 q 104 214 104 160 m 207 210 q 349 103 207 103 l 550 103 q 637 131 600 103 q 674 210 674 158 l 674 356 q 639 440 674 411 q 554 468 604 468 l 333 468 q 243 442 279 468 q 207 356 207 415 l 207 210 m 207 686 q 247 597 207 624 q 333 569 286 569 l 554 569 q 674 686 674 569 l 674 781 q 644 888 674 856 q 551 921 614 921 l 349 921 q 240 894 274 921 q 207 781 207 868 l 207 686 z "},"9":{"ha":865,"x_min":83,"x_max":775,"o":"m 83 636 l 83 818 q 307 1025 83 1025 l 514 1025 q 619 1002 575 1025 q 700 922 664 979 q 775 490 775 807 q 705 117 775 236 q 536 -1 635 -1 q 117 25 244 -1 l 117 101 l 518 101 q 594 139 563 101 q 642 238 626 176 q 672 458 669 349 q 301 429 425 429 q 131 485 178 429 q 83 636 83 540 m 185 636 q 307 532 185 532 l 672 532 q 650 778 672 703 q 622 850 639 814 q 514 922 590 922 l 307 922 q 215 900 246 922 q 185 810 185 878 l 185 636 z "},"\u0000":{"ha":1053,"x_min":139,"x_max":914,"o":"m 894 703 l 544 369 l 894 35 l 894 703 m 176 18 l 881 18 l 529 356 l 176 18 m 158 31 l 514 369 l 158 704 l 158 31 m 882 719 l 172 719 l 529 383 l 882 719 m 139 0 l 139 738 l 914 738 l 914 0 l 139 0 z "},"\r":{"ha":1389,"x_min":0,"x_max":0,"o":""}," ":{"ha":347,"x_min":0,"x_max":0,"o":""},"!":{"ha":374,"x_min":114,"x_max":256,"o":"m 114 32 l 114 111 q 147 146 114 146 l 224 146 q 256 111 256 146 l 256 32 q 224 0 256 0 l 147 0 q 114 32 114 0 m 122 1015 l 246 1015 l 236 272 l 132 272 l 122 1015 z "},"\"":{"ha":528,"x_min":118,"x_max":410,"o":"m 118 1017 l 222 1017 l 222 924 l 208 738 l 133 738 l 118 924 l 118 1017 m 306 1017 l 410 1017 l 410 924 l 396 738 l 321 738 l 306 924 l 306 1017 z "},"#":{"ha":954,"x_min":28,"x_max":928,"o":"m 28 322 l 39 394 l 260 394 l 296 624 l 75 624 l 88 696 l 307 696 l 358 1017 l 431 1017 l 379 696 l 610 696 l 660 1017 l 732 1017 l 682 696 l 928 696 l 915 624 l 669 624 l 633 393 l 879 393 l 868 321 l 622 321 l 571 0 l 499 0 l 550 321 l 319 322 l 268 0 l 196 0 l 247 322 l 28 322 m 332 394 l 561 393 l 597 624 l 368 624 l 332 394 z "},"$":{"ha":799,"x_min":76,"x_max":722,"o":"m 108 100 l 440 92 q 619 217 619 92 l 619 311 q 504 447 619 447 l 324 447 q 122 525 178 447 q 76 686 76 592 l 76 778 q 147 969 78 915 q 339 1025 215 1022 l 339 1144 l 419 1144 l 419 1021 q 685 992 510 1014 l 685 911 l 351 924 q 323 924 342 924 q 279 920 304 924 q 229 903 254 917 q 179 778 179 872 l 179 686 q 324 550 179 550 l 504 550 q 686 472 640 550 q 722 311 722 408 l 722 217 q 625 28 722 79 q 449 -11 553 -11 q 419 -11 435 -11 l 419 -125 l 339 -125 l 339 -4 l 108 24 l 108 100 z "},"%":{"ha":1326,"x_min":58,"x_max":1268,"o":"m 58 658 l 58 843 q 97 976 58 935 q 238 1017 136 1017 l 378 1017 q 515 976 476 1017 q 554 843 554 935 l 554 658 q 515 526 554 567 q 375 485 476 485 l 235 485 q 97 526 136 485 q 58 658 58 567 m 149 658 q 167 592 149 608 q 235 575 185 575 l 375 575 q 449 592 433 575 q 464 658 464 608 l 464 843 q 446 910 464 893 q 378 926 428 926 l 238 926 q 165 910 181 926 q 149 843 149 893 l 149 658 m 315 0 l 924 1017 l 1022 1017 l 414 0 l 315 0 m 772 176 l 772 361 q 811 494 772 453 q 951 535 850 535 l 1092 535 q 1229 494 1190 535 q 1268 361 1268 453 l 1268 176 q 1229 44 1268 85 q 1089 3 1190 3 l 949 3 q 811 44 850 3 q 772 176 772 85 m 863 176 q 881 110 863 126 q 949 93 899 93 l 1089 93 q 1163 110 1147 93 q 1178 176 1178 126 l 1178 361 q 1160 428 1178 411 q 1092 444 1142 444 l 951 444 q 878 428 894 444 q 863 361 863 411 l 863 176 z "},"&":{"ha":885,"x_min":46,"x_max":851,"o":"m 46 285 q 158 508 46 413 l 278 610 l 190 728 q 144 850 144 794 q 190 964 144 919 q 286 1013 236 1008 q 386 1018 336 1018 q 657 986 518 1018 l 657 917 l 375 917 q 282 903 313 917 q 251 851 251 889 q 300 747 251 814 l 626 306 l 785 471 l 817 438 l 746 289 l 689 226 l 851 0 l 729 0 l 615 154 l 515 61 q 343 -6 444 -6 q 108 114 192 -6 q 46 285 46 197 m 343 94 q 442 132 396 94 l 553 236 l 336 525 l 228 435 q 146 292 146 368 q 193 174 146 233 q 343 94 254 94 z "},"'":{"ha":257,"x_min":76,"x_max":181,"o":"m 76 1017 l 181 1017 l 181 924 l 167 738 l 92 738 l 76 924 l 76 1017 z "},"(":{"ha":465,"x_min":104,"x_max":438,"o":"m 181 1 q 166 42 181 1 q 128 207 151 83 q 104 445 104 331 q 127 675 104 560 q 182 879 150 790 q 303 1156 247 1058 l 325 1194 l 438 1194 q 362 1053 406 1146 q 288 876 318 960 q 232 676 257 793 q 207 447 207 558 q 231 217 207 336 q 289 10 254 97 q 414 -256 358 -171 l 438 -292 l 325 -292 l 301 -256 q 248 -157 286 -233 q 181 1 210 -81 z "},")":{"ha":465,"x_min":28,"x_max":361,"o":"m 178 11 q 193 52 178 11 q 233 215 208 93 q 258 447 258 336 q 235 674 258 558 q 178 878 211 789 q 51 1156 106 1063 l 28 1194 l 140 1194 q 164 1153 149 1179 q 217 1044 179 1126 q 285 878 256 961 q 338 677 314 794 q 361 445 361 560 q 338 208 361 331 q 283 0 315 86 q 164 -258 213 -183 l 140 -292 l 28 -292 q 103 -158 60 -246 q 178 11 147 -71 z "},"*":{"ha":611,"x_min":69,"x_max":542,"o":"m 69 786 l 69 842 l 263 882 l 269 779 l 69 786 m 164 575 l 197 763 l 297 739 l 215 558 l 164 575 m 244 996 l 299 1018 l 403 854 l 308 811 l 244 996 m 289 661 l 346 747 l 499 621 l 469 576 l 289 661 m 349 793 l 515 899 l 542 850 l 415 715 l 349 793 z "},"+":{"ha":717,"x_min":69,"x_max":647,"o":"m 69 443 l 69 546 l 306 546 l 306 783 l 408 783 l 408 546 l 647 546 l 647 443 l 408 443 l 408 206 l 306 206 l 306 443 l 69 443 z "},",":{"ha":375,"x_min":118,"x_max":257,"o":"m 118 35 l 118 110 q 153 147 118 147 l 224 147 q 257 110 257 147 l 257 -15 q 243 -78 257 -53 q 150 -125 215 -125 q 139 -125 144 -125 l 125 -122 l 125 -78 q 128 -78 126 -78 q 168 -35 168 -78 l 168 0 l 153 0 q 118 35 118 0 z "},"-":{"ha":492,"x_min":28,"x_max":464,"o":"m 28 351 l 28 454 l 464 454 l 464 351 l 28 351 z "},".":{"ha":378,"x_min":118,"x_max":260,"o":"m 118 32 l 118 111 q 151 146 118 146 l 225 146 q 260 111 260 146 l 260 32 q 225 0 260 0 l 151 0 q 118 32 118 0 z "},"/":{"ha":556,"x_min":28,"x_max":528,"o":"m 28 -100 l 418 1069 l 528 1069 l 138 -100 l 28 -100 z "},":":{"ha":378,"x_min":118,"x_max":260,"o":"m 118 32 l 118 111 q 151 146 118 146 l 225 146 q 260 111 260 146 l 260 32 q 225 0 260 0 l 151 0 q 118 32 118 0 m 118 625 l 118 704 q 151 739 118 739 l 225 739 q 260 704 260 739 l 260 625 q 225 593 260 593 l 151 593 q 118 625 118 593 z "},";":{"ha":381,"x_min":118,"x_max":263,"o":"m 118 35 l 118 110 q 128 136 118 125 q 153 147 138 147 l 224 147 q 248 137 239 147 q 257 110 257 126 l 257 -15 q 243 -78 257 -53 q 150 -125 215 -125 q 139 -125 144 -125 l 125 -122 l 125 -78 q 128 -78 126 -78 q 168 -35 168 -78 l 168 0 l 153 0 q 128 11 139 0 q 118 35 118 22 m 121 626 l 121 706 q 154 740 121 740 l 228 740 q 263 706 263 740 l 263 626 q 228 594 263 594 l 154 594 q 121 626 121 594 z "},"<":{"ha":660,"x_min":69,"x_max":590,"o":"m 69 436 l 69 547 l 590 772 l 590 661 l 207 492 l 590 308 l 590 194 l 69 436 z "},"=":{"ha":649,"x_min":28,"x_max":621,"o":"m 28 294 l 28 397 l 621 397 l 621 294 l 28 294 m 28 585 l 28 688 l 621 688 l 621 585 l 28 585 z "},">":{"ha":660,"x_min":69,"x_max":590,"o":"m 69 194 l 69 308 l 453 492 l 69 661 l 69 772 l 590 547 l 590 436 l 69 194 z "},"?":{"ha":751,"x_min":28,"x_max":696,"o":"m 278 1026 l 375 1029 q 419 1026 404 1029 q 631 955 567 1026 q 696 769 696 883 l 696 629 q 603 442 696 494 q 444 404 538 404 q 358 411 404 404 l 358 271 l 254 271 l 254 496 l 451 496 q 552 532 510 499 q 594 629 594 565 l 594 769 q 550 886 594 850 q 404 922 506 922 l 28 922 l 28 999 q 134 1013 97 1010 q 217 1022 171 1017 q 278 1026 264 1026 m 236 32 l 236 111 q 269 146 236 146 l 346 146 q 378 111 378 146 l 378 32 q 346 0 378 0 l 269 0 q 236 32 236 0 z "},"@":{"ha":1172,"x_min":90,"x_max":1054,"o":"m 90 0 l 90 483 q 142 646 90 588 q 211 691 164 671 q 324 711 258 711 l 622 711 q 772 666 710 711 q 835 517 835 621 l 835 0 l 757 0 l 738 89 l 724 78 q 486 -12 603 -12 q 362 33 413 -12 q 313 150 311 79 l 313 224 q 360 358 313 308 q 492 408 407 408 l 735 408 q 736 488 736 461 q 735 514 736 514 q 707 589 735 569 q 618 608 679 608 l 324 608 q 228 583 263 608 q 193 483 193 558 l 193 0 q 324 -143 193 -143 l 808 -143 q 921 -109 890 -143 q 951 0 951 -75 l 951 711 q 913 829 951 789 q 808 869 874 869 l 247 869 l 247 935 q 632 972 428 972 q 647 972 640 972 l 808 972 q 988 903 922 969 q 1054 711 1054 838 l 1054 0 q 808 -247 1054 -247 l 324 -247 q 153 -183 215 -247 q 90 0 90 -119 m 415 158 q 440 113 415 135 q 496 90 465 90 q 518 90 499 90 q 586 104 538 90 q 657 128 635 118 q 735 165 679 139 l 735 336 l 499 314 q 436 284 458 310 q 415 221 414 258 l 415 158 z "},"A":{"ha":931,"x_min":63,"x_max":896,"o":"m 63 0 l 436 1017 l 539 1017 l 896 0 l 774 0 l 686 283 l 281 283 l 189 0 l 63 0 m 318 386 l 650 386 l 486 860 l 318 386 z "},"B":{"ha":828,"x_min":111,"x_max":772,"o":"m 111 0 l 111 1017 l 503 1017 q 703 936 640 1017 q 767 753 767 856 q 639 528 767 568 q 732 453 692 515 q 772 283 772 392 q 718 89 772 167 q 503 0 656 0 l 111 0 m 215 103 l 503 103 q 669 286 669 103 q 628 425 669 369 q 503 481 586 481 l 215 481 l 215 103 m 215 583 l 503 583 q 664 749 664 583 q 503 914 664 914 l 215 914 l 215 583 z "},"C":{"ha":803,"x_min":76,"x_max":754,"o":"m 754 911 q 415 925 504 925 q 276 891 325 925 q 203 767 226 857 q 179 508 179 678 q 415 94 179 94 l 754 104 l 754 22 q 415 -8 590 -8 q 76 511 76 -8 q 148 901 76 775 q 415 1028 219 1028 q 754 993 567 1028 l 754 911 z "},"D":{"ha":913,"x_min":111,"x_max":850,"o":"m 111 0 l 111 1017 l 489 1017 q 647 983 579 1017 q 751 897 714 949 q 813 774 789 846 q 850 504 850 658 q 800 228 850 353 q 629 31 742 86 q 489 0 567 0 l 111 0 m 214 107 l 489 107 q 636 164 576 107 q 747 494 747 268 q 681 817 747 721 q 489 914 615 914 l 214 914 l 214 107 z "},"E":{"ha":788,"x_min":111,"x_max":725,"o":"m 111 836 q 159 974 111 932 q 278 1017 207 1017 q 286 1017 282 1017 l 725 994 l 725 914 l 286 914 q 235 901 253 914 q 216 874 218 888 q 214 836 214 861 l 214 558 l 669 544 l 669 463 l 214 449 l 214 171 q 229 119 214 136 q 258 101 244 103 q 300 99 272 99 l 725 99 l 725 19 l 300 -4 q 279 -4 289 -4 q 111 171 111 -4 l 111 836 z "},"F":{"ha":788,"x_min":111,"x_max":725,"o":"m 111 0 l 111 836 q 159 974 111 932 q 278 1017 207 1017 q 286 1017 282 1017 l 725 994 l 725 914 l 286 914 q 235 901 253 914 q 216 874 218 888 q 214 836 214 861 l 214 558 l 669 544 l 669 463 l 214 449 l 214 0 l 111 0 z "},"G":{"ha":853,"x_min":76,"x_max":776,"o":"m 110 203 q 99 239 110 203 q 83 345 89 274 q 76 523 76 417 q 89 713 76 629 q 135 872 101 797 q 401 1028 203 1028 q 569 1016 456 1028 q 754 990 682 1004 l 754 908 q 685 913 742 908 q 583 919 628 917 q 401 925 494 925 q 224 830 269 925 q 179 507 179 735 q 229 188 179 279 q 407 94 279 96 q 521 110 454 94 q 631 142 588 126 l 674 158 l 674 436 l 440 436 l 440 506 q 682 540 567 540 q 776 536 726 540 l 776 0 l 699 0 l 676 68 q 407 -7 540 -7 q 399 -7 403 -7 q 261 19 321 -7 q 166 90 201 46 q 110 203 131 133 z "},"H":{"ha":886,"x_min":111,"x_max":803,"o":"m 111 0 l 111 1017 l 214 1017 l 214 543 l 700 543 l 700 1017 l 803 1017 l 803 0 l 700 0 l 700 440 l 214 440 l 214 0 l 111 0 z "},"I":{"ha":297,"x_min":111,"x_max":214,"o":"m 111 0 l 111 1017 l 214 1017 l 214 0 l 111 0 z "},"J":{"ha":499,"x_min":49,"x_max":415,"o":"m 343 25 q 198 -8 290 -8 q 49 29 106 -8 l 54 104 q 193 82 143 82 q 313 229 311 82 l 313 1017 l 415 1017 l 415 229 q 343 25 415 71 z "},"K":{"ha":821,"x_min":111,"x_max":772,"o":"m 111 0 l 111 1017 l 214 1017 l 214 561 l 328 561 l 647 1017 l 772 1017 l 422 510 l 772 0 l 647 0 l 328 458 l 215 458 l 215 0 l 111 0 z "},"L":{"ha":774,"x_min":111,"x_max":725,"o":"m 111 175 l 111 1017 l 214 1017 l 214 175 q 243 111 214 122 q 300 103 265 103 l 725 103 l 725 0 l 300 0 q 172 28 221 0 q 111 175 111 63 z "},"M":{"ha":1113,"x_min":76,"x_max":1036,"o":"m 76 0 l 143 1017 l 285 1017 l 556 171 l 818 1017 l 958 1017 l 1036 0 l 933 0 l 871 831 l 610 0 l 504 0 l 235 831 l 179 0 l 76 0 z "},"N":{"ha":944,"x_min":111,"x_max":861,"o":"m 111 0 l 111 1017 l 217 1017 l 758 192 l 758 1017 l 861 1017 l 861 0 l 758 0 l 215 825 l 215 0 l 111 0 z "},"O":{"ha":939,"x_min":90,"x_max":876,"o":"m 138 164 q 125 192 138 164 q 101 303 113 219 q 90 503 90 388 q 103 705 90 618 q 142 849 115 792 q 199 941 168 906 q 279 994 231 976 q 485 1024 358 1024 q 740 968 667 1024 q 842 814 811 914 q 876 531 876 692 q 859 277 876 369 q 812 129 842 185 q 730 44 782 74 q 622 4 678 14 q 491 -6 567 -6 q 368 0 415 -6 q 272 23 321 6 q 193 74 224 40 q 138 164 163 108 m 208 722 q 205 701 208 722 q 197 625 201 681 q 193 468 193 569 q 206 288 193 367 q 258 165 219 208 q 346 110 296 122 q 475 97 396 97 q 599 106 554 97 q 679 140 643 115 q 735 210 715 164 q 774 501 774 301 q 740 794 774 719 q 715 847 726 826 q 682 883 704 868 q 644 905 660 897 q 597 916 628 913 q 544 920 565 919 q 485 921 524 921 q 426 920 446 921 q 374 916 406 919 q 326 905 343 913 q 288 883 310 897 q 253 847 265 868 q 228 795 242 826 q 208 722 214 764 z "},"P":{"ha":807,"x_min":83,"x_max":744,"o":"m 83 0 l 83 1017 l 501 1017 q 744 722 744 1017 q 631 439 744 494 q 567 418 594 422 q 500 414 539 414 q 326 426 461 414 q 186 442 192 439 l 186 0 l 83 0 m 186 517 l 501 517 q 604 557 568 517 q 640 722 640 597 q 586 886 638 851 q 501 913 549 913 l 186 913 l 186 517 z "},"Q":{"ha":939,"x_min":90,"x_max":876,"o":"m 138 164 q 125 192 138 164 q 101 303 113 219 q 90 515 90 388 q 109 739 90 642 q 158 892 128 836 q 242 977 189 947 q 349 1015 296 1007 q 476 1024 401 1024 q 596 1018 550 1024 q 690 994 642 1013 q 770 941 739 976 q 828 849 801 906 q 876 501 876 739 q 811 129 876 251 q 728 44 781 74 q 619 4 675 14 q 488 -6 564 -6 q 365 0 413 -6 q 269 23 318 6 q 192 74 221 40 q 138 164 163 108 m 208 722 q 205 701 208 722 q 197 625 201 681 q 193 468 193 569 q 206 288 193 367 q 256 165 219 208 q 343 110 293 122 q 481 97 393 97 q 620 112 569 97 q 708 170 671 126 q 760 292 746 214 q 774 471 774 371 q 769 626 774 571 q 759 722 765 681 q 740 795 753 764 q 715 847 726 826 q 681 883 703 868 q 642 905 658 897 q 594 916 626 913 q 542 920 563 919 q 482 921 521 921 q 423 920 443 921 q 372 916 403 919 q 324 905 340 913 q 286 883 308 897 q 253 847 264 868 q 228 795 242 826 q 208 722 214 764 m 513 -46 q 640 -94 582 -94 q 746 -74 699 -94 l 746 -185 q 669 -197 700 -197 q 628 -197 639 -197 q 508 -152 564 -193 q 440 -46 451 -111 l 513 -46 z "},"R":{"ha":824,"x_min":83,"x_max":789,"o":"m 83 0 l 83 1017 l 517 1017 q 751 711 751 1017 q 575 419 751 444 l 789 0 l 678 0 l 464 415 l 186 435 l 186 0 l 83 0 m 186 526 l 517 526 q 619 567 599 526 q 647 724 647 615 q 611 873 647 833 q 517 913 575 913 l 186 913 l 186 526 z "},"S":{"ha":811,"x_min":90,"x_max":749,"o":"m 90 686 l 90 778 q 163 972 90 918 q 347 1025 235 1025 q 713 992 460 1025 l 713 908 l 365 922 q 343 922 354 922 q 233 897 272 922 q 193 778 193 872 l 193 686 q 227 575 193 600 q 335 550 261 550 l 532 550 q 749 311 749 550 l 749 217 q 658 28 749 76 q 468 -11 583 -11 q 297 1 419 -11 q 121 24 174 14 l 121 107 q 468 92 274 92 q 646 217 646 92 l 646 311 q 621 412 646 376 q 532 447 596 447 l 338 447 q 131 524 179 447 q 90 686 90 588 z "},"T":{"ha":803,"x_min":63,"x_max":768,"o":"m 63 914 l 63 1017 l 768 1017 l 768 914 l 463 914 l 463 0 l 360 0 l 360 914 l 63 914 z "},"U":{"ha":940,"x_min":111,"x_max":857,"o":"m 111 444 l 111 1017 l 214 1017 l 214 444 q 230 244 214 318 q 289 139 246 169 q 367 102 332 108 q 442 96 401 96 q 488 96 442 96 q 610 106 586 96 q 654 127 633 115 q 688 156 675 139 q 714 200 700 174 q 736 261 728 226 q 753 444 753 338 l 753 1017 l 857 1017 l 857 444 q 833 226 857 315 q 777 92 808 136 q 688 24 746 47 q 593 -3 631 0 q 519 -7 556 -7 q 460 -7 483 -7 q 419 -6 438 -7 q 366 -3 400 -6 q 314 5 332 -1 q 267 22 296 11 q 223 49 239 32 q 186 90 207 67 q 154 148 165 114 q 132 225 143 182 q 111 444 111 304 z "},"V":{"ha":931,"x_min":63,"x_max":896,"o":"m 63 1017 l 175 1017 l 472 164 l 783 1017 l 896 1017 l 522 0 l 419 0 l 63 1017 z "},"W":{"ha":1336,"x_min":63,"x_max":1301,"o":"m 63 1017 l 175 1017 l 471 179 l 722 1017 l 839 1017 l 744 692 l 929 171 l 1189 1017 l 1301 1017 l 983 0 l 881 0 l 690 519 l 522 0 l 419 0 l 63 1017 z "},"X":{"ha":828,"x_min":63,"x_max":793,"o":"m 63 1017 l 175 1017 l 425 590 l 681 1017 l 793 1017 l 493 515 l 786 0 l 674 0 l 425 428 l 179 0 l 67 0 l 357 515 l 63 1017 z "},"Y":{"ha":875,"x_min":63,"x_max":840,"o":"m 489 0 l 386 0 l 386 361 l 63 1017 l 175 1017 l 438 483 l 728 1017 l 840 1017 l 489 361 l 489 0 z "},"Z":{"ha":782,"x_min":49,"x_max":733,"o":"m 49 0 l 49 103 l 599 914 l 49 914 l 49 1017 l 733 1017 l 733 914 l 183 103 l 733 103 l 733 0 l 49 0 z "},"[":{"ha":446,"x_min":118,"x_max":418,"o":"m 118 -53 l 118 931 q 149 1081 118 1011 q 207 1145 167 1121 q 307 1169 247 1169 l 418 1169 l 418 1067 l 307 1067 q 244 1030 268 1067 q 221 931 221 993 l 221 -53 q 244 -152 221 -115 q 307 -189 268 -189 l 418 -189 l 418 -292 l 307 -292 q 207 -267 247 -292 q 149 -203 167 -243 q 118 -53 118 -133 z "},"\\":{"ha":556,"x_min":28,"x_max":528,"o":"m 28 1069 l 138 1069 l 528 -100 l 418 -100 l 28 1069 z "},"]":{"ha":446,"x_min":28,"x_max":328,"o":"m 28 -189 l 139 -189 q 201 -152 178 -189 q 225 -53 225 -115 l 225 931 q 201 1030 225 993 q 139 1067 178 1067 l 28 1067 l 28 1169 l 139 1169 q 239 1145 199 1169 q 297 1081 279 1121 q 328 931 328 1011 l 328 -53 q 297 -203 328 -133 q 239 -267 279 -243 q 139 -292 199 -292 l 28 -292 l 28 -189 z "},"^":{"ha":544,"x_min":69,"x_max":475,"o":"m 69 738 l 232 918 l 331 918 l 475 738 l 376 738 l 279 836 l 169 738 l 69 738 z "},"_":{"ha":936,"x_min":28,"x_max":908,"o":"m 28 -1 l 28 101 l 908 101 l 908 -1 l 28 -1 z "},"`":{"ha":336,"x_min":28,"x_max":308,"o":"m 28 922 l 160 922 l 308 738 l 213 738 l 28 922 z "},"a":{"ha":721,"x_min":56,"x_max":651,"o":"m 79 710 q 443 751 229 751 q 592 699 533 751 q 651 538 651 646 l 651 0 l 575 0 l 549 89 l 528 79 q 240 -8 347 -8 q 108 40 161 -8 q 56 175 56 89 l 56 260 q 105 394 56 344 q 240 444 154 444 q 472 444 394 444 q 549 444 549 444 q 550 513 550 490 q 549 538 550 536 q 429 651 549 651 q 79 635 310 651 l 79 710 m 158 182 q 240 94 158 94 q 367 113 290 94 q 497 147 444 131 l 549 165 l 549 364 l 240 342 q 178 313 199 338 q 158 251 158 288 l 158 182 z "},"b":{"ha":769,"x_min":83,"x_max":700,"o":"m 83 0 l 83 1090 l 183 1090 l 183 693 q 326 733 246 718 q 469 749 406 749 q 583 717 532 749 q 658 625 633 685 q 700 365 700 522 q 654 117 700 222 q 579 25 629 58 q 461 -8 529 -8 q 306 24 393 -8 q 185 82 219 57 l 157 0 l 83 0 m 457 94 q 597 365 597 94 q 563 586 597 526 q 457 646 529 646 q 185 610 324 646 l 185 158 q 457 94 342 94 z "},"c":{"ha":694,"x_min":69,"x_max":639,"o":"m 88 175 q 78 214 88 175 q 69 369 69 253 q 87 563 69 486 q 139 678 104 640 q 214 731 174 717 q 344 744 254 744 q 629 708 435 744 l 629 633 q 356 642 436 642 q 254 635 275 642 q 211 603 233 628 q 172 381 172 554 q 203 152 172 208 q 313 96 235 96 q 586 107 443 96 l 639 111 l 639 33 q 313 -7 506 -4 q 216 7 256 -7 q 141 59 176 21 q 88 175 106 97 z "},"d":{"ha":769,"x_min":69,"x_max":686,"o":"m 115 116 q 103 145 115 116 q 80 234 90 174 q 69 370 69 294 q 78 506 69 446 q 111 625 88 567 q 313 749 163 749 q 443 733 364 749 q 585 693 522 718 l 585 1090 l 686 1090 l 686 0 l 613 0 l 585 82 q 463 24 550 57 q 308 -8 376 -8 q 190 25 240 -8 q 115 116 140 58 m 172 365 q 313 94 172 94 q 585 158 428 94 l 585 610 q 313 646 446 646 q 206 586 240 646 q 172 365 172 526 z "},"e":{"ha":729,"x_min":69,"x_max":674,"o":"m 69 372 q 86 569 69 494 q 147 681 103 643 q 244 731 190 719 q 383 743 297 743 q 511 736 468 743 q 596 704 554 729 q 656 625 638 679 q 674 482 674 571 q 483 313 674 313 l 172 313 q 201 140 172 183 q 313 96 231 96 q 660 110 565 96 l 660 32 q 313 -7 522 -7 q 121 74 172 -7 q 69 372 69 154 m 172 414 l 483 414 q 571 482 571 414 q 540 615 571 589 q 393 640 508 640 q 222 611 250 640 q 178 519 183 569 q 172 414 172 469 z "},"f":{"ha":556,"x_min":28,"x_max":528,"o":"m 28 635 l 28 714 l 163 738 l 163 875 q 201 1039 163 988 q 252 1076 218 1060 q 353 1092 286 1092 q 528 1058 419 1092 l 528 990 l 357 992 q 278 958 293 992 q 265 875 265 929 l 265 738 l 471 738 l 471 635 l 265 635 l 265 0 l 163 0 l 163 635 l 28 635 z "},"g":{"ha":769,"x_min":63,"x_max":742,"o":"m 67 160 q 88 233 67 199 q 149 275 108 267 q 68 467 68 326 q 131 674 68 607 q 308 740 194 740 l 742 740 l 742 663 l 629 638 q 639 620 631 635 q 651 597 647 606 q 661 569 656 588 q 672 488 672 536 q 663 399 672 439 q 632 312 654 358 q 561 236 610 265 q 443 207 513 207 l 226 207 q 169 165 169 207 q 226 118 169 118 l 522 118 q 654 66 607 118 q 701 -74 701 14 l 701 -161 q 667 -297 701 -236 q 601 -354 646 -333 q 493 -375 557 -375 l 285 -375 q 123 -321 183 -375 q 63 -161 63 -267 l 63 -43 l 118 47 q 67 160 67 83 m 228 15 q 165 26 190 15 l 165 -161 q 285 -272 165 -272 l 493 -272 q 599 -161 599 -272 l 599 -81 q 580 -6 599 -28 q 504 15 561 15 l 228 15 m 171 478 q 189 381 171 419 q 299 310 222 310 l 435 310 q 540 360 510 310 q 569 468 569 411 q 540 594 569 551 q 433 638 510 638 l 308 638 q 171 478 171 638 z "},"h":{"ha":756,"x_min":83,"x_max":686,"o":"m 83 0 l 83 1089 l 186 1089 l 186 651 q 217 669 190 653 q 249 688 243 685 q 279 703 256 690 q 313 719 303 717 q 344 731 322 722 q 381 742 367 739 q 458 750 425 750 q 625 681 564 750 q 686 514 686 611 l 686 0 l 583 0 l 583 514 q 549 614 583 581 q 460 647 515 647 q 358 636 406 647 q 283 613 311 625 q 186 568 254 601 l 186 0 l 83 0 z "},"i":{"ha":274,"x_min":69,"x_max":204,"o":"m 69 857 l 69 932 q 103 967 69 967 l 172 967 q 204 932 204 967 l 204 857 q 172 825 204 825 l 103 825 q 69 857 69 825 m 83 0 l 83 738 l 186 738 l 186 0 l 83 0 z "},"j":{"ha":301,"x_min":83,"x_max":218,"o":"m 83 857 l 83 932 q 117 967 83 967 l 186 967 q 218 932 218 967 l 218 857 q 186 825 218 825 l 117 825 q 83 857 83 825 m 99 -375 l 99 738 l 201 738 l 201 -6 q 201 -37 201 -22 q 165 -375 201 -258 l 99 -375 z "},"k":{"ha":694,"x_min":83,"x_max":667,"o":"m 83 0 l 83 1086 l 186 1086 l 186 475 l 242 475 l 524 738 l 667 738 l 339 424 l 667 0 l 539 0 l 242 372 l 186 372 l 186 0 l 83 0 z "},"l":{"ha":417,"x_min":83,"x_max":389,"o":"m 83 263 l 83 1088 l 186 1088 l 186 263 q 206 145 186 178 q 265 103 225 113 q 389 74 379 74 l 389 0 l 267 0 q 83 263 83 0 z "},"m":{"ha":1247,"x_min":83,"x_max":1178,"o":"m 83 0 l 83 738 l 156 738 l 186 649 q 220 669 194 654 q 256 690 246 683 q 290 707 267 696 q 328 722 313 718 l 363 735 q 457 746 396 746 q 574 717 518 746 q 653 638 629 688 q 950 746 783 746 q 1113 679 1047 746 q 1178 508 1178 613 l 1178 0 l 1075 0 l 1075 508 q 1040 606 1075 569 q 950 643 1004 643 q 806 626 867 643 q 678 565 746 610 l 678 0 l 575 0 l 575 508 q 540 606 575 569 q 451 643 504 643 q 352 632 397 643 q 282 610 307 621 q 186 565 257 600 l 186 0 l 83 0 z "},"n":{"ha":756,"x_min":83,"x_max":686,"o":"m 83 0 l 83 738 l 156 738 l 186 651 q 217 669 190 653 q 249 688 243 685 q 279 703 256 690 q 313 719 303 717 q 344 731 322 722 q 381 742 367 739 q 458 750 425 750 q 625 681 564 750 q 686 514 686 611 l 686 0 l 583 0 l 583 514 q 549 613 583 579 q 460 647 514 647 q 358 636 406 647 q 283 613 311 625 q 186 568 254 601 l 186 0 l 83 0 z "},"o":{"ha":789,"x_min":69,"x_max":719,"o":"m 396 -7 q 303 -7 396 -7 q 140 75 211 -7 q 69 369 69 157 q 140 663 69 582 q 396 744 211 744 q 650 662 581 744 q 719 365 719 579 q 650 72 719 151 q 396 -7 581 -7 m 205 572 q 198 557 205 572 q 181 490 190 542 q 172 353 172 438 q 185 214 172 268 q 231 135 199 160 q 298 103 264 110 q 395 96 332 96 q 494 103 458 96 q 560 135 529 110 q 604 215 592 161 q 617 363 617 268 q 606 514 617 457 q 565 599 596 571 q 499 635 535 628 q 403 642 464 642 q 311 638 342 642 q 250 618 281 633 q 205 572 219 603 z "},"p":{"ha":769,"x_min":83,"x_max":700,"o":"m 83 -375 l 83 738 l 157 738 l 183 656 q 306 713 218 681 q 461 746 393 746 q 579 713 529 746 q 654 622 629 679 q 700 372 700 515 q 583 21 700 94 q 469 -11 532 -11 q 326 4 406 -11 q 183 44 246 19 l 183 -375 l 83 -375 m 457 92 q 563 151 529 92 q 597 372 597 211 q 457 643 597 643 q 183 579 340 643 l 183 128 q 457 92 322 92 z "},"q":{"ha":771,"x_min":69,"x_max":688,"o":"m 69 373 q 69 462 69 373 q 133 649 69 551 q 325 746 197 746 q 557 731 443 746 q 688 714 671 715 l 688 -375 l 585 -375 l 585 40 q 325 -14 451 -14 q 117 97 172 -14 q 69 373 69 194 m 172 372 q 192 178 172 231 q 325 89 225 89 q 451 95 403 89 q 585 124 499 101 l 585 643 l 325 643 q 172 372 172 643 z "},"r":{"ha":592,"x_min":83,"x_max":564,"o":"m 83 0 l 83 738 l 156 738 l 186 644 q 319 717 292 708 q 369 733 347 726 q 476 746 411 746 q 564 735 542 746 l 564 633 q 469 642 531 642 q 360 631 408 642 q 284 607 313 619 q 186 561 256 594 l 186 0 l 83 0 z "},"s":{"ha":703,"x_min":56,"x_max":647,"o":"m 56 497 l 56 561 q 100 698 56 651 q 262 744 144 744 q 610 722 379 744 l 610 643 l 247 643 q 169 619 183 643 q 158 561 158 601 l 158 497 q 185 429 158 442 q 247 418 207 418 l 467 418 q 601 369 554 418 q 647 239 647 319 l 647 171 q 597 31 647 68 q 467 -7 547 -7 q 86 19 338 -7 l 86 96 l 467 96 q 474 96 467 97 q 494 99 482 94 q 517 108 506 103 q 544 171 544 122 l 544 239 q 527 297 544 278 q 467 315 510 315 l 247 315 q 101 354 146 315 q 56 497 56 393 z "},"t":{"ha":525,"x_min":28,"x_max":483,"o":"m 28 636 l 28 714 l 165 739 l 190 944 l 268 944 l 268 739 l 483 739 l 483 636 l 268 636 l 268 264 q 288 147 268 179 q 347 104 307 114 q 471 75 461 75 l 471 1 l 349 1 q 165 264 165 1 l 165 636 l 28 636 z "},"u":{"ha":756,"x_min":69,"x_max":672,"o":"m 69 224 l 69 738 l 172 738 l 172 224 q 207 124 172 158 q 296 90 242 90 q 397 101 350 90 q 473 124 444 113 q 569 169 501 136 l 569 738 l 672 738 l 672 0 l 600 0 l 569 86 q 539 69 565 85 q 506 50 513 53 q 476 34 500 47 q 443 18 453 21 q 411 7 433 15 q 375 -4 389 -1 q 297 -12 331 -12 q 131 57 192 -12 q 69 224 69 126 z "},"v":{"ha":744,"x_min":28,"x_max":717,"o":"m 28 738 l 140 738 l 371 151 l 604 738 l 717 738 l 421 0 l 318 0 l 28 738 z "},"w":{"ha":1113,"x_min":28,"x_max":1085,"o":"m 28 738 l 140 738 l 358 151 l 550 738 l 661 738 l 586 501 l 747 151 l 972 738 l 1085 738 l 803 0 l 700 0 l 536 361 l 415 0 l 304 0 l 28 738 z "},"x":{"ha":728,"x_min":33,"x_max":694,"o":"m 33 0 l 300 369 l 33 738 l 161 738 l 361 454 l 567 738 l 694 738 l 425 365 l 683 0 l 567 0 l 364 281 l 161 0 l 33 0 z "},"y":{"ha":769,"x_min":29,"x_max":739,"o":"m 29 738 l 142 738 l 321 161 q 340 125 331 133 q 356 112 349 117 q 369 106 363 107 q 383 103 376 104 q 394 103 389 103 q 413 107 407 106 l 624 738 l 739 738 l 414 -233 l 310 -375 l 246 -375 l 376 0 q 210 153 257 0 l 29 738 z "},"z":{"ha":633,"x_min":42,"x_max":592,"o":"m 42 635 l 42 738 l 592 738 l 592 635 l 197 104 l 592 104 l 592 1 l 63 1 l 63 104 l 464 635 l 42 635 z "},"{":{"ha":444,"x_min":28,"x_max":417,"o":"m 28 510 q 74 514 46 510 q 108 522 101 518 q 124 531 114 525 q 139 543 135 536 q 153 583 153 563 l 153 911 q 219 1095 153 1021 q 417 1169 286 1169 l 417 1067 q 299 1033 342 1067 q 256 911 256 999 l 256 583 q 223 504 256 535 q 138 464 190 474 q 221 424 188 457 q 254 349 254 392 l 254 -53 q 297 -154 254 -119 q 401 -189 339 -189 q 417 -189 410 -189 l 417 -292 q 289 -270 343 -292 q 206 -212 235 -249 q 151 -53 151 -143 l 151 343 q 117 401 151 383 q 59 418 82 418 q 28 417 36 418 l 28 510 z "},"|":{"ha":340,"x_min":119,"x_max":222,"o":"m 119 -100 l 119 1069 l 222 1069 l 222 -100 l 119 -100 z "},"}":{"ha":444,"x_min":28,"x_max":417,"o":"m 43 -189 q 148 -154 106 -189 q 190 -53 190 -119 l 190 349 q 224 424 190 392 q 307 464 257 457 q 222 504 254 474 q 189 583 189 535 l 189 911 q 146 1033 189 999 q 28 1067 103 1067 l 28 1169 q 225 1095 158 1169 q 292 911 292 1021 l 292 583 q 319 531 292 546 q 337 522 331 525 q 357 516 343 518 q 378 514 371 514 q 417 510 408 510 l 417 417 q 385 418 408 418 q 328 401 363 418 q 293 343 293 383 l 293 -53 q 239 -212 293 -143 q 156 -270 210 -249 q 28 -292 101 -292 l 28 -189 q 43 -189 35 -189 z "},"~":{"ha":608,"x_min":69,"x_max":539,"o":"m 379 840 q 508 896 435 840 l 539 838 q 475 776 492 790 q 388 738 428 738 q 301 762 347 738 q 229 786 254 786 q 184 778 204 786 q 140 758 164 771 q 99 738 115 744 l 69 794 q 107 827 81 803 q 146 861 133 851 q 224 889 185 889 q 308 865 264 889 q 379 840 353 840 z "},"¡":{"ha":374,"x_min":115,"x_max":250,"o":"m 115 535 l 115 608 q 149 640 115 638 l 217 640 q 240 628 229 639 q 250 604 250 618 l 250 536 q 218 499 247 499 l 149 499 q 115 535 115 499 m 122 -375 l 131 363 l 235 363 l 246 -375 l 122 -375 z "},"¢":{"ha":681,"x_min":56,"x_max":625,"o":"m 130 52 q 111 71 130 52 q 74 169 92 90 q 56 369 56 247 q 74 569 56 490 q 129 686 92 647 q 206 736 167 725 q 277 747 246 747 q 321 747 308 747 l 321 881 l 404 881 l 404 740 q 615 708 508 728 l 615 633 q 346 644 422 644 q 251 640 269 644 q 214 621 233 636 q 183 576 194 606 q 158 360 158 511 q 190 151 158 208 q 299 93 222 93 q 572 104 429 93 l 625 108 l 625 31 q 404 -6 524 1 l 404 -133 l 321 -133 l 321 -10 q 282 -10 314 -10 q 209 2 250 -10 q 130 52 168 14 z "},"£":{"ha":828,"x_min":69,"x_max":758,"o":"m 69 0 l 69 82 l 169 103 l 169 458 l 69 458 l 69 521 l 169 544 l 169 701 q 238 950 169 882 q 331 1003 281 993 q 461 1017 403 1017 q 708 1000 556 1017 l 758 994 l 758 915 l 489 915 q 317 888 342 915 q 277 803 282 851 q 272 701 272 754 l 272 544 l 649 521 l 649 458 l 272 458 l 272 103 l 757 103 l 757 0 l 69 0 z "},"¤":{"ha":638,"x_min":71,"x_max":567,"o":"m 183 615 q 314 657 240 657 q 449 610 388 657 l 515 675 l 564 619 l 499 554 q 532 433 532 501 q 493 306 532 364 l 567 232 l 508 181 l 440 249 q 313 204 382 204 q 189 244 244 204 l 124 179 l 72 238 l 135 299 q 92 433 92 358 q 131 563 92 507 l 71 624 l 126 674 l 183 615 m 312 576 q 282 576 312 576 q 211 535 253 576 q 169 433 169 493 q 210 329 169 374 q 311 285 251 285 q 413 329 371 285 q 454 434 454 374 q 413 535 454 494 q 312 576 371 576 z "},"¥":{"ha":833,"x_min":28,"x_max":806,"o":"m 707 446 l 707 364 l 454 364 l 454 294 l 707 294 l 707 213 l 454 213 l 454 0 l 351 0 l 351 213 l 114 213 l 114 294 l 351 294 l 351 364 l 114 364 l 114 446 l 350 446 l 28 1017 l 140 1017 l 403 547 l 689 1017 l 806 1017 l 456 446 l 707 446 z "},"¦":{"ha":342,"x_min":119,"x_max":222,"o":"m 119 -100 l 119 356 l 222 356 l 222 -100 l 119 -100 m 119 596 l 119 1069 l 222 1069 l 222 596 l 119 596 z "},"§":{"ha":767,"x_min":76,"x_max":690,"o":"m 78 490 l 78 576 q 139 706 78 686 q 76 819 76 724 l 76 917 q 128 1049 76 1010 q 257 1089 179 1089 q 638 1063 386 1089 l 638 986 l 257 986 q 199 971 218 986 q 179 917 181 956 l 179 819 q 257 754 179 754 l 506 754 q 653 710 615 754 q 690 578 692 665 l 690 492 q 632 368 690 376 q 689 254 689 360 l 689 153 q 625 14 689 44 q 476 -11 575 -11 q 128 15 378 -11 l 128 92 l 497 92 q 563 103 540 92 q 586 153 585 115 l 586 254 q 569 308 586 296 q 506 319 551 319 l 257 319 q 122 355 165 319 q 78 490 78 390 m 179 490 q 197 435 179 447 q 257 422 214 422 l 506 422 q 576 444 564 422 q 586 492 586 460 l 586 578 q 573 636 586 619 q 506 653 560 653 l 257 653 q 194 639 210 653 q 179 575 179 625 l 179 490 z "},"¨":{"ha":633,"x_min":69,"x_max":564,"o":"m 90 758 q 80 769 90 758 q 69 808 69 779 q 90 858 69 838 q 140 878 111 878 q 190 858 169 878 q 210 808 210 838 q 190 758 210 779 q 140 738 169 738 q 90 758 111 738 m 444 758 q 434 769 444 758 q 424 808 424 779 q 444 858 424 838 q 494 878 465 878 q 544 858 524 878 q 564 808 564 838 q 544 758 564 779 q 494 738 524 738 q 444 758 465 738 z "},"©":{"ha":1126,"x_min":76,"x_max":1050,"o":"m 76 511 q 392 1017 76 1017 l 767 1017 q 992 872 925 1017 q 1050 511 1050 747 q 988 156 1050 299 q 899 42 956 83 q 767 0 843 0 l 392 0 q 261 36 318 0 q 170 126 204 72 q 114 251 136 181 q 76 511 76 371 m 165 511 q 224 217 165 344 q 392 89 282 90 l 767 89 q 907 199 853 90 q 961 511 961 307 q 914 831 961 733 q 857 899 894 871 q 767 928 819 928 l 392 928 q 226 836 286 928 q 165 511 165 744 m 521 204 q 374 270 428 204 q 321 501 321 336 q 375 738 321 665 q 521 810 429 810 q 768 776 582 810 l 768 704 q 521 721 651 721 q 410 503 410 721 q 433 348 410 403 q 521 293 457 293 q 776 315 621 293 l 776 243 q 521 204 638 204 z "},"ª":{"ha":506,"x_min":42,"x_max":464,"o":"m 42 372 l 42 453 l 464 453 l 464 372 l 42 372 m 42 643 l 42 707 q 79 798 42 764 q 181 832 117 832 q 326 831 278 831 q 375 832 375 831 q 375 864 375 853 q 375 876 375 875 q 290 946 375 946 q 167 942 238 946 q 58 936 96 938 l 58 994 q 128 1006 82 997 q 301 1026 231 1026 q 307 1026 304 1026 q 417 991 372 1026 q 461 883 461 956 l 461 525 l 406 525 l 376 593 l 364 586 q 186 519 249 519 q 83 552 124 519 q 42 643 42 585 m 128 661 q 189 606 128 606 q 347 639 264 606 l 375 650 l 375 769 l 189 756 q 128 699 128 750 l 128 661 z "},"«":{"ha":763,"x_min":69,"x_max":693,"o":"m 69 492 l 356 774 l 428 701 l 213 492 l 435 275 l 363 203 l 69 492 m 328 492 l 614 774 l 686 701 l 471 492 l 693 275 l 621 203 l 328 492 z "},"¬":{"ha":732,"x_min":69,"x_max":663,"o":"m 69 356 l 69 458 l 663 458 l 663 221 l 560 221 l 560 356 l 69 356 z "},"­":{"ha":492,"x_min":28,"x_max":464,"o":"m 28 351 l 28 454 l 464 454 l 464 351 l 28 351 z "},"®":{"ha":1126,"x_min":76,"x_max":1050,"o":"m 76 511 q 392 1017 76 1017 l 767 1017 q 992 872 925 1017 q 1050 511 1050 747 q 988 156 1050 299 q 899 42 956 83 q 767 0 843 0 l 392 0 q 261 36 318 0 q 170 126 204 72 q 114 251 136 181 q 76 511 76 371 m 165 511 q 224 217 165 344 q 392 89 282 90 l 767 89 q 907 199 853 90 q 961 511 961 307 q 914 831 961 733 q 857 899 894 871 q 767 928 819 928 l 392 928 q 226 836 286 928 q 165 511 165 744 m 363 213 l 363 806 l 608 806 q 794 628 794 806 q 743 478 794 513 q 703 456 717 461 q 661 446 690 451 l 788 213 l 688 213 l 561 449 l 451 465 l 451 213 l 363 213 m 451 526 l 617 526 q 688 546 671 526 q 706 611 706 565 q 697 677 706 657 q 674 706 689 697 q 617 717 650 717 l 451 717 l 451 526 z "},"¯":{"ha":544,"x_min":69,"x_max":475,"o":"m 69 738 l 69 825 l 475 825 l 475 738 l 69 738 z "},"°":{"ha":421,"x_min":69,"x_max":351,"o":"m 111 777 q 90 798 111 777 q 69 878 69 818 q 111 979 69 938 q 211 1021 153 1021 q 310 979 269 1021 q 351 878 351 938 q 310 777 351 818 q 211 736 269 736 q 111 777 153 736 m 158 931 q 146 920 158 931 q 135 878 135 908 q 157 825 135 847 q 210 803 179 803 q 264 825 242 803 q 286 878 286 847 q 264 932 286 910 q 211 954 242 954 q 158 931 181 954 z "},"±":{"ha":732,"x_min":78,"x_max":656,"o":"m 78 121 l 78 224 l 656 224 l 656 121 l 78 121 m 78 538 l 78 640 l 314 640 l 314 878 l 417 878 l 417 640 l 656 640 l 656 538 l 417 538 l 417 300 l 314 300 l 314 538 l 78 538 z "},"²":{"ha":538,"x_min":43,"x_max":479,"o":"m 44 1147 q 43 1164 43 1147 q 44 1197 43 1181 l 44 1213 q 299 1233 217 1233 q 479 1044 479 1233 q 454 940 479 996 q 402 847 429 885 q 325 758 375 808 q 258 694 275 708 q 206 650 242 681 l 478 650 l 478 564 l 49 564 l 49 644 q 105 688 60 654 q 179 746 150 722 q 252 810 208 769 q 322 886 296 851 q 389 1034 389 971 q 365 1122 389 1097 q 283 1147 342 1147 l 44 1147 z "},"³":{"ha":564,"x_min":42,"x_max":481,"o":"m 47 583 l 49 643 l 294 644 q 372 664 350 644 q 394 729 394 683 l 394 761 q 300 857 394 854 l 103 864 l 103 929 l 300 939 q 396 1028 396 943 l 396 1058 q 300 1142 396 1142 l 42 1142 l 42 1201 q 214 1226 117 1226 q 313 1226 264 1226 q 439 1180 397 1226 q 481 1064 481 1133 l 481 1015 q 461 937 481 969 q 413 893 442 904 q 481 763 481 850 l 481 724 q 442 601 481 643 q 306 558 403 558 q 190 558 258 558 q 47 583 122 558 z "},"´":{"ha":336,"x_min":28,"x_max":308,"o":"m 28 738 l 176 922 l 308 922 l 124 738 l 28 738 z "},"µ":{"ha":825,"x_min":125,"x_max":728,"o":"m 125 -375 l 125 738 l 228 738 l 228 224 q 263 124 228 158 q 351 90 297 90 q 453 101 406 90 q 528 124 500 113 q 625 169 557 136 l 625 738 l 728 738 l 728 0 l 656 0 l 625 86 q 594 69 621 85 q 562 50 568 53 q 532 34 556 47 q 499 18 508 21 q 467 7 489 15 q 431 -4 444 -1 q 353 -12 386 -12 q 228 22 279 -12 l 228 -375 l 125 -375 z "},"¶":{"ha":807,"x_min":56,"x_max":779,"o":"m 56 693 l 56 822 q 120 966 56 915 q 272 1017 185 1017 l 779 1017 l 779 911 l 683 911 l 683 0 l 581 0 l 581 914 l 450 914 l 450 -375 l 347 -375 l 347 517 l 335 510 q 272 493 304 493 q 113 550 169 493 q 56 693 56 607 m 158 696 q 194 617 158 639 q 272 596 231 596 l 347 596 l 347 914 l 272 914 q 185 885 211 914 q 158 819 158 856 l 158 696 z "},"·":{"ha":378,"x_min":118,"x_max":260,"o":"m 118 492 l 118 571 q 151 606 118 606 l 225 606 q 260 571 260 606 l 260 492 q 225 460 260 460 l 151 460 q 118 492 118 460 z "},"¸":{"ha":350,"x_min":69,"x_max":281,"o":"m 188 -51 l 281 -51 q 251 -200 281 -160 q 140 -240 222 -240 l 69 -240 l 69 -189 l 143 -168 q 188 -51 188 -149 z "},"¹":{"ha":376,"x_min":22,"x_max":286,"o":"m 286 1225 l 286 564 l 200 564 l 200 1129 l 22 1081 l 22 1149 l 200 1225 l 286 1225 z "},"º":{"ha":542,"x_min":42,"x_max":500,"o":"m 272 518 q 207 518 272 518 q 92 573 142 518 q 42 770 42 628 q 91 968 42 913 q 272 1024 140 1024 q 452 968 404 1024 q 500 770 500 913 q 451 573 500 628 q 272 518 403 518 m 57 376 l 57 457 l 483 457 l 483 376 l 57 376 m 165 916 q 154 908 165 916 q 135 864 143 900 q 128 767 128 828 q 137 674 128 707 q 169 626 146 640 q 212 608 192 611 q 274 604 232 604 q 335 607 315 604 q 376 624 354 610 q 406 672 397 639 q 414 772 414 713 q 407 865 414 832 q 378 915 400 899 q 335 934 356 931 q 271 938 315 938 q 207 935 226 938 q 165 916 188 932 z "},"»":{"ha":763,"x_min":69,"x_max":693,"o":"m 69 275 l 292 492 l 76 701 l 149 774 l 435 492 l 142 203 l 69 275 m 328 275 l 550 492 l 335 701 l 407 774 l 693 492 l 400 203 l 328 275 z "},"¼":{"ha":1254,"x_min":22,"x_max":1225,"o":"m 286 1017 l 286 356 l 200 356 l 200 921 l 22 872 l 22 940 l 200 1017 l 286 1017 m 306 0 l 789 1017 l 879 1017 l 396 0 l 306 0 m 1057 256 l 1057 424 l 1096 490 l 1143 490 l 1143 256 l 1225 256 l 1225 183 l 1143 165 l 1143 -1 l 1057 -1 l 1057 165 l 719 165 l 689 199 l 979 658 l 1078 658 l 826 256 l 1057 256 z "},"½":{"ha":1353,"x_min":22,"x_max":1296,"o":"m 286 1017 l 286 356 l 200 356 l 200 921 l 22 872 l 22 940 l 200 1017 l 286 1017 m 299 0 l 782 1017 l 872 1017 l 389 0 l 299 0 m 861 583 q 860 600 860 583 q 861 633 860 617 l 861 649 q 1115 669 1033 669 q 1296 481 1296 669 q 1271 376 1296 432 q 1219 283 1246 321 q 1142 194 1192 244 q 1075 131 1092 144 q 1022 86 1058 117 l 1294 86 l 1294 0 l 865 0 l 865 81 q 922 124 876 90 q 996 182 967 158 q 1069 247 1025 206 q 1139 322 1113 288 q 1206 470 1206 407 q 1182 558 1206 533 q 1100 583 1158 583 l 861 583 z "},"¾":{"ha":1415,"x_min":42,"x_max":1343,"o":"m 47 375 l 49 435 l 294 436 q 372 456 350 436 q 394 521 394 475 l 394 553 q 300 649 394 646 l 103 656 l 103 721 l 300 731 q 396 819 396 735 l 396 850 q 300 933 396 933 l 42 933 l 42 993 q 214 1018 117 1018 q 313 1018 264 1018 q 439 972 397 1018 q 481 856 481 925 l 481 807 q 461 728 481 761 q 413 685 442 696 q 481 554 481 642 l 481 515 q 442 392 481 435 q 306 350 403 350 q 190 350 258 350 q 47 375 122 350 m 443 0 l 926 1017 l 1017 1017 l 533 0 l 443 0 m 1181 251 l 1181 425 l 1214 492 l 1261 492 l 1261 251 l 1343 251 l 1343 185 l 1261 167 l 1261 0 l 1181 0 l 1181 167 l 838 167 l 807 200 l 1096 658 l 1189 658 l 938 251 l 1181 251 z "},"¿":{"ha":754,"x_min":56,"x_max":726,"o":"m 472 -372 l 376 -375 q 339 -374 347 -375 q 329 -372 331 -372 q 56 -111 56 -372 l 56 31 q 150 208 54 150 q 314 249 219 249 q 390 243 350 249 l 390 383 l 497 383 l 499 158 q 383 160 433 160 q 292 158 333 160 q 215 117 250 157 q 176 21 181 76 q 175 -118 175 -90 q 216 -225 175 -181 q 338 -269 257 -269 q 347 -269 342 -269 l 726 -268 q 724 -305 722 -268 q 724 -344 725 -342 q 617 -359 654 -356 q 534 -367 581 -362 q 472 -372 488 -372 m 375 618 q 385 642 375 632 q 408 654 396 653 l 476 654 q 510 622 510 651 l 510 547 q 481 513 507 514 l 403 513 q 375 547 378 521 l 375 618 z "},"À":{"ha":931,"x_min":63,"x_max":896,"o":"m 256 1292 l 386 1292 l 536 1107 l 439 1107 l 256 1292 m 63 0 l 436 1017 l 539 1017 l 896 0 l 774 0 l 686 283 l 281 283 l 189 0 l 63 0 m 318 386 l 650 386 l 486 860 l 318 386 z "},"Á":{"ha":931,"x_min":63,"x_max":896,"o":"m 439 1107 l 589 1292 l 719 1292 l 536 1107 l 439 1107 m 63 0 l 436 1017 l 539 1017 l 896 0 l 774 0 l 686 283 l 281 283 l 189 0 l 63 0 m 318 386 l 650 386 l 486 860 l 318 386 z "},"Â":{"ha":931,"x_min":63,"x_max":896,"o":"m 285 1107 l 447 1288 l 546 1288 l 690 1107 l 592 1107 l 493 1206 l 385 1107 l 285 1107 m 63 0 l 436 1017 l 539 1017 l 896 0 l 774 0 l 686 283 l 281 283 l 189 0 l 63 0 m 318 386 l 650 386 l 486 860 l 318 386 z "},"Ã":{"ha":931,"x_min":63,"x_max":896,"o":"m 567 1204 q 692 1254 599 1204 l 722 1196 q 689 1169 718 1193 q 568 1108 614 1108 q 482 1132 526 1108 q 412 1156 438 1156 q 366 1148 386 1156 q 323 1127 346 1140 q 282 1107 300 1114 l 253 1164 q 309 1209 290 1194 q 359 1238 328 1224 q 423 1251 390 1253 q 502 1227 456 1250 q 558 1204 549 1204 q 567 1204 567 1204 m 63 0 l 436 1017 l 539 1017 l 896 0 l 774 0 l 686 283 l 281 283 l 189 0 l 63 0 m 318 386 l 650 386 l 486 860 l 318 386 z "},"Ä":{"ha":931,"x_min":63,"x_max":896,"o":"m 261 1128 q 251 1138 261 1128 q 240 1178 240 1149 q 261 1227 240 1207 q 311 1247 282 1247 q 360 1227 340 1247 q 381 1178 381 1207 q 360 1128 381 1149 q 311 1107 340 1107 q 261 1128 282 1107 m 615 1128 q 605 1138 615 1128 q 594 1178 594 1149 q 615 1227 594 1207 q 665 1247 636 1247 q 715 1227 694 1247 q 735 1178 735 1207 q 715 1128 735 1149 q 665 1107 694 1107 q 615 1128 636 1107 m 63 0 l 436 1017 l 539 1017 l 896 0 l 774 0 l 686 283 l 281 283 l 189 0 l 63 0 m 318 386 l 650 386 l 486 860 l 318 386 z "},"Å":{"ha":931,"x_min":63,"x_max":896,"o":"m 347 1166 q 347 1141 347 1166 q 366 1084 347 1117 q 417 1033 385 1051 q 488 1014 450 1014 q 559 1033 526 1014 q 610 1084 592 1051 q 628 1166 628 1117 q 587 1257 628 1215 q 488 1299 546 1299 q 388 1257 429 1299 q 347 1166 347 1215 m 434 1103 q 423 1114 434 1103 q 411 1156 411 1125 q 434 1210 411 1188 q 488 1232 457 1232 q 542 1210 519 1232 q 564 1156 564 1188 q 542 1103 564 1125 q 488 1081 519 1081 q 434 1103 457 1081 m 63 0 l 436 1017 l 539 1017 l 896 0 l 774 0 l 686 283 l 281 283 l 189 0 l 63 0 m 318 386 l 650 386 l 486 860 l 318 386 z "},"Æ":{"ha":1279,"x_min":42,"x_max":1217,"o":"m 711 1018 l 772 1017 l 1217 994 l 1217 913 l 772 913 q 714 889 724 913 q 703 839 706 871 l 703 551 l 1161 538 l 1161 456 l 703 442 l 703 168 q 719 115 703 126 q 749 103 736 103 l 774 103 l 789 103 l 1215 101 l 1215 17 l 789 -7 q 768 -7 778 -7 q 600 168 600 -7 l 600 315 l 308 315 l 154 0 l 42 0 l 456 839 q 517 936 492 913 q 556 974 542 960 q 591 995 569 988 q 625 1008 613 1003 q 662 1015 638 1014 q 694 1017 686 1017 q 711 1018 701 1018 m 600 418 l 600 906 l 360 418 l 600 418 z "},"Ç":{"ha":803,"x_min":76,"x_max":754,"o":"m 421 -50 l 514 -50 q 485 -199 514 -158 q 374 -239 456 -239 l 303 -239 l 303 -187 l 376 -167 q 421 -50 421 -147 m 754 911 q 415 925 504 925 q 276 891 325 925 q 203 767 226 857 q 179 508 179 678 q 415 94 179 94 l 754 104 l 754 22 q 415 -8 590 -8 q 76 511 76 -8 q 148 901 76 775 q 415 1028 219 1028 q 754 993 567 1028 l 754 911 z "},"È":{"ha":788,"x_min":111,"x_max":725,"o":"m 244 1285 l 376 1285 l 525 1100 l 429 1100 l 244 1285 m 111 836 q 159 974 111 932 q 278 1017 207 1017 q 286 1017 282 1017 l 725 994 l 725 914 l 286 914 q 235 901 253 914 q 216 874 218 888 q 214 836 214 861 l 214 558 l 669 544 l 669 463 l 214 449 l 214 171 q 229 119 214 136 q 258 101 244 103 q 300 99 272 99 l 725 99 l 725 19 l 300 -4 q 279 -4 289 -4 q 111 171 111 -4 l 111 836 z "},"É":{"ha":788,"x_min":111,"x_max":725,"o":"m 399 1100 l 547 1285 l 679 1285 l 494 1100 l 399 1100 m 111 836 q 159 974 111 932 q 278 1017 207 1017 q 286 1017 282 1017 l 725 994 l 725 914 l 286 914 q 235 901 253 914 q 216 874 218 888 q 214 836 214 861 l 214 558 l 669 544 l 669 463 l 214 449 l 214 171 q 229 119 214 136 q 258 101 244 103 q 300 99 272 99 l 725 99 l 725 19 l 300 -4 q 279 -4 289 -4 q 111 171 111 -4 l 111 836 z "},"Ê":{"ha":788,"x_min":111,"x_max":725,"o":"m 236 1107 l 399 1288 l 497 1288 l 642 1107 l 543 1107 l 444 1206 l 336 1107 l 236 1107 m 111 836 q 159 974 111 932 q 278 1017 207 1017 q 286 1017 282 1017 l 725 994 l 725 914 l 286 914 q 235 901 253 914 q 216 874 218 888 q 214 836 214 861 l 214 558 l 669 544 l 669 463 l 214 449 l 214 171 q 229 119 214 136 q 258 101 244 103 q 300 99 272 99 l 725 99 l 725 19 l 300 -4 q 279 -4 289 -4 q 111 171 111 -4 l 111 836 z "},"Ë":{"ha":788,"x_min":111,"x_max":725,"o":"m 214 1121 q 203 1131 214 1121 q 193 1171 193 1142 q 214 1220 193 1200 q 264 1240 235 1240 q 313 1220 293 1240 q 333 1171 333 1200 q 313 1121 333 1142 q 264 1100 293 1100 q 214 1121 235 1100 m 568 1121 q 558 1131 568 1121 q 547 1171 547 1142 q 568 1220 547 1200 q 618 1240 589 1240 q 667 1220 647 1240 q 688 1171 688 1200 q 667 1121 688 1142 q 618 1100 647 1100 q 568 1121 589 1100 m 111 836 q 159 974 111 932 q 278 1017 207 1017 q 286 1017 282 1017 l 725 994 l 725 914 l 286 914 q 235 901 253 914 q 216 874 218 888 q 214 836 214 861 l 214 558 l 669 544 l 669 463 l 214 449 l 214 171 q 229 119 214 136 q 258 101 244 103 q 300 99 272 99 l 725 99 l 725 19 l 300 -4 q 279 -4 289 -4 q 111 171 111 -4 l 111 836 z "},"Ì":{"ha":297,"x_min":-71,"x_max":214,"o":"m -69 1292 l 61 1292 l 211 1107 l 114 1107 l -69 1292 m 111 0 l 111 1017 l 214 1017 l 214 0 l 111 0 z "},"Í":{"ha":297,"x_min":111,"x_max":396,"o":"m 114 1107 l 264 1292 l 394 1292 l 211 1107 l 114 1107 m 111 0 l 111 1017 l 214 1017 l 214 0 l 111 0 z "},"Î":{"ha":297,"x_min":-40,"x_max":365,"o":"m -40 1107 l 122 1288 l 221 1288 l 365 1107 l 267 1107 l 168 1206 l 60 1107 l -40 1107 m 111 0 l 111 1017 l 214 1017 l 214 0 l 111 0 z "},"Ï":{"ha":297,"x_min":-85,"x_max":410,"o":"m -64 1128 q -74 1138 -64 1128 q -85 1178 -85 1149 q -64 1227 -85 1207 q -14 1247 -43 1247 q 35 1227 15 1247 q 56 1178 56 1207 q 35 1128 56 1149 q -14 1107 15 1107 q -64 1128 -43 1107 m 290 1128 q 280 1138 290 1128 q 269 1178 269 1149 q 290 1227 269 1207 q 340 1247 311 1247 q 390 1227 369 1247 q 410 1178 410 1207 q 390 1128 410 1149 q 340 1107 369 1107 q 290 1128 311 1107 m 111 0 l 111 1017 l 214 1017 l 214 0 l 111 0 z "},"Ð":{"ha":913,"x_min":21,"x_max":850,"o":"m 21 481 l 21 556 l 111 556 l 111 1015 q 490 1017 111 1017 q 722 929 643 1017 q 826 729 803 842 q 850 523 850 614 q 839 363 850 432 q 801 228 828 294 q 733 111 774 161 q 631 31 693 61 q 490 0 568 0 l 111 0 l 111 481 l 21 481 m 214 107 l 490 107 q 681 219 619 107 q 743 506 743 331 q 490 907 743 907 l 214 906 l 214 556 l 407 556 l 407 481 l 214 481 l 214 107 z "},"Ñ":{"ha":944,"x_min":111,"x_max":861,"o":"m 565 1204 q 690 1254 597 1204 l 721 1196 q 686 1169 717 1193 q 567 1108 613 1108 q 481 1132 525 1108 q 410 1156 436 1156 q 365 1148 385 1156 q 322 1127 344 1140 q 281 1107 299 1114 l 251 1164 q 308 1209 289 1194 q 358 1238 326 1224 q 422 1251 389 1253 q 501 1227 454 1250 q 556 1204 547 1204 q 565 1204 565 1204 m 111 0 l 111 1017 l 217 1017 l 758 192 l 758 1017 l 861 1017 l 861 0 l 758 0 l 215 825 l 215 0 l 111 0 z "},"Ò":{"ha":939,"x_min":90,"x_max":876,"o":"m 253 1292 l 383 1292 l 533 1107 l 436 1107 l 253 1292 m 138 164 q 125 192 138 164 q 101 303 113 219 q 90 503 90 388 q 103 705 90 618 q 142 849 115 792 q 199 941 168 906 q 279 994 231 976 q 485 1024 358 1024 q 740 968 667 1024 q 842 814 811 914 q 876 531 876 692 q 859 277 876 369 q 812 129 842 185 q 730 44 782 74 q 622 4 678 14 q 491 -6 567 -6 q 368 0 415 -6 q 272 23 321 6 q 193 74 224 40 q 138 164 163 108 m 208 722 q 205 701 208 722 q 197 625 201 681 q 193 468 193 569 q 206 288 193 367 q 258 165 219 208 q 346 110 296 122 q 475 97 396 97 q 599 106 554 97 q 679 140 643 115 q 735 210 715 164 q 774 501 774 301 q 740 794 774 719 q 715 847 726 826 q 682 883 704 868 q 644 905 660 897 q 597 916 628 913 q 544 920 565 919 q 485 921 524 921 q 426 920 446 921 q 374 916 406 919 q 326 905 343 913 q 288 883 310 897 q 253 847 265 868 q 228 795 242 826 q 208 722 214 764 z "},"Ó":{"ha":939,"x_min":90,"x_max":876,"o":"m 436 1107 l 586 1292 l 717 1292 l 533 1107 l 436 1107 m 138 164 q 125 192 138 164 q 101 303 113 219 q 90 503 90 388 q 103 705 90 618 q 142 849 115 792 q 199 941 168 906 q 279 994 231 976 q 485 1024 358 1024 q 740 968 667 1024 q 842 814 811 914 q 876 531 876 692 q 859 277 876 369 q 812 129 842 185 q 730 44 782 74 q 622 4 678 14 q 491 -6 567 -6 q 368 0 415 -6 q 272 23 321 6 q 193 74 224 40 q 138 164 163 108 m 208 722 q 205 701 208 722 q 197 625 201 681 q 193 468 193 569 q 206 288 193 367 q 258 165 219 208 q 346 110 296 122 q 475 97 396 97 q 599 106 554 97 q 679 140 643 115 q 735 210 715 164 q 774 501 774 301 q 740 794 774 719 q 715 847 726 826 q 682 883 704 868 q 644 905 660 897 q 597 916 628 913 q 544 920 565 919 q 485 921 524 921 q 426 920 446 921 q 374 916 406 919 q 326 905 343 913 q 288 883 310 897 q 253 847 265 868 q 228 795 242 826 q 208 722 214 764 z "},"Ô":{"ha":939,"x_min":90,"x_max":876,"o":"m 282 1107 l 444 1288 l 543 1288 l 688 1107 l 589 1107 l 490 1206 l 382 1107 l 282 1107 m 138 164 q 125 192 138 164 q 101 303 113 219 q 90 503 90 388 q 103 705 90 618 q 142 849 115 792 q 199 941 168 906 q 279 994 231 976 q 485 1024 358 1024 q 740 968 667 1024 q 842 814 811 914 q 876 531 876 692 q 859 277 876 369 q 812 129 842 185 q 730 44 782 74 q 622 4 678 14 q 491 -6 567 -6 q 368 0 415 -6 q 272 23 321 6 q 193 74 224 40 q 138 164 163 108 m 208 722 q 205 701 208 722 q 197 625 201 681 q 193 468 193 569 q 206 288 193 367 q 258 165 219 208 q 346 110 296 122 q 475 97 396 97 q 599 106 554 97 q 679 140 643 115 q 735 210 715 164 q 774 501 774 301 q 740 794 774 719 q 715 847 726 826 q 682 883 704 868 q 644 905 660 897 q 597 916 628 913 q 544 920 565 919 q 485 921 524 921 q 426 920 446 921 q 374 916 406 919 q 326 905 343 913 q 288 883 310 897 q 253 847 265 868 q 228 795 242 826 q 208 722 214 764 z "},"Õ":{"ha":939,"x_min":90,"x_max":876,"o":"m 564 1204 q 689 1254 596 1204 l 719 1196 q 686 1169 715 1193 q 565 1108 611 1108 q 479 1132 524 1108 q 409 1156 435 1156 q 363 1148 383 1156 q 320 1127 343 1140 q 279 1107 297 1114 l 250 1164 q 306 1209 288 1194 q 356 1238 325 1224 q 420 1251 388 1253 q 499 1227 453 1250 q 555 1204 546 1204 q 564 1204 564 1204 m 138 164 q 125 192 138 164 q 101 303 113 219 q 90 503 90 388 q 103 705 90 618 q 142 849 115 792 q 199 941 168 906 q 279 994 231 976 q 485 1024 358 1024 q 740 968 667 1024 q 842 814 811 914 q 876 531 876 692 q 859 277 876 369 q 812 129 842 185 q 730 44 782 74 q 622 4 678 14 q 491 -6 567 -6 q 368 0 415 -6 q 272 23 321 6 q 193 74 224 40 q 138 164 163 108 m 208 722 q 205 701 208 722 q 197 625 201 681 q 193 468 193 569 q 206 288 193 367 q 258 165 219 208 q 346 110 296 122 q 475 97 396 97 q 599 106 554 97 q 679 140 643 115 q 735 210 715 164 q 774 501 774 301 q 740 794 774 719 q 715 847 726 826 q 682 883 704 868 q 644 905 660 897 q 597 916 628 913 q 544 920 565 919 q 485 921 524 921 q 426 920 446 921 q 374 916 406 919 q 326 905 343 913 q 288 883 310 897 q 253 847 265 868 q 228 795 242 826 q 208 722 214 764 z "},"Ö":{"ha":939,"x_min":90,"x_max":876,"o":"m 258 1128 q 248 1138 258 1128 q 238 1178 238 1149 q 258 1227 238 1207 q 308 1247 279 1247 q 358 1227 338 1247 q 378 1178 378 1207 q 358 1128 378 1149 q 308 1107 338 1107 q 258 1128 279 1107 m 613 1128 q 602 1138 613 1128 q 592 1178 592 1149 q 613 1227 592 1207 q 663 1247 633 1247 q 712 1227 692 1247 q 732 1178 732 1207 q 712 1128 732 1149 q 663 1107 692 1107 q 613 1128 633 1107 m 138 164 q 125 192 138 164 q 101 303 113 219 q 90 503 90 388 q 103 705 90 618 q 142 849 115 792 q 199 941 168 906 q 279 994 231 976 q 485 1024 358 1024 q 740 968 667 1024 q 842 814 811 914 q 876 531 876 692 q 859 277 876 369 q 812 129 842 185 q 730 44 782 74 q 622 4 678 14 q 491 -6 567 -6 q 368 0 415 -6 q 272 23 321 6 q 193 74 224 40 q 138 164 163 108 m 208 722 q 205 701 208 722 q 197 625 201 681 q 193 468 193 569 q 206 288 193 367 q 258 165 219 208 q 346 110 296 122 q 475 97 396 97 q 599 106 554 97 q 679 140 643 115 q 735 210 715 164 q 774 501 774 301 q 740 794 774 719 q 715 847 726 826 q 682 883 704 868 q 644 905 660 897 q 597 916 628 913 q 544 920 565 919 q 485 921 524 921 q 426 920 446 921 q 374 916 406 919 q 326 905 343 913 q 288 883 310 897 q 253 847 265 868 q 228 795 242 826 q 208 722 214 764 z "},"×":{"ha":636,"x_min":78,"x_max":560,"o":"m 78 326 l 246 493 l 78 661 l 150 735 l 318 567 l 488 735 l 560 663 l 390 493 l 558 326 l 486 253 l 318 421 l 151 254 l 78 326 z "},"Ø":{"ha":939,"x_min":90,"x_max":876,"o":"m 158 892 q 243 977 189 947 q 350 1015 297 1007 q 483 1024 403 1024 q 733 972 658 1024 l 763 1017 l 847 1017 l 786 922 q 876 501 876 806 q 811 129 876 251 q 728 44 781 74 q 621 4 676 14 q 483 -6 565 -6 q 225 47 303 -6 l 194 0 l 110 0 l 172 99 q 90 487 90 210 q 158 892 90 764 m 236 197 l 678 886 q 563 919 639 915 q 485 921 536 921 q 408 919 433 921 q 346 910 383 918 q 290 887 308 903 q 250 841 272 871 q 217 767 228 811 q 193 472 193 661 q 236 197 193 282 m 483 97 q 622 112 571 97 q 709 170 672 126 q 760 292 746 214 q 774 501 774 371 q 726 828 774 738 l 283 139 q 483 97 340 97 z "},"Ù":{"ha":940,"x_min":111,"x_max":857,"o":"m 251 1292 l 383 1292 l 532 1107 l 436 1107 l 251 1292 m 111 444 l 111 1017 l 214 1017 l 214 444 q 230 244 214 318 q 289 139 246 169 q 367 102 332 108 q 442 96 401 96 q 488 96 442 96 q 610 106 586 96 q 654 127 633 115 q 688 156 675 139 q 714 200 700 174 q 736 261 728 226 q 753 444 753 338 l 753 1017 l 857 1017 l 857 444 q 833 226 857 315 q 777 92 808 136 q 688 24 746 47 q 593 -3 631 0 q 519 -7 556 -7 q 460 -7 483 -7 q 419 -6 438 -7 q 366 -3 400 -6 q 314 5 332 -1 q 267 22 296 11 q 223 49 239 32 q 186 90 207 67 q 154 148 165 114 q 132 225 143 182 q 111 444 111 304 z "},"Ú":{"ha":940,"x_min":111,"x_max":857,"o":"m 436 1107 l 585 1292 l 717 1292 l 532 1107 l 436 1107 m 111 444 l 111 1017 l 214 1017 l 214 444 q 230 244 214 318 q 289 139 246 169 q 367 102 332 108 q 442 96 401 96 q 488 96 442 96 q 610 106 586 96 q 654 127 633 115 q 688 156 675 139 q 714 200 700 174 q 736 261 728 226 q 753 444 753 338 l 753 1017 l 857 1017 l 857 444 q 833 226 857 315 q 777 92 808 136 q 688 24 746 47 q 593 -3 631 0 q 519 -7 556 -7 q 460 -7 483 -7 q 419 -6 438 -7 q 366 -3 400 -6 q 314 5 332 -1 q 267 22 296 11 q 223 49 239 32 q 186 90 207 67 q 154 148 165 114 q 132 225 143 182 q 111 444 111 304 z "},"Û":{"ha":940,"x_min":111,"x_max":857,"o":"m 281 1107 l 444 1288 l 542 1288 l 686 1107 l 589 1107 l 489 1206 l 381 1107 l 281 1107 m 111 444 l 111 1017 l 214 1017 l 214 444 q 230 244 214 318 q 289 139 246 169 q 367 102 332 108 q 442 96 401 96 q 488 96 442 96 q 610 106 586 96 q 654 127 633 115 q 688 156 675 139 q 714 200 700 174 q 736 261 728 226 q 753 444 753 338 l 753 1017 l 857 1017 l 857 444 q 833 226 857 315 q 777 92 808 136 q 688 24 746 47 q 593 -3 631 0 q 519 -7 556 -7 q 460 -7 483 -7 q 419 -6 438 -7 q 366 -3 400 -6 q 314 5 332 -1 q 267 22 296 11 q 223 49 239 32 q 186 90 207 67 q 154 148 165 114 q 132 225 143 182 q 111 444 111 304 z "},"Ü":{"ha":940,"x_min":111,"x_max":857,"o":"m 307 1107 q 292 1107 307 1107 q 257 1128 278 1107 q 236 1170 236 1149 q 242 1205 236 1192 q 257 1228 249 1218 q 307 1247 278 1247 q 357 1227 336 1247 q 378 1178 378 1207 q 357 1128 378 1149 q 307 1107 336 1107 m 613 1128 q 602 1138 613 1128 q 592 1178 592 1149 q 612 1227 592 1207 q 662 1247 632 1247 q 711 1227 692 1247 q 731 1178 731 1207 q 710 1128 731 1149 q 662 1107 690 1107 q 613 1128 633 1107 m 111 444 l 111 1017 l 214 1017 l 214 444 q 230 244 214 318 q 289 139 246 169 q 367 102 332 108 q 442 96 401 96 l 488 96 q 610 106 586 96 q 654 127 633 115 q 688 156 675 139 q 714 200 700 174 q 736 261 728 226 q 753 444 753 338 l 753 1017 l 857 1017 l 857 444 q 833 226 857 315 q 777 92 808 136 q 688 24 746 47 q 593 -3 631 0 q 519 -7 556 -7 q 460 -7 483 -7 q 419 -6 438 -7 q 366 -3 400 -6 q 314 5 332 -1 q 267 22 296 11 q 223 49 239 32 q 186 90 207 67 q 154 148 165 114 q 132 225 143 182 q 111 444 111 304 z "},"Ý":{"ha":875,"x_min":63,"x_max":840,"o":"m 403 1107 l 553 1292 l 683 1292 l 500 1107 l 403 1107 m 489 0 l 386 0 l 386 361 l 63 1017 l 175 1017 l 438 483 l 728 1017 l 840 1017 l 489 361 l 489 0 z "},"Þ":{"ha":774,"x_min":83,"x_max":704,"o":"m 186 233 l 186 0 l 83 0 l 83 1013 l 186 1013 l 186 817 l 460 817 q 704 521 704 814 q 589 236 704 299 q 525 212 554 217 q 472 207 496 207 q 378 207 433 207 q 186 233 322 207 m 186 310 l 460 310 q 464 310 461 310 q 563 353 525 310 q 600 524 600 397 q 546 686 597 654 q 460 713 506 713 l 186 713 l 186 310 z "},"ß":{"ha":792,"x_min":83,"x_max":764,"o":"m 304 99 l 550 92 q 626 117 593 92 q 661 183 660 143 l 661 249 q 631 294 661 278 q 559 319 601 310 q 474 342 517 328 q 401 391 431 356 q 371 488 371 426 q 402 591 371 549 q 539 711 433 633 q 608 850 608 764 q 393 976 608 976 q 244 931 303 976 q 186 786 186 885 l 186 0 l 83 0 l 83 786 q 167 995 83 911 q 393 1079 250 1079 q 561 1053 492 1079 q 664 986 631 1028 q 713 846 713 925 q 667 703 713 774 q 601 632 639 658 q 565 603 589 621 q 533 576 542 585 q 509 554 524 568 q 489 531 494 540 q 474 483 474 507 q 503 444 474 458 q 576 419 533 429 q 662 395 619 410 q 734 344 704 381 q 764 249 764 307 l 764 183 q 617 -1 764 39 q 542 -11 581 -11 q 456 -6 503 -11 q 365 6 410 -1 q 304 15 319 14 l 304 99 z "},"à":{"ha":721,"x_min":56,"x_max":651,"o":"m 138 1019 l 269 1019 l 418 835 l 322 835 l 138 1019 m 79 710 q 443 751 229 751 q 592 699 533 751 q 651 538 651 646 l 651 0 l 575 0 l 549 89 l 528 79 q 240 -8 347 -8 q 108 40 161 -8 q 56 175 56 89 l 56 260 q 105 394 56 344 q 240 444 154 444 q 472 444 394 444 q 549 444 549 444 q 550 513 550 490 q 549 538 550 536 q 429 651 549 651 q 79 635 310 651 l 79 710 m 158 182 q 240 94 158 94 q 367 113 290 94 q 497 147 444 131 l 549 165 l 549 364 l 240 342 q 178 313 199 338 q 158 251 158 288 l 158 182 z "},"á":{"ha":721,"x_min":56,"x_max":651,"o":"m 315 835 l 464 1019 l 596 1019 l 411 835 l 315 835 m 79 710 q 443 751 229 751 q 592 699 533 751 q 651 538 651 646 l 651 0 l 575 0 l 549 89 l 528 79 q 240 -8 347 -8 q 108 40 161 -8 q 56 175 56 89 l 56 260 q 105 394 56 344 q 240 444 154 444 q 472 444 394 444 q 549 444 549 444 q 550 513 550 490 q 549 538 550 536 q 429 651 549 651 q 79 635 310 651 l 79 710 m 158 182 q 240 94 158 94 q 367 113 290 94 q 497 147 444 131 l 549 165 l 549 364 l 240 342 q 178 313 199 338 q 158 251 158 288 l 158 182 z "},"â":{"ha":721,"x_min":56,"x_max":651,"o":"m 163 835 l 325 1015 l 424 1015 l 568 835 l 469 835 l 371 933 l 263 835 l 163 835 m 79 710 q 443 751 229 751 q 592 699 533 751 q 651 538 651 646 l 651 0 l 575 0 l 549 89 l 528 79 q 240 -8 347 -8 q 108 40 161 -8 q 56 175 56 89 l 56 260 q 105 394 56 344 q 240 444 154 444 q 472 444 394 444 q 549 444 549 444 q 550 513 550 490 q 549 538 550 536 q 429 651 549 651 q 79 635 310 651 l 79 710 m 158 182 q 240 94 158 94 q 367 113 290 94 q 497 147 444 131 l 549 165 l 549 364 l 240 342 q 178 313 199 338 q 158 251 158 288 l 158 182 z "},"ã":{"ha":721,"x_min":56,"x_max":651,"o":"m 438 932 q 563 982 469 932 l 593 924 q 558 897 589 921 q 439 836 485 836 q 353 860 397 836 q 283 883 308 883 q 237 876 257 883 q 194 855 217 868 q 153 835 171 842 l 124 892 q 180 937 161 922 q 230 966 199 951 q 294 979 261 981 q 373 955 326 978 q 428 932 419 932 q 438 932 438 932 m 79 710 q 443 751 229 751 q 592 699 533 751 q 651 538 651 646 l 651 0 l 575 0 l 549 89 l 528 79 q 240 -8 347 -8 q 108 40 161 -8 q 56 175 56 89 l 56 260 q 105 394 56 344 q 240 444 154 444 q 472 444 394 444 q 549 444 549 444 q 550 513 550 490 q 549 538 550 536 q 429 651 549 651 q 79 635 310 651 l 79 710 m 158 182 q 240 94 158 94 q 367 113 290 94 q 497 147 444 131 l 549 165 l 549 364 l 240 342 q 178 313 199 338 q 158 251 158 288 l 158 182 z "},"ä":{"ha":721,"x_min":56,"x_max":651,"o":"m 136 856 q 126 866 136 856 q 115 906 115 876 q 136 955 115 935 q 186 975 157 975 q 235 955 215 975 q 256 906 256 935 q 235 856 256 876 q 186 835 215 835 q 136 856 157 835 m 490 856 q 480 866 490 856 q 469 906 469 876 q 490 955 469 935 q 540 975 511 975 q 590 955 569 975 q 610 906 610 935 q 590 856 610 876 q 540 835 569 835 q 490 856 511 835 m 79 710 q 443 751 229 751 q 592 699 533 751 q 651 538 651 646 l 651 0 l 575 0 l 549 89 l 528 79 q 240 -8 347 -8 q 108 40 161 -8 q 56 175 56 89 l 56 260 q 105 394 56 344 q 240 444 154 444 q 472 444 394 444 q 549 444 549 444 q 550 513 550 490 q 549 538 550 536 q 429 651 549 651 q 79 635 310 651 l 79 710 m 158 182 q 240 94 158 94 q 367 113 290 94 q 497 147 444 131 l 549 165 l 549 364 l 240 342 q 178 313 199 338 q 158 251 158 288 l 158 182 z "},"å":{"ha":721,"x_min":56,"x_max":651,"o":"m 265 834 q 244 855 265 834 q 224 935 224 875 q 265 1036 224 994 q 365 1078 307 1078 q 465 1036 424 1078 q 506 935 506 994 q 465 834 506 875 q 365 793 424 793 q 265 834 307 793 m 365 1011 q 349 1011 365 1011 q 311 989 333 1011 q 289 935 289 967 q 311 882 289 904 q 365 860 333 860 q 419 881 397 860 q 440 935 440 903 q 418 989 440 967 q 365 1011 396 1011 m 79 710 q 443 751 229 751 q 592 699 533 751 q 651 538 651 646 l 651 0 l 575 0 l 549 89 l 528 79 q 240 -8 347 -8 q 108 40 161 -8 q 56 175 56 89 l 56 260 q 105 394 56 344 q 240 444 154 444 q 472 444 394 444 q 549 444 549 444 q 550 513 550 490 q 549 538 550 536 q 429 651 549 651 q 79 635 310 651 l 79 710 m 158 182 q 240 94 158 94 q 367 113 290 94 q 497 147 444 131 l 549 165 l 549 364 l 240 342 q 178 313 199 338 q 158 251 158 288 l 158 182 z "},"æ":{"ha":1210,"x_min":56,"x_max":1154,"o":"m 79 718 q 447 760 206 760 q 615 679 560 760 q 712 737 651 722 q 860 751 772 751 q 992 744 949 751 q 1076 713 1035 738 q 1136 633 1118 688 q 1154 490 1154 579 q 964 321 1154 321 l 653 321 q 682 148 653 192 q 793 104 711 104 q 1140 118 1046 104 l 1140 40 q 793 1 1003 1 q 667 24 710 1 q 579 99 624 47 l 556 89 q 354 17 433 35 q 240 0 275 0 q 108 49 161 0 q 56 183 56 97 l 56 239 q 105 374 56 324 q 240 424 154 424 q 472 422 394 422 q 549 424 549 422 q 550 514 550 483 q 549 546 550 544 q 433 660 549 660 q 79 643 317 660 l 79 718 m 158 190 q 240 103 158 103 q 367 121 290 103 q 497 156 444 139 l 549 174 l 549 351 l 240 329 q 178 300 199 325 q 158 239 158 275 l 158 190 m 653 422 l 964 422 q 1051 490 1051 422 q 1020 623 1051 597 q 874 649 989 649 q 703 619 731 649 q 658 528 664 578 q 653 422 653 478 z "},"ç":{"ha":694,"x_min":69,"x_max":639,"o":"m 88 175 q 78 214 88 175 q 69 369 69 253 q 87 564 69 486 q 139 680 104 642 q 214 733 174 718 q 337 747 254 747 q 629 708 419 747 l 629 633 q 360 644 436 644 q 265 640 283 644 q 228 621 247 636 q 197 576 208 606 q 172 360 172 511 q 204 151 172 208 q 313 93 236 93 q 586 104 443 93 l 639 108 l 639 31 q 313 -10 506 -7 q 215 5 256 -10 q 140 58 175 19 q 88 175 106 97 m 361 -51 l 454 -51 q 425 -200 454 -160 q 314 -240 396 -240 l 243 -240 l 243 -189 l 317 -168 q 361 -51 361 -149 z "},"è":{"ha":729,"x_min":69,"x_max":674,"o":"m 158 1013 l 292 1013 l 439 828 l 344 828 l 158 1013 m 69 372 q 86 569 69 494 q 147 681 103 643 q 244 731 190 719 q 383 743 297 743 q 511 736 468 743 q 596 704 554 729 q 656 625 638 679 q 674 482 674 571 q 483 313 674 313 l 172 313 q 201 140 172 183 q 313 96 231 96 q 660 110 565 96 l 660 32 q 313 -7 522 -7 q 121 74 172 -7 q 69 372 69 154 m 172 414 l 483 414 q 571 482 571 414 q 540 615 571 589 q 393 640 508 640 q 222 611 250 640 q 178 519 183 569 q 172 414 172 469 z "},"é":{"ha":729,"x_min":69,"x_max":674,"o":"m 331 828 l 478 1013 l 611 1013 l 425 828 l 331 828 m 69 372 q 86 569 69 494 q 147 681 103 643 q 244 731 190 719 q 383 743 297 743 q 511 736 468 743 q 596 704 554 729 q 656 625 638 679 q 674 482 674 571 q 483 313 674 313 l 172 313 q 201 140 172 183 q 313 96 231 96 q 660 110 565 96 l 660 32 q 313 -7 522 -7 q 121 74 172 -7 q 69 372 69 154 m 172 414 l 483 414 q 571 482 571 414 q 540 615 571 589 q 393 640 508 640 q 222 611 250 640 q 178 519 183 569 q 172 414 172 469 z "},"ê":{"ha":729,"x_min":69,"x_max":674,"o":"m 178 828 l 340 1008 l 439 1008 l 583 828 l 485 828 l 386 926 l 278 828 l 178 828 m 69 372 q 86 569 69 494 q 147 681 103 643 q 244 731 190 719 q 383 743 297 743 q 511 736 468 743 q 596 704 554 729 q 656 625 638 679 q 674 482 674 571 q 483 313 674 313 l 172 313 q 201 140 172 183 q 313 96 231 96 q 660 110 565 96 l 660 32 q 313 -7 522 -7 q 121 74 172 -7 q 69 372 69 154 m 172 414 l 483 414 q 571 482 571 414 q 540 615 571 589 q 393 640 508 640 q 222 611 250 640 q 178 519 183 569 q 172 414 172 469 z "},"ë":{"ha":729,"x_min":69,"x_max":674,"o":"m 150 849 q 140 859 150 849 q 129 899 129 869 q 150 948 129 928 q 200 968 171 968 q 249 948 229 968 q 269 899 269 928 q 249 849 269 869 q 200 828 229 828 q 150 849 171 828 m 504 849 q 494 859 504 849 q 483 899 483 869 q 504 948 483 928 q 554 968 525 968 q 603 948 583 968 q 624 899 624 928 q 603 849 624 869 q 554 828 583 828 q 504 849 525 828 m 69 372 q 86 569 69 494 q 147 681 103 643 q 244 731 190 719 q 383 743 297 743 q 511 736 468 743 q 596 704 554 729 q 656 625 638 679 q 674 482 674 571 q 483 313 674 313 l 172 313 q 201 140 172 183 q 313 96 231 96 q 660 110 565 96 l 660 32 q 313 -7 522 -7 q 121 74 172 -7 q 69 372 69 154 m 172 414 l 483 414 q 571 482 571 414 q 540 615 571 589 q 393 640 508 640 q 222 611 250 640 q 178 519 183 569 q 172 414 172 469 z "},"ì":{"ha":269,"x_min":-99,"x_max":186,"o":"m -97 1013 l 33 1013 l 183 828 l 86 828 l -97 1013 m 83 0 l 83 738 l 186 738 l 186 0 l 83 0 z "},"í":{"ha":269,"x_min":83,"x_max":368,"o":"m 86 828 l 236 1013 l 367 1013 l 183 828 l 86 828 m 83 0 l 83 738 l 186 738 l 186 0 l 83 0 z "},"î":{"ha":269,"x_min":-68,"x_max":338,"o":"m -68 828 l 94 1008 l 193 1008 l 338 828 l 239 828 l 140 926 l 32 828 l -68 828 m 83 0 l 83 738 l 186 738 l 186 0 l 83 0 z "},"ï":{"ha":269,"x_min":-112,"x_max":382,"o":"m -92 849 q -102 859 -92 849 q -112 899 -112 869 q -92 948 -112 928 q -42 968 -71 968 q 8 948 -12 968 q 28 899 28 928 q 8 849 28 869 q -42 828 -12 828 q -92 849 -71 828 m 263 849 q 252 859 263 849 q 242 899 242 869 q 263 948 242 928 q 313 968 283 968 q 362 948 342 968 q 382 899 382 928 q 362 849 382 869 q 313 828 342 828 q 263 849 283 828 m 83 0 l 83 738 l 186 738 l 186 0 l 83 0 z "},"ð":{"ha":747,"x_min":56,"x_max":692,"o":"m 303 0 q 110 87 164 0 q 56 363 56 174 q 112 645 56 553 q 303 738 168 738 l 442 738 q 539 717 519 738 q 436 900 504 832 l 235 819 l 201 903 l 353 964 q 199 997 289 997 q 172 997 186 997 l 172 1088 q 463 1006 356 1088 l 626 1071 l 661 988 l 535 938 q 692 367 692 744 q 626 85 692 169 q 442 0 561 0 l 303 0 m 224 616 q 209 607 224 616 q 176 537 194 597 q 158 376 158 476 q 169 222 158 276 q 201 142 179 167 q 245 112 224 118 q 303 106 267 106 l 442 106 q 557 170 525 106 q 589 379 589 235 q 559 579 589 524 q 442 635 529 635 l 303 635 q 224 616 253 635 z "},"ñ":{"ha":756,"x_min":83,"x_max":686,"o":"m 464 931 q 589 981 496 931 l 619 922 q 586 894 615 919 q 465 835 511 835 q 379 858 424 835 q 309 882 335 882 q 263 874 283 882 q 220 853 243 867 q 179 833 197 840 l 150 890 q 206 935 188 921 q 256 965 225 950 q 320 978 288 979 q 399 953 353 976 q 455 931 446 931 q 464 931 464 931 m 83 0 l 83 738 l 156 738 l 186 651 q 217 669 190 653 q 249 688 243 685 q 279 703 256 690 q 313 719 303 717 q 344 731 322 722 q 381 742 367 739 q 458 750 425 750 q 625 681 564 750 q 686 514 686 611 l 686 0 l 583 0 l 583 514 q 549 613 583 579 q 460 647 514 647 q 358 636 406 647 q 283 613 311 625 q 186 568 254 601 l 186 0 l 83 0 z "},"ò":{"ha":789,"x_min":69,"x_max":719,"o":"m 175 1013 l 308 1013 l 456 828 l 361 828 l 175 1013 m 396 -7 q 303 -7 396 -7 q 140 75 211 -7 q 69 369 69 157 q 140 663 69 582 q 396 744 211 744 q 650 662 581 744 q 719 365 719 579 q 650 72 719 151 q 396 -7 581 -7 m 205 572 q 198 557 205 572 q 181 490 190 542 q 172 353 172 438 q 185 214 172 268 q 231 135 199 160 q 298 103 264 110 q 395 96 332 96 q 494 103 458 96 q 560 135 529 110 q 604 215 592 161 q 617 363 617 268 q 606 514 617 457 q 565 599 596 571 q 499 635 535 628 q 403 642 464 642 q 311 638 342 642 q 250 618 281 633 q 205 572 219 603 z "},"ó":{"ha":789,"x_min":69,"x_max":719,"o":"m 347 828 l 494 1013 l 628 1013 l 442 828 l 347 828 m 396 -7 q 303 -7 396 -7 q 140 75 211 -7 q 69 369 69 157 q 140 663 69 582 q 396 744 211 744 q 650 662 581 744 q 719 365 719 579 q 650 72 719 151 q 396 -7 581 -7 m 205 572 q 198 557 205 572 q 181 490 190 542 q 172 353 172 438 q 185 214 172 268 q 231 135 199 160 q 298 103 264 110 q 395 96 332 96 q 494 103 458 96 q 560 135 529 110 q 604 215 592 161 q 617 363 617 268 q 606 514 617 457 q 565 599 596 571 q 499 635 535 628 q 403 642 464 642 q 311 638 342 642 q 250 618 281 633 q 205 572 219 603 z "},"ô":{"ha":789,"x_min":69,"x_max":719,"o":"m 199 828 l 361 1008 l 460 1008 l 604 828 l 506 828 l 407 926 l 299 828 l 199 828 m 396 -7 q 303 -7 396 -7 q 140 75 211 -7 q 69 369 69 157 q 140 663 69 582 q 396 744 211 744 q 650 662 581 744 q 719 365 719 579 q 650 72 719 151 q 396 -7 581 -7 m 205 572 q 198 557 205 572 q 181 490 190 542 q 172 353 172 438 q 185 214 172 268 q 231 135 199 160 q 298 103 264 110 q 395 96 332 96 q 494 103 458 96 q 560 135 529 110 q 604 215 592 161 q 617 363 617 268 q 606 514 617 457 q 565 599 596 571 q 499 635 535 628 q 403 642 464 642 q 311 638 342 642 q 250 618 281 633 q 205 572 219 603 z "},"õ":{"ha":789,"x_min":69,"x_max":719,"o":"m 486 925 q 611 975 518 925 l 642 917 q 608 889 638 914 q 488 829 533 829 q 401 853 446 829 q 331 876 357 876 q 285 869 306 876 q 242 848 265 861 q 201 828 219 835 l 172 885 q 228 930 210 915 q 278 959 247 944 q 342 972 310 974 q 422 948 375 971 q 477 925 468 925 q 486 925 486 925 m 396 -7 q 303 -7 396 -7 q 140 75 211 -7 q 69 369 69 157 q 140 663 69 582 q 396 744 211 744 q 650 662 581 744 q 719 365 719 579 q 650 72 719 151 q 396 -7 581 -7 m 205 572 q 198 557 205 572 q 181 490 190 542 q 172 353 172 438 q 185 214 172 268 q 231 135 199 160 q 298 103 264 110 q 395 96 332 96 q 494 103 458 96 q 560 135 529 110 q 604 215 592 161 q 617 363 617 268 q 606 514 617 457 q 565 599 596 571 q 499 635 535 628 q 403 642 464 642 q 311 638 342 642 q 250 618 281 633 q 205 572 219 603 z "},"ö":{"ha":789,"x_min":69,"x_max":719,"o":"m 169 849 q 159 859 169 849 q 149 899 149 869 q 169 948 149 928 q 219 968 190 968 q 269 948 249 968 q 289 899 289 928 q 269 849 289 869 q 219 828 249 828 q 169 849 190 828 m 524 849 q 513 859 524 849 q 503 899 503 869 q 524 948 503 928 q 574 968 544 968 q 623 948 603 968 q 643 899 643 928 q 623 849 643 869 q 574 828 603 828 q 524 849 544 828 m 396 -7 q 303 -7 396 -7 q 140 75 211 -7 q 69 369 69 157 q 140 663 69 582 q 396 744 211 744 q 650 662 581 744 q 719 365 719 579 q 650 72 719 151 q 396 -7 581 -7 m 205 572 q 198 557 205 572 q 181 490 190 542 q 172 353 172 438 q 185 214 172 268 q 231 135 199 160 q 298 103 264 110 q 395 96 332 96 q 494 103 458 96 q 560 135 529 110 q 604 215 592 161 q 617 363 617 268 q 606 514 617 457 q 565 599 596 571 q 499 635 535 628 q 403 642 464 642 q 311 638 342 642 q 250 618 281 633 q 205 572 219 603 z "},"÷":{"ha":717,"x_min":69,"x_max":647,"o":"m 69 439 l 69 542 l 647 542 l 647 439 l 69 439 m 294 240 l 294 315 q 328 350 294 350 l 397 350 q 429 315 429 350 l 429 240 q 397 208 429 208 l 328 208 q 294 240 294 208 m 294 656 l 294 731 q 328 765 294 765 l 397 765 q 429 731 429 765 l 429 656 q 397 624 429 624 l 328 624 q 294 656 294 624 z "},"ø":{"ha":789,"x_min":69,"x_max":719,"o":"m 132 85 q 69 373 69 164 q 140 663 69 582 q 394 744 211 744 q 590 710 522 744 l 611 738 l 703 738 l 649 664 q 719 367 719 582 q 650 72 719 151 q 394 -7 581 -7 q 183 38 256 -7 l 156 0 l 71 0 l 132 85 m 205 572 q 198 557 205 572 q 181 490 190 542 q 172 337 172 438 q 200 176 172 236 l 529 625 q 415 642 489 642 q 311 638 342 642 q 250 618 281 633 q 205 572 219 603 m 246 122 q 372 96 286 96 q 494 103 458 96 q 560 135 529 110 q 604 215 592 161 q 617 358 617 268 q 583 576 617 518 l 246 122 z "},"ù":{"ha":756,"x_min":69,"x_max":672,"o":"m 153 1013 l 283 1013 l 433 828 l 336 828 l 153 1013 m 69 224 l 69 738 l 172 738 l 172 224 q 207 124 172 158 q 296 90 242 90 q 397 101 350 90 q 473 124 444 113 q 569 169 501 136 l 569 738 l 672 738 l 672 0 l 600 0 l 569 86 q 539 69 565 85 q 506 50 513 53 q 476 34 500 47 q 443 18 453 21 q 411 7 433 15 q 375 -4 389 -1 q 297 -12 331 -12 q 131 57 192 -12 q 69 224 69 126 z "},"ú":{"ha":756,"x_min":69,"x_max":672,"o":"m 322 828 l 472 1013 l 603 1013 l 419 828 l 322 828 m 69 224 l 69 738 l 172 738 l 172 224 q 207 124 172 158 q 296 90 242 90 q 397 101 350 90 q 473 124 444 113 q 569 169 501 136 l 569 738 l 672 738 l 672 0 l 600 0 l 569 86 q 539 69 565 85 q 506 50 513 53 q 476 34 500 47 q 443 18 453 21 q 411 7 433 15 q 375 -4 389 -1 q 297 -12 331 -12 q 131 57 192 -12 q 69 224 69 126 z "},"û":{"ha":756,"x_min":69,"x_max":672,"o":"m 168 828 l 331 1008 l 429 1008 l 574 828 l 475 828 l 376 926 l 268 828 l 168 828 m 69 224 l 69 738 l 172 738 l 172 224 q 207 124 172 158 q 296 90 242 90 q 397 101 350 90 q 473 124 444 113 q 569 169 501 136 l 569 738 l 672 738 l 672 0 l 600 0 l 569 86 q 539 69 565 85 q 506 50 513 53 q 476 34 500 47 q 443 18 453 21 q 411 7 433 15 q 375 -4 389 -1 q 297 -12 331 -12 q 131 57 192 -12 q 69 224 69 126 z "},"ü":{"ha":756,"x_min":69,"x_max":672,"o":"m 144 849 q 134 859 144 849 q 124 899 124 869 q 144 948 124 928 q 194 968 165 968 q 244 948 224 968 q 264 899 264 928 q 244 849 264 869 q 194 828 224 828 q 144 849 165 828 m 499 849 q 488 859 499 849 q 478 899 478 869 q 499 948 478 928 q 549 968 519 968 q 598 948 578 968 q 618 899 618 928 q 598 849 618 869 q 549 828 578 828 q 499 849 519 828 m 69 224 l 69 738 l 172 738 l 172 224 q 207 124 172 158 q 296 90 242 90 q 397 101 350 90 q 473 124 444 113 q 569 169 501 136 l 569 738 l 672 738 l 672 0 l 600 0 l 569 86 q 539 69 565 85 q 506 50 513 53 q 476 34 500 47 q 443 18 453 21 q 411 7 433 15 q 375 -4 389 -1 q 297 -12 331 -12 q 131 57 192 -12 q 69 224 69 126 z "},"ý":{"ha":769,"x_min":29,"x_max":739,"o":"m 336 828 l 485 1013 l 617 1013 l 432 828 l 336 828 m 29 738 l 142 738 l 321 161 q 340 125 331 133 q 356 112 349 117 q 369 106 363 107 q 383 103 376 104 q 394 103 389 103 q 413 107 407 106 l 624 738 l 739 738 l 414 -233 l 310 -375 l 246 -375 l 376 0 q 210 153 257 0 l 29 738 z "},"þ":{"ha":769,"x_min":97,"x_max":714,"o":"m 97 -375 l 97 1086 l 200 1086 l 200 654 q 323 715 238 681 q 474 750 408 750 q 588 718 539 750 q 664 631 638 686 q 714 371 714 525 q 650 67 714 157 q 578 9 624 32 q 475 -14 532 -14 q 340 1 418 -14 q 200 40 263 15 l 200 -375 l 97 -375 m 471 89 q 576 151 540 89 q 611 358 611 213 q 574 575 611 503 q 471 647 536 647 q 200 578 363 640 l 200 124 q 311 100 265 104 q 375 94 357 96 q 471 89 447 89 z "},"ÿ":{"ha":769,"x_min":29,"x_max":739,"o":"m 207 828 q 192 828 207 828 q 157 849 178 828 q 136 891 136 869 q 142 926 136 913 q 157 949 149 939 q 207 968 178 968 q 257 948 236 968 q 278 899 278 928 q 257 849 278 869 q 207 828 236 828 m 513 849 q 502 859 513 849 q 492 899 492 869 q 512 948 492 928 q 562 968 532 968 q 611 948 592 968 q 631 899 631 928 q 610 849 631 869 q 562 828 590 828 q 513 849 533 828 m 29 738 l 142 738 l 321 161 q 340 125 331 133 q 356 112 349 117 q 369 106 363 107 q 383 103 376 104 q 394 103 389 103 q 413 107 407 106 l 624 738 l 739 738 l 414 -233 l 310 -375 l 246 -375 l 376 0 q 210 153 257 0 l 29 738 z "},"Ā":{"ha":931,"x_min":63,"x_max":896,"o":"m 285 1107 l 285 1194 l 690 1194 l 690 1107 l 285 1107 m 63 0 l 436 1017 l 539 1017 l 896 0 l 774 0 l 686 283 l 281 283 l 189 0 l 63 0 m 318 386 l 650 386 l 486 860 l 318 386 z "},"ā":{"ha":721,"x_min":56,"x_max":651,"o":"m 176 835 l 176 922 l 582 922 l 582 835 l 176 835 m 79 710 q 443 751 229 751 q 592 699 533 751 q 651 538 651 646 l 651 0 l 575 0 l 549 89 l 528 79 q 240 -8 347 -8 q 108 40 161 -8 q 56 175 56 89 l 56 260 q 105 394 56 344 q 240 444 154 444 q 472 444 394 444 q 549 444 549 444 q 550 513 550 490 q 549 538 550 536 q 429 651 549 651 q 79 635 310 651 l 79 710 m 158 182 q 240 94 158 94 q 367 113 290 94 q 497 147 444 131 l 549 165 l 549 364 l 240 342 q 178 313 199 338 q 158 251 158 288 l 158 182 z "},"Ă":{"ha":931,"x_min":63,"x_max":896,"o":"m 328 1265 l 393 1265 q 422 1199 393 1226 q 488 1172 450 1172 q 554 1197 526 1172 q 582 1265 582 1222 l 647 1265 q 598 1149 647 1192 q 487 1107 549 1107 q 376 1151 425 1107 q 328 1265 328 1194 m 63 0 l 436 1017 l 539 1017 l 896 0 l 774 0 l 686 283 l 281 283 l 189 0 l 63 0 m 318 386 l 650 386 l 486 860 l 318 386 z "},"ă":{"ha":721,"x_min":56,"x_max":651,"o":"m 219 993 l 285 993 q 313 927 285 954 q 380 900 342 900 q 446 925 418 900 q 474 993 474 950 l 539 993 q 490 877 539 919 q 378 835 440 835 q 268 878 317 835 q 219 993 219 922 m 79 710 q 443 751 229 751 q 592 699 533 751 q 651 538 651 646 l 651 0 l 575 0 l 549 89 l 528 79 q 240 -8 347 -8 q 108 40 161 -8 q 56 175 56 89 l 56 260 q 105 394 56 344 q 240 444 154 444 q 472 444 394 444 q 549 444 549 444 q 550 513 550 490 q 549 538 550 536 q 429 651 549 651 q 79 635 310 651 l 79 710 m 158 182 q 240 94 158 94 q 367 113 290 94 q 497 147 444 131 l 549 165 l 549 364 l 240 342 q 178 313 199 338 q 158 251 158 288 l 158 182 z "},"Ą":{"ha":931,"x_min":63,"x_max":896,"o":"m 783 -115 q 869 -168 783 -165 l 869 -251 q 833 -253 856 -253 q 776 -240 811 -253 q 721 -197 742 -228 q 696 -128 696 -162 q 724 -60 696 -94 q 811 0 753 -25 l 865 0 q 783 -115 783 -68 m 63 0 l 436 1017 l 539 1017 l 896 0 l 774 0 l 686 283 l 281 283 l 189 0 l 63 0 m 318 386 l 650 386 l 486 860 l 318 386 z "},"ą":{"ha":721,"x_min":56,"x_max":651,"o":"m 558 -115 q 646 -168 558 -165 l 646 -251 q 610 -253 632 -253 q 552 -240 588 -253 q 496 -197 517 -228 q 471 -128 471 -162 q 499 -60 471 -94 q 588 0 528 -25 l 642 0 q 558 -115 558 -68 m 79 710 q 443 751 229 751 q 592 699 533 751 q 651 538 651 646 l 651 0 l 575 0 l 549 89 l 528 79 q 240 -8 347 -8 q 108 40 161 -8 q 56 175 56 89 l 56 260 q 105 394 56 344 q 240 444 154 444 q 472 444 394 444 q 549 444 549 444 q 550 513 550 490 q 549 538 550 536 q 429 651 549 651 q 79 635 310 651 l 79 710 m 158 182 q 240 94 158 94 q 367 113 290 94 q 497 147 444 131 l 549 165 l 549 364 l 240 342 q 178 313 199 338 q 158 251 158 288 l 158 182 z "},"Ć":{"ha":803,"x_min":76,"x_max":754,"o":"m 408 1111 l 558 1296 l 689 1296 l 506 1111 l 408 1111 m 754 911 q 415 925 504 925 q 276 891 325 925 q 203 767 226 857 q 179 508 179 678 q 415 94 179 94 l 754 104 l 754 22 q 415 -8 590 -8 q 76 511 76 -8 q 148 901 76 775 q 415 1028 219 1028 q 754 993 567 1028 l 754 911 z "},"ć":{"ha":694,"x_min":69,"x_max":639,"o":"m 325 831 l 474 1015 l 606 1015 l 421 831 l 325 831 m 88 175 q 78 214 88 175 q 69 369 69 253 q 87 563 69 486 q 139 678 104 640 q 214 731 174 717 q 344 744 254 744 q 629 708 435 744 l 629 633 q 356 642 436 642 q 254 635 275 642 q 211 603 233 628 q 172 381 172 554 q 203 152 172 208 q 313 96 235 96 q 586 107 443 96 l 639 111 l 639 33 q 313 -7 506 -4 q 216 7 256 -7 q 141 59 176 21 q 88 175 106 97 z "},"Ĉ":{"ha":803,"x_min":76,"x_max":754,"o":"m 254 1111 l 417 1292 l 515 1292 l 660 1111 l 561 1111 l 463 1210 l 354 1111 l 254 1111 m 754 911 q 415 925 504 925 q 276 891 325 925 q 203 767 226 857 q 179 508 179 678 q 415 94 179 94 l 754 104 l 754 22 q 415 -8 590 -8 q 76 511 76 -8 q 148 901 76 775 q 415 1028 219 1028 q 754 993 567 1028 l 754 911 z "},"ĉ":{"ha":694,"x_min":69,"x_max":639,"o":"m 190 831 l 353 1011 l 451 1011 l 596 831 l 497 831 l 399 929 l 290 831 l 190 831 m 88 175 q 78 214 88 175 q 69 369 69 253 q 87 563 69 486 q 139 678 104 640 q 214 731 174 717 q 344 744 254 744 q 629 708 435 744 l 629 633 q 356 642 436 642 q 254 635 275 642 q 211 603 233 628 q 172 381 172 554 q 203 152 172 208 q 313 96 235 96 q 586 107 443 96 l 639 111 l 639 33 q 313 -7 506 -4 q 216 7 256 -7 q 141 59 176 21 q 88 175 106 97 z "},"Ċ":{"ha":803,"x_min":76,"x_max":754,"o":"m 403 1146 l 403 1221 q 436 1256 403 1256 l 506 1256 q 538 1221 538 1256 l 538 1146 q 506 1114 538 1114 l 436 1114 q 403 1146 403 1114 m 754 911 q 415 925 504 925 q 276 891 325 925 q 203 767 226 857 q 179 508 179 678 q 415 94 179 94 l 754 104 l 754 22 q 415 -8 590 -8 q 76 511 76 -8 q 148 901 76 775 q 415 1028 219 1028 q 754 993 567 1028 l 754 911 z "},"ċ":{"ha":694,"x_min":69,"x_max":639,"o":"m 340 865 l 340 940 q 374 975 340 975 l 443 975 q 475 940 475 975 l 475 865 q 443 833 475 833 l 374 833 q 340 865 340 833 m 88 175 q 78 214 88 175 q 69 369 69 253 q 87 563 69 486 q 139 678 104 640 q 214 731 174 717 q 344 744 254 744 q 629 708 435 744 l 629 633 q 356 642 436 642 q 254 635 275 642 q 211 603 233 628 q 172 381 172 554 q 203 152 172 208 q 313 96 235 96 q 586 107 443 96 l 639 111 l 639 33 q 313 -7 506 -4 q 216 7 256 -7 q 141 59 176 21 q 88 175 106 97 z "},"Č":{"ha":803,"x_min":76,"x_max":754,"o":"m 261 1292 l 361 1292 l 472 1193 l 568 1292 l 667 1292 l 522 1111 l 424 1111 l 261 1292 m 754 911 q 415 925 504 925 q 276 891 325 925 q 203 767 226 857 q 179 508 179 678 q 415 94 179 94 l 754 104 l 754 22 q 415 -8 590 -8 q 76 511 76 -8 q 148 901 76 775 q 415 1028 219 1028 q 754 993 567 1028 l 754 911 z "},"č":{"ha":694,"x_min":69,"x_max":639,"o":"m 169 1011 l 269 1011 l 381 913 l 476 1011 l 575 1011 l 431 831 l 332 831 l 169 1011 m 88 175 q 78 214 88 175 q 69 369 69 253 q 87 563 69 486 q 139 678 104 640 q 214 731 174 717 q 344 744 254 744 q 629 708 435 744 l 629 633 q 356 642 436 642 q 254 635 275 642 q 211 603 233 628 q 172 381 172 554 q 203 152 172 208 q 313 96 235 96 q 586 107 443 96 l 639 111 l 639 33 q 313 -7 506 -4 q 216 7 256 -7 q 141 59 176 21 q 88 175 106 97 z "},"Ď":{"ha":913,"x_min":111,"x_max":850,"o":"m 239 1281 l 339 1281 l 450 1182 l 546 1281 l 644 1281 l 500 1100 l 401 1100 l 239 1281 m 111 0 l 111 1017 l 489 1017 q 647 983 579 1017 q 751 897 714 949 q 813 774 789 846 q 850 504 850 658 q 800 228 850 353 q 629 31 742 86 q 489 0 567 0 l 111 0 m 214 107 l 489 107 q 636 164 576 107 q 747 494 747 268 q 681 817 747 721 q 489 914 615 914 l 214 914 l 214 107 z "},"ď":{"ha":769,"x_min":69,"x_max":856,"o":"m 115 116 q 103 145 115 116 q 80 234 90 174 q 69 370 69 294 q 78 506 69 446 q 111 625 88 567 q 313 749 163 749 q 443 733 364 749 q 585 693 522 718 l 585 1090 l 686 1090 l 686 0 l 613 0 l 585 82 q 463 24 550 57 q 308 -8 376 -8 q 190 25 240 -8 q 115 116 140 58 m 172 365 q 313 94 172 94 q 585 158 428 94 l 585 610 q 313 646 446 646 q 206 586 240 646 q 172 365 172 526 m 856 1083 l 856 990 l 840 804 l 767 804 l 753 990 l 751 1083 l 856 1083 z "},"Đ":{"ha":913,"x_min":21,"x_max":850,"o":"m 21 481 l 21 556 l 111 556 l 111 1015 q 490 1017 111 1017 q 722 929 643 1017 q 826 729 803 842 q 850 523 850 614 q 839 363 850 432 q 801 228 828 294 q 733 111 774 161 q 631 31 693 61 q 490 0 568 0 l 111 0 l 111 481 l 21 481 m 214 107 l 490 107 q 681 219 619 107 q 743 506 743 331 q 490 907 743 907 l 214 906 l 214 556 l 407 556 l 407 481 l 214 481 l 214 107 z "},"đ":{"ha":769,"x_min":69,"x_max":786,"o":"m 115 116 q 103 145 115 116 q 80 234 90 174 q 69 370 69 294 q 78 506 69 446 q 111 625 88 567 q 313 749 163 749 q 443 733 364 749 q 585 693 522 718 l 585 856 l 415 856 l 415 931 l 585 931 l 585 1090 l 686 1090 l 686 931 l 786 931 l 786 856 l 686 856 l 686 0 l 613 0 l 585 82 q 463 24 550 57 q 308 -8 376 -8 q 190 25 240 -8 q 115 116 140 58 m 172 365 q 313 94 172 94 q 585 158 428 94 l 585 610 q 313 646 446 646 q 206 586 240 646 q 172 365 172 526 z "},"Ē":{"ha":788,"x_min":111,"x_max":725,"o":"m 240 1104 l 240 1192 l 646 1192 l 646 1104 l 240 1104 m 111 836 q 159 974 111 932 q 278 1017 207 1017 q 286 1017 282 1017 l 725 994 l 725 914 l 286 914 q 235 901 253 914 q 216 874 218 888 q 214 836 214 861 l 214 558 l 669 544 l 669 463 l 214 449 l 214 171 q 229 119 214 136 q 258 101 244 103 q 300 99 272 99 l 725 99 l 725 19 l 300 -4 q 279 -4 289 -4 q 111 171 111 -4 l 111 836 z "},"ē":{"ha":729,"x_min":69,"x_max":674,"o":"m 179 826 l 179 914 l 585 914 l 585 826 l 179 826 m 69 372 q 86 569 69 494 q 147 681 103 643 q 244 731 190 719 q 383 743 297 743 q 511 736 468 743 q 596 704 554 729 q 656 625 638 679 q 674 482 674 571 q 483 313 674 313 l 172 313 q 201 140 172 183 q 313 96 231 96 q 660 110 565 96 l 660 32 q 313 -7 522 -7 q 121 74 172 -7 q 69 372 69 154 m 172 414 l 483 414 q 571 482 571 414 q 540 615 571 589 q 393 640 508 640 q 222 611 250 640 q 178 519 183 569 q 172 414 172 469 z "},"Ė":{"ha":788,"x_min":111,"x_max":725,"o":"m 378 1135 l 378 1210 q 411 1244 378 1244 l 481 1244 q 513 1210 513 1244 l 513 1135 q 481 1103 513 1103 l 411 1103 q 378 1135 378 1103 m 111 836 q 159 974 111 932 q 278 1017 207 1017 q 286 1017 282 1017 l 725 994 l 725 914 l 286 914 q 235 901 253 914 q 216 874 218 888 q 214 836 214 861 l 214 558 l 669 544 l 669 463 l 214 449 l 214 171 q 229 119 214 136 q 258 101 244 103 q 300 99 272 99 l 725 99 l 725 19 l 300 -4 q 279 -4 289 -4 q 111 171 111 -4 l 111 836 z "},"ė":{"ha":729,"x_min":69,"x_max":674,"o":"m 311 860 l 311 935 q 344 969 311 969 l 414 969 q 438 960 429 969 q 447 935 447 950 l 447 860 q 414 828 447 828 l 344 828 q 321 837 331 828 q 311 860 311 846 m 69 372 q 86 569 69 494 q 147 681 103 643 q 244 731 190 719 q 383 743 297 743 q 511 736 468 743 q 596 704 554 729 q 656 625 638 679 q 674 482 674 571 q 483 313 674 313 l 172 313 q 201 140 172 183 q 313 96 231 96 q 660 110 565 96 l 660 32 q 313 -7 522 -7 q 121 74 172 -7 q 69 372 69 154 m 172 414 l 483 414 q 571 482 571 414 q 540 615 571 589 q 393 640 508 640 q 222 611 250 640 q 178 519 183 569 q 172 414 172 469 z "},"Ę":{"ha":788,"x_min":111,"x_max":729,"o":"m 643 -96 q 729 -149 643 -147 l 729 -232 q 693 -235 715 -235 q 635 -222 671 -235 q 579 -179 600 -208 q 554 -110 554 -143 q 583 -42 554 -76 q 671 19 611 -7 l 725 19 q 643 -96 643 -50 m 111 836 q 159 974 111 932 q 278 1017 207 1017 q 286 1017 282 1017 l 725 994 l 725 914 l 286 914 q 235 901 253 914 q 216 874 218 888 q 214 836 214 861 l 214 558 l 669 544 l 669 463 l 214 449 l 214 171 q 229 119 214 136 q 258 101 244 103 q 300 99 272 99 l 725 99 l 725 19 l 300 -4 q 279 -4 289 -4 q 111 171 111 -4 l 111 836 z "},"ę":{"ha":729,"x_min":69,"x_max":674,"o":"m 660 32 q 576 -83 576 -35 q 593 -117 576 -100 q 664 -136 610 -135 l 664 -219 q 628 -222 650 -222 q 570 -209 606 -222 q 514 -167 535 -196 q 489 -97 489 -131 q 517 -28 489 -62 q 606 32 546 7 l 660 32 m 69 372 q 86 569 69 494 q 147 681 103 643 q 244 731 190 719 q 383 743 297 743 q 511 736 468 743 q 596 704 554 729 q 656 625 638 679 q 674 482 674 571 q 483 313 674 313 l 172 313 q 201 140 172 183 q 313 96 231 96 q 660 110 565 96 l 660 32 q 313 -7 522 -7 q 121 74 172 -7 q 69 372 69 154 m 172 414 l 483 414 q 571 482 571 414 q 540 615 571 589 q 393 640 508 640 q 222 611 250 640 q 178 519 183 569 q 172 414 172 469 z "},"Ě":{"ha":788,"x_min":111,"x_max":725,"o":"m 235 1281 l 335 1281 l 446 1182 l 542 1281 l 640 1281 l 496 1100 l 397 1100 l 235 1281 m 111 836 q 159 974 111 932 q 278 1017 207 1017 q 286 1017 282 1017 l 725 994 l 725 914 l 286 914 q 235 901 253 914 q 216 874 218 888 q 214 836 214 861 l 214 558 l 669 544 l 669 463 l 214 449 l 214 171 q 229 119 214 136 q 258 101 244 103 q 300 99 272 99 l 725 99 l 725 19 l 300 -4 q 279 -4 289 -4 q 111 171 111 -4 l 111 836 z "},"ě":{"ha":729,"x_min":69,"x_max":674,"o":"m 181 1001 l 281 1001 l 392 903 l 488 1001 l 586 1001 l 442 821 l 343 821 l 181 1001 m 69 372 q 86 569 69 494 q 147 681 103 643 q 244 731 190 719 q 383 743 297 743 q 511 736 468 743 q 596 704 554 729 q 656 625 638 679 q 674 482 674 571 q 483 313 674 313 l 172 313 q 201 140 172 183 q 313 96 231 96 q 660 110 565 96 l 660 32 q 313 -7 522 -7 q 121 74 172 -7 q 69 372 69 154 m 172 414 l 483 414 q 571 482 571 414 q 540 615 571 589 q 393 640 508 640 q 222 611 250 640 q 178 519 183 569 q 172 414 172 469 z "},"Ĝ":{"ha":853,"x_min":76,"x_max":776,"o":"m 264 1111 l 426 1292 l 525 1292 l 669 1111 l 571 1111 l 472 1210 l 364 1111 l 264 1111 m 110 203 q 99 239 110 203 q 83 345 89 274 q 76 523 76 417 q 89 713 76 629 q 135 872 101 797 q 401 1028 203 1028 q 569 1016 456 1028 q 754 990 682 1004 l 754 908 q 685 913 742 908 q 583 919 628 917 q 401 925 494 925 q 224 830 269 925 q 179 507 179 735 q 229 188 179 279 q 407 94 279 96 q 521 110 454 94 q 631 142 588 126 l 674 158 l 674 436 l 440 436 l 440 506 q 682 540 567 540 q 776 536 726 540 l 776 0 l 699 0 l 676 68 q 407 -7 540 -7 q 399 -7 403 -7 q 261 19 321 -7 q 166 90 201 46 q 110 203 131 133 z "},"ĝ":{"ha":769,"x_min":63,"x_max":742,"o":"m 179 829 l 342 1010 l 440 1010 l 585 829 l 486 829 l 388 928 l 279 829 l 179 829 m 67 160 q 88 233 67 199 q 149 275 108 267 q 68 467 68 326 q 131 674 68 607 q 308 740 194 740 l 742 740 l 742 663 l 629 638 q 639 620 631 635 q 651 597 647 606 q 661 569 656 588 q 672 488 672 536 q 663 399 672 439 q 632 312 654 358 q 561 236 610 265 q 443 207 513 207 l 226 207 q 169 165 169 207 q 226 118 169 118 l 522 118 q 654 66 607 118 q 701 -74 701 14 l 701 -161 q 667 -297 701 -236 q 601 -354 646 -333 q 493 -375 557 -375 l 285 -375 q 123 -321 183 -375 q 63 -161 63 -267 l 63 -43 l 118 47 q 67 160 67 83 m 228 15 q 165 26 190 15 l 165 -161 q 285 -272 165 -272 l 493 -272 q 599 -161 599 -272 l 599 -81 q 580 -6 599 -28 q 504 15 561 15 l 228 15 m 171 478 q 189 381 171 419 q 299 310 222 310 l 435 310 q 540 360 510 310 q 569 468 569 411 q 540 594 569 551 q 433 638 510 638 l 308 638 q 171 478 171 638 z "},"Ğ":{"ha":853,"x_min":76,"x_max":776,"o":"m 307 1269 l 372 1269 q 401 1203 372 1231 q 467 1176 429 1176 q 533 1201 506 1176 q 561 1269 561 1226 l 626 1269 q 577 1153 626 1196 q 466 1111 528 1111 q 356 1155 404 1111 q 307 1269 307 1199 m 110 203 q 99 239 110 203 q 83 345 89 274 q 76 523 76 417 q 89 713 76 629 q 135 872 101 797 q 401 1028 203 1028 q 569 1016 456 1028 q 754 990 682 1004 l 754 908 q 685 913 742 908 q 583 919 628 917 q 401 925 494 925 q 224 830 269 925 q 179 507 179 735 q 229 188 179 279 q 407 94 279 96 q 521 110 454 94 q 631 142 588 126 l 674 158 l 674 436 l 440 436 l 440 506 q 682 540 567 540 q 776 536 726 540 l 776 0 l 699 0 l 676 68 q 407 -7 540 -7 q 399 -7 403 -7 q 261 19 321 -7 q 166 90 201 46 q 110 203 131 133 z "},"ğ":{"ha":769,"x_min":63,"x_max":742,"o":"m 221 988 l 286 988 q 315 922 286 949 q 381 894 343 894 q 447 919 419 894 q 475 988 475 944 l 540 988 q 491 872 540 914 q 380 829 442 829 q 269 873 318 829 q 221 988 221 917 m 67 160 q 88 233 67 199 q 149 275 108 267 q 68 467 68 326 q 131 674 68 607 q 308 740 194 740 l 742 740 l 742 663 l 629 638 q 639 620 631 635 q 651 597 647 606 q 661 569 656 588 q 672 488 672 536 q 663 399 672 439 q 632 312 654 358 q 561 236 610 265 q 443 207 513 207 l 226 207 q 169 165 169 207 q 226 118 169 118 l 522 118 q 654 66 607 118 q 701 -74 701 14 l 701 -161 q 667 -297 701 -236 q 601 -354 646 -333 q 493 -375 557 -375 l 285 -375 q 123 -321 183 -375 q 63 -161 63 -267 l 63 -43 l 118 47 q 67 160 67 83 m 228 15 q 165 26 190 15 l 165 -161 q 285 -272 165 -272 l 493 -272 q 599 -161 599 -272 l 599 -81 q 580 -6 599 -28 q 504 15 561 15 l 228 15 m 171 478 q 189 381 171 419 q 299 310 222 310 l 435 310 q 540 360 510 310 q 569 468 569 411 q 540 594 569 551 q 433 638 510 638 l 308 638 q 171 478 171 638 z "},"Ġ":{"ha":853,"x_min":76,"x_max":776,"o":"m 388 1143 l 388 1218 q 421 1253 388 1253 l 490 1253 q 522 1218 522 1253 l 522 1143 q 490 1111 522 1111 l 421 1111 q 388 1143 388 1111 m 110 203 q 99 239 110 203 q 83 345 89 274 q 76 523 76 417 q 89 713 76 629 q 135 872 101 797 q 401 1028 203 1028 q 569 1016 456 1028 q 754 990 682 1004 l 754 908 q 685 913 742 908 q 583 919 628 917 q 401 925 494 925 q 224 830 269 925 q 179 507 179 735 q 229 188 179 279 q 407 94 279 96 q 521 110 454 94 q 631 142 588 126 l 674 158 l 674 436 l 440 436 l 440 506 q 682 540 567 540 q 776 536 726 540 l 776 0 l 699 0 l 676 68 q 407 -7 540 -7 q 399 -7 403 -7 q 261 19 321 -7 q 166 90 201 46 q 110 203 131 133 z "},"ġ":{"ha":769,"x_min":63,"x_max":742,"o":"m 318 864 l 318 939 q 351 974 318 974 l 421 974 q 453 939 453 974 l 453 864 q 421 832 453 832 l 351 832 q 318 864 318 832 m 67 160 q 88 233 67 199 q 149 275 108 267 q 68 467 68 326 q 131 674 68 607 q 308 740 194 740 l 742 740 l 742 663 l 629 638 q 639 620 631 635 q 651 597 647 606 q 661 569 656 588 q 672 488 672 536 q 663 399 672 439 q 632 312 654 358 q 561 236 610 265 q 443 207 513 207 l 226 207 q 169 165 169 207 q 226 118 169 118 l 522 118 q 654 66 607 118 q 701 -74 701 14 l 701 -161 q 667 -297 701 -236 q 601 -354 646 -333 q 493 -375 557 -375 l 285 -375 q 123 -321 183 -375 q 63 -161 63 -267 l 63 -43 l 118 47 q 67 160 67 83 m 228 15 q 165 26 190 15 l 165 -161 q 285 -272 165 -272 l 493 -272 q 599 -161 599 -272 l 599 -81 q 580 -6 599 -28 q 504 15 561 15 l 228 15 m 171 478 q 189 381 171 419 q 299 310 222 310 l 435 310 q 540 360 510 310 q 569 468 569 411 q 540 594 569 551 q 433 638 510 638 l 308 638 q 171 478 171 638 z "},"Ģ":{"ha":853,"x_min":76,"x_max":776,"o":"m 497 -306 q 491 -317 497 -306 q 467 -335 485 -328 q 435 -346 450 -343 q 414 -349 421 -349 q 390 -346 407 -349 l 390 -306 q 393 -306 392 -306 q 429 -267 429 -306 l 429 -236 l 415 -236 q 383 -206 383 -236 l 383 -137 q 415 -104 383 -104 l 479 -104 q 508 -137 508 -104 l 508 -250 q 497 -306 508 -283 m 110 203 q 99 239 110 203 q 83 345 89 274 q 76 523 76 417 q 89 713 76 629 q 135 872 101 797 q 401 1028 203 1028 q 569 1016 456 1028 q 754 990 682 1004 l 754 908 q 685 913 742 908 q 583 919 628 917 q 401 925 494 925 q 224 830 269 925 q 179 507 179 735 q 229 188 179 279 q 407 94 279 96 q 521 110 454 94 q 631 142 588 126 l 674 158 l 674 436 l 440 436 l 440 506 q 682 540 567 540 q 776 536 726 540 l 776 0 l 699 0 l 676 68 q 407 -7 540 -7 q 399 -7 403 -7 q 261 19 321 -7 q 166 90 201 46 q 110 203 131 133 z "},"ģ":{"ha":769,"x_min":63,"x_max":743,"o":"m 329 1025 q 335 1036 329 1025 q 359 1055 342 1047 q 391 1065 376 1063 q 413 1068 406 1068 q 436 1067 419 1068 l 436 1026 q 433 1026 435 1026 q 397 988 397 1026 l 397 956 l 411 956 q 442 925 442 956 l 442 857 q 411 824 442 824 l 347 824 q 317 857 317 824 l 317 969 q 329 1025 317 1003 m 67 158 q 88 232 67 197 q 149 275 110 267 q 88 358 107 301 q 68 478 68 414 q 131 674 68 607 q 308 740 194 740 l 742 740 l 742 663 l 629 638 q 639 620 631 635 q 651 597 647 606 q 661 571 656 588 q 672 493 672 538 q 667 417 672 449 q 648 347 663 386 q 610 278 633 307 q 542 228 586 249 q 443 207 499 207 l 226 207 q 187 197 204 207 q 169 162 169 186 q 184 128 169 138 q 226 115 199 119 l 500 81 q 647 17 592 69 q 701 -115 701 -35 l 701 -161 q 646 -324 701 -268 q 493 -375 594 -375 l 285 -375 q 123 -321 183 -375 q 63 -161 63 -267 l 63 -43 l 118 47 q 67 158 67 83 m 165 -161 q 285 -272 165 -272 l 493 -272 q 590 -219 569 -272 q 599 -161 599 -196 l 599 -122 q 476 -17 599 -33 l 242 14 l 165 26 l 165 -161 m 171 478 q 189 381 171 418 q 299 310 222 310 l 435 310 q 565 424 540 310 q 569 460 569 446 q 540 596 569 554 q 433 638 510 638 l 308 638 q 171 478 171 638 z "},"Ĥ":{"ha":886,"x_min":111,"x_max":803,"o":"m 254 1107 l 417 1288 l 515 1288 l 660 1107 l 561 1107 l 463 1206 l 354 1107 l 254 1107 m 111 0 l 111 1017 l 214 1017 l 214 543 l 700 543 l 700 1017 l 803 1017 l 803 0 l 700 0 l 700 440 l 214 440 l 214 0 l 111 0 z "},"ĥ":{"ha":756,"x_min":-71,"x_max":686,"o":"m -71 1172 l 92 1353 l 190 1353 l 335 1172 l 236 1172 l 138 1271 l 29 1172 l -71 1172 m 83 0 l 83 1089 l 186 1089 l 186 651 q 217 669 190 653 q 249 688 243 685 q 279 703 256 690 q 313 719 303 717 q 344 731 322 722 q 381 742 367 739 q 458 750 425 750 q 625 681 564 750 q 686 514 686 611 l 686 0 l 583 0 l 583 514 q 549 614 583 581 q 460 647 515 647 q 358 636 406 647 q 283 613 311 625 q 186 568 254 601 l 186 0 l 83 0 z "},"Ħ":{"ha":914,"x_min":26,"x_max":885,"o":"m 26 717 l 26 792 l 111 792 l 111 1017 l 214 1017 l 214 792 l 700 792 l 700 1017 l 803 1017 l 803 792 l 885 792 l 885 717 l 803 717 l 803 0 l 700 0 l 700 440 l 214 440 l 214 0 l 111 0 l 111 717 l 26 717 m 214 543 l 700 543 l 700 717 l 214 717 l 214 543 z "},"ħ":{"ha":756,"x_min":-24,"x_max":686,"o":"m -24 847 l -24 922 l 83 922 l 83 1089 l 190 1089 l 190 922 l 376 922 l 376 847 l 190 847 l 190 651 q 468 750 363 750 q 473 750 469 750 q 482 750 476 750 q 631 683 575 750 q 686 517 686 615 l 686 0 l 579 0 l 579 513 q 547 615 576 579 q 447 650 517 650 q 190 568 349 644 l 190 0 l 83 0 l 83 847 l -24 847 z "},"Ĩ":{"ha":297,"x_min":-72,"x_max":397,"o":"m 242 1204 q 367 1254 274 1204 l 397 1196 q 364 1169 393 1193 q 243 1108 289 1108 q 157 1132 201 1108 q 87 1156 113 1156 q 41 1148 61 1156 q -2 1127 21 1140 q -43 1107 -25 1114 l -72 1164 q -16 1209 -35 1194 q 34 1238 3 1224 q 98 1251 65 1253 q 177 1227 131 1250 q 233 1204 224 1204 q 242 1204 242 1204 m 111 0 l 111 1017 l 214 1017 l 214 0 l 111 0 z "},"ĩ":{"ha":269,"x_min":-100,"x_max":369,"o":"m 214 925 q 339 975 246 925 l 369 917 q 336 889 365 914 q 215 829 261 829 q 129 853 174 829 q 59 876 85 876 q 13 869 33 876 q -30 848 -7 861 q -71 828 -53 835 l -100 885 q -44 930 -62 915 q 6 959 -25 944 q 70 972 38 974 q 149 948 103 971 q 205 925 196 925 q 214 925 214 925 m 83 0 l 83 738 l 186 738 l 186 0 l 83 0 z "},"Ī":{"ha":297,"x_min":-40,"x_max":365,"o":"m -40 1107 l -40 1194 l 365 1194 l 365 1107 l -40 1107 m 111 0 l 111 1017 l 214 1017 l 214 0 l 111 0 z "},"ī":{"ha":269,"x_min":-68,"x_max":338,"o":"m -68 828 l -68 915 l 338 915 l 338 828 l -68 828 m 83 0 l 83 738 l 186 738 l 186 0 l 83 0 z "},"Į":{"ha":297,"x_min":22,"x_max":214,"o":"m 193 0 q 110 -115 110 -67 q 126 -149 110 -132 q 197 -168 143 -167 l 197 -251 q 161 -254 183 -254 q 103 -241 139 -254 q 47 -197 68 -228 q 22 -128 22 -162 q 51 -60 22 -94 q 139 0 79 -25 l 193 0 m 111 0 l 111 1017 l 214 1017 l 214 0 l 111 0 z "},"į":{"ha":274,"x_min":-3,"x_max":204,"o":"m 168 0 q 85 -115 85 -67 q 101 -149 85 -132 q 172 -168 118 -167 l 172 -251 q 136 -254 158 -254 q 78 -241 114 -254 q 22 -197 43 -228 q -3 -128 -3 -162 q 26 -60 -3 -94 q 114 0 54 -25 l 168 0 m 69 857 l 69 932 q 103 967 69 967 l 172 967 q 204 932 204 967 l 204 857 q 172 825 204 825 l 103 825 q 69 857 69 825 m 83 0 l 83 738 l 186 738 l 186 0 l 83 0 z "},"İ":{"ha":297,"x_min":94,"x_max":231,"o":"m 94 1139 l 94 1214 q 128 1249 94 1249 l 197 1249 q 222 1239 213 1249 q 231 1214 231 1229 l 231 1139 q 197 1107 231 1107 l 128 1107 q 104 1116 114 1107 q 94 1139 94 1125 m 111 0 l 111 1017 l 214 1017 l 214 0 l 111 0 z "},"ı":{"ha":269,"x_min":83,"x_max":186,"o":"m 83 0 l 83 738 l 186 738 l 186 0 l 83 0 z "},"Ĵ":{"ha":499,"x_min":49,"x_max":567,"o":"m 161 1107 l 324 1288 l 422 1288 l 567 1107 l 468 1107 l 369 1206 l 261 1107 l 161 1107 m 343 25 q 198 -8 290 -8 q 49 29 106 -8 l 54 104 q 193 82 143 82 q 313 229 311 82 l 313 1017 l 415 1017 l 415 229 q 343 25 415 71 z "},"ĵ":{"ha":301,"x_min":-56,"x_max":350,"o":"m -56 832 l 107 1054 l 206 1054 l 350 832 l 267 832 l 153 958 l 31 832 l -56 832 m 96 -375 l 96 738 l 206 738 l 206 -6 q 206 -33 206 -19 q 169 -375 206 -225 l 96 -375 z "},"Ķ":{"ha":821,"x_min":111,"x_max":772,"o":"m 476 -299 q 470 -310 476 -299 q 447 -328 464 -321 q 415 -339 429 -336 q 393 -342 400 -342 q 369 -339 386 -342 l 369 -299 q 372 -299 371 -299 q 408 -261 408 -299 l 408 -229 l 394 -229 q 364 -197 364 -229 l 364 -131 q 394 -97 364 -97 l 458 -97 q 489 -131 489 -97 l 489 -243 q 476 -299 489 -276 m 111 0 l 111 1017 l 214 1017 l 214 561 l 328 561 l 647 1017 l 772 1017 l 422 510 l 772 0 l 647 0 l 328 458 l 215 458 l 215 0 l 111 0 z "},"ķ":{"ha":694,"x_min":83,"x_max":667,"o":"m 410 -299 q 405 -310 410 -299 q 381 -328 399 -321 q 349 -339 364 -336 q 328 -342 335 -342 q 304 -339 321 -342 l 304 -299 q 307 -299 306 -299 q 343 -261 343 -299 l 343 -229 l 329 -229 q 297 -197 297 -229 l 297 -131 q 329 -97 297 -97 l 393 -97 q 422 -131 422 -97 l 422 -243 q 410 -299 422 -276 m 83 0 l 83 1086 l 186 1086 l 186 475 l 242 475 l 524 738 l 667 738 l 339 424 l 667 0 l 539 0 l 242 372 l 186 372 l 186 0 l 83 0 z "},"ĸ":{"ha":719,"x_min":83,"x_max":692,"o":"m 83 0 l 83 738 l 186 738 l 186 417 l 303 417 l 564 738 l 692 738 l 396 367 l 672 0 l 543 0 l 299 314 l 188 314 l 186 0 l 83 0 z "},"Ĺ":{"ha":774,"x_min":111,"x_max":725,"o":"m 114 1107 l 264 1292 l 394 1292 l 211 1107 l 114 1107 m 111 175 l 111 1017 l 214 1017 l 214 175 q 243 111 214 122 q 300 103 265 103 l 725 103 l 725 0 l 300 0 q 172 28 221 0 q 111 175 111 63 z "},"ĺ":{"ha":417,"x_min":83,"x_max":411,"o":"m 131 1171 l 279 1356 l 411 1356 l 226 1171 l 131 1171 m 83 263 l 83 1088 l 186 1088 l 186 263 q 206 145 186 178 q 265 103 225 113 q 389 74 379 74 l 389 0 l 267 0 q 83 263 83 0 z "},"Ļ":{"ha":774,"x_min":111,"x_max":725,"o":"m 480 -299 q 474 -310 480 -299 q 451 -328 468 -321 q 419 -339 433 -336 q 397 -342 404 -342 q 374 -339 390 -342 l 374 -299 q 376 -299 375 -299 q 413 -261 413 -299 l 413 -229 l 399 -229 q 367 -197 367 -229 l 367 -131 q 399 -97 367 -97 l 463 -97 q 492 -131 492 -97 l 492 -243 q 480 -299 492 -276 m 111 175 l 111 1017 l 214 1017 l 214 175 q 243 111 214 122 q 300 103 265 103 l 725 103 l 725 0 l 300 0 q 172 28 221 0 q 111 175 111 63 z "},"ļ":{"ha":417,"x_min":83,"x_max":389,"o":"m 285 -299 q 278 -310 285 -299 q 255 -328 272 -321 q 223 -339 238 -336 q 201 -342 208 -342 q 178 -339 194 -342 l 178 -299 q 181 -299 179 -299 q 217 -261 217 -299 l 217 -229 l 203 -229 q 172 -197 172 -229 l 172 -131 q 203 -97 172 -97 l 267 -97 q 297 -131 297 -97 l 297 -243 q 285 -299 297 -276 m 83 263 l 83 1088 l 186 1088 l 186 263 q 206 145 186 178 q 265 103 225 113 q 389 74 379 74 l 389 0 l 267 0 q 83 263 83 0 z "},"Ľ":{"ha":774,"x_min":111,"x_max":725,"o":"m 111 175 l 111 1017 l 214 1017 l 214 175 q 243 111 214 122 q 300 103 265 103 l 725 103 l 725 0 l 300 0 q 172 28 221 0 q 111 175 111 63 m 321 1072 l 424 1072 l 424 979 l 410 793 l 336 793 l 321 979 l 321 1072 z "},"ľ":{"ha":417,"x_min":83,"x_max":394,"o":"m 83 263 l 83 1088 l 186 1088 l 186 263 q 202 145 186 175 q 265 103 218 115 q 389 74 379 74 l 389 0 l 267 0 q 126 58 168 0 q 83 263 83 117 m 292 1085 l 394 1085 l 394 992 l 381 806 l 307 806 l 292 992 l 292 1085 z "},"Ł":{"ha":772,"x_min":-4,"x_max":725,"o":"m 111 1017 l 214 1017 l 214 624 l 408 707 l 407 624 l 214 539 l 214 175 q 243 111 214 122 q 300 103 265 103 l 725 103 l 725 0 l 300 0 q 172 28 221 0 q 111 175 111 63 l 111 494 l -4 444 l -4 529 l 111 579 l 111 1017 z "},"ł":{"ha":458,"x_min":14,"x_max":431,"o":"m 125 1088 l 228 1088 l 228 689 l 426 775 l 425 692 l 228 606 l 228 263 q 247 145 228 178 q 307 103 267 113 q 431 74 421 74 l 431 0 l 308 0 q 125 263 125 0 l 125 561 l 14 513 l 14 597 l 125 644 l 125 1088 z "},"Ń":{"ha":944,"x_min":111,"x_max":861,"o":"m 453 1107 l 600 1292 l 733 1292 l 547 1107 l 453 1107 m 111 0 l 111 1017 l 217 1017 l 758 192 l 758 1017 l 861 1017 l 861 0 l 758 0 l 215 825 l 215 0 l 111 0 z "},"ń":{"ha":756,"x_min":83,"x_max":686,"o":"m 332 833 l 481 1018 l 613 1018 l 428 833 l 332 833 m 83 0 l 83 738 l 156 738 l 186 651 q 217 669 190 653 q 249 688 243 685 q 279 703 256 690 q 313 719 303 717 q 344 731 322 722 q 381 742 367 739 q 458 750 425 750 q 625 681 564 750 q 686 514 686 611 l 686 0 l 583 0 l 583 514 q 549 613 583 579 q 460 647 514 647 q 358 636 406 647 q 283 613 311 625 q 186 568 254 601 l 186 0 l 83 0 z "},"Ņ":{"ha":944,"x_min":111,"x_max":861,"o":"m 535 -299 q 530 -310 535 -299 q 506 -328 524 -321 q 474 -339 489 -336 q 453 -342 460 -342 q 429 -339 446 -342 l 429 -299 q 432 -299 431 -299 q 468 -261 468 -299 l 468 -229 l 454 -229 q 422 -197 422 -229 l 422 -131 q 454 -97 422 -97 l 518 -97 q 547 -131 547 -97 l 547 -243 q 535 -299 547 -276 m 111 0 l 111 1017 l 217 1017 l 758 192 l 758 1017 l 861 1017 l 861 0 l 758 0 l 215 825 l 215 0 l 111 0 z "},"ņ":{"ha":756,"x_min":83,"x_max":686,"o":"m 438 -299 q 431 -310 438 -299 q 408 -328 425 -321 q 376 -339 390 -336 q 354 -342 361 -342 q 331 -339 347 -342 l 331 -299 q 333 -299 332 -299 q 369 -261 369 -299 l 369 -229 l 356 -229 q 325 -197 325 -229 l 325 -131 q 356 -97 325 -97 l 419 -97 q 450 -131 450 -97 l 450 -243 q 438 -299 450 -276 m 83 0 l 83 738 l 156 738 l 186 651 q 217 669 190 653 q 249 688 243 685 q 279 703 256 690 q 313 719 303 717 q 344 731 322 722 q 381 742 367 739 q 458 750 425 750 q 625 681 564 750 q 686 514 686 611 l 686 0 l 583 0 l 583 514 q 549 613 583 579 q 460 647 514 647 q 358 636 406 647 q 283 613 311 625 q 186 568 254 601 l 186 0 l 83 0 z "},"Ň":{"ha":944,"x_min":111,"x_max":861,"o":"m 297 1288 l 397 1288 l 508 1189 l 604 1288 l 703 1288 l 558 1107 l 460 1107 l 297 1288 m 111 0 l 111 1017 l 217 1017 l 758 192 l 758 1017 l 861 1017 l 861 0 l 758 0 l 215 825 l 215 0 l 111 0 z "},"ň":{"ha":756,"x_min":83,"x_max":686,"o":"m 197 1014 l 297 1014 l 408 915 l 504 1014 l 603 1014 l 458 833 l 360 833 l 197 1014 m 83 0 l 83 738 l 156 738 l 186 651 q 217 669 190 653 q 249 688 243 685 q 279 703 256 690 q 313 719 303 717 q 344 731 322 722 q 381 742 367 739 q 458 750 425 750 q 625 681 564 750 q 686 514 686 611 l 686 0 l 583 0 l 583 514 q 549 613 583 579 q 460 647 514 647 q 358 636 406 647 q 283 613 311 625 q 186 568 254 601 l 186 0 l 83 0 z "},"Ŋ":{"ha":942,"x_min":111,"x_max":858,"o":"m 111 0 l 111 1017 l 217 1017 l 756 206 l 756 1017 l 858 1017 l 858 -117 q 769 -317 858 -269 q 678 -349 725 -340 q 561 -357 631 -357 l 561 -278 q 603 -268 574 -274 q 648 -258 632 -262 q 688 -242 664 -254 q 724 -214 711 -229 q 756 -97 756 -172 l 756 0 l 217 825 l 214 0 l 111 0 z "},"ŋ":{"ha":769,"x_min":83,"x_max":686,"o":"m 83 0 l 83 738 l 156 738 l 186 651 q 217 669 190 653 q 249 688 243 685 q 279 703 256 690 q 313 719 303 717 q 344 731 322 722 q 381 742 367 739 q 458 750 425 750 q 625 681 564 750 q 686 514 686 611 l 686 0 l 685 -125 q 653 -251 681 -192 q 619 -293 642 -274 q 584 -322 596 -312 q 540 -344 572 -332 q 458 -372 501 -360 l 417 -319 q 501 -272 461 -304 q 553 -224 542 -239 q 583 -131 583 -178 l 583 514 q 549 613 583 579 q 460 647 514 647 q 358 636 406 647 q 283 613 311 625 q 186 568 254 601 l 186 0 l 83 0 z "},"Ō":{"ha":939,"x_min":90,"x_max":876,"o":"m 282 1107 l 282 1194 l 688 1194 l 688 1107 l 282 1107 m 138 164 q 125 192 138 164 q 101 303 113 219 q 90 503 90 388 q 103 705 90 618 q 142 849 115 792 q 199 941 168 906 q 279 994 231 976 q 485 1024 358 1024 q 740 968 667 1024 q 842 814 811 914 q 876 531 876 692 q 859 277 876 369 q 812 129 842 185 q 730 44 782 74 q 622 4 678 14 q 491 -6 567 -6 q 368 0 415 -6 q 272 23 321 6 q 193 74 224 40 q 138 164 163 108 m 208 722 q 205 701 208 722 q 197 625 201 681 q 193 468 193 569 q 206 288 193 367 q 258 165 219 208 q 346 110 296 122 q 475 97 396 97 q 599 106 554 97 q 679 140 643 115 q 735 210 715 164 q 774 501 774 301 q 740 794 774 719 q 715 847 726 826 q 682 883 704 868 q 644 905 660 897 q 597 916 628 913 q 544 920 565 919 q 485 921 524 921 q 426 920 446 921 q 374 916 406 919 q 326 905 343 913 q 288 883 310 897 q 253 847 265 868 q 228 795 242 826 q 208 722 214 764 z "},"ō":{"ha":789,"x_min":69,"x_max":719,"o":"m 192 828 l 192 915 l 597 915 l 597 828 l 192 828 m 396 -7 q 303 -7 396 -7 q 140 75 211 -7 q 69 369 69 157 q 140 663 69 582 q 396 744 211 744 q 650 662 581 744 q 719 365 719 579 q 650 72 719 151 q 396 -7 581 -7 m 205 572 q 198 557 205 572 q 181 490 190 542 q 172 353 172 438 q 185 214 172 268 q 231 135 199 160 q 298 103 264 110 q 395 96 332 96 q 494 103 458 96 q 560 135 529 110 q 604 215 592 161 q 617 363 617 268 q 606 514 617 457 q 565 599 596 571 q 499 635 535 628 q 403 642 464 642 q 311 638 342 642 q 250 618 281 633 q 205 572 219 603 z "},"Ő":{"ha":939,"x_min":90,"x_max":876,"o":"m 343 1107 l 492 1292 l 624 1292 l 439 1107 l 343 1107 m 531 1107 l 679 1292 l 811 1292 l 626 1107 l 531 1107 m 138 164 q 125 192 138 164 q 101 303 113 219 q 90 503 90 388 q 103 705 90 618 q 142 849 115 792 q 199 941 168 906 q 279 994 231 976 q 485 1024 358 1024 q 740 968 667 1024 q 842 814 811 914 q 876 531 876 692 q 859 277 876 369 q 812 129 842 185 q 730 44 782 74 q 622 4 678 14 q 491 -6 567 -6 q 368 0 415 -6 q 272 23 321 6 q 193 74 224 40 q 138 164 163 108 m 208 722 q 205 701 208 722 q 197 625 201 681 q 193 468 193 569 q 206 288 193 367 q 258 165 219 208 q 346 110 296 122 q 475 97 396 97 q 599 106 554 97 q 679 140 643 115 q 735 210 715 164 q 774 501 774 301 q 740 794 774 719 q 715 847 726 826 q 682 883 704 868 q 644 905 660 897 q 597 916 628 913 q 544 920 565 919 q 485 921 524 921 q 426 920 446 921 q 374 916 406 919 q 326 905 343 913 q 288 883 310 897 q 253 847 265 868 q 228 795 242 826 q 208 722 214 764 z "},"ő":{"ha":789,"x_min":69,"x_max":721,"o":"m 253 828 l 401 1013 l 533 1013 l 349 828 l 253 828 m 440 828 l 589 1013 l 721 1013 l 536 828 l 440 828 m 396 -7 q 303 -7 396 -7 q 140 75 211 -7 q 69 369 69 157 q 140 663 69 582 q 396 744 211 744 q 650 662 581 744 q 719 365 719 579 q 650 72 719 151 q 396 -7 581 -7 m 205 572 q 198 557 205 572 q 181 490 190 542 q 172 353 172 438 q 185 214 172 268 q 231 135 199 160 q 298 103 264 110 q 395 96 332 96 q 494 103 458 96 q 560 135 529 110 q 604 215 592 161 q 617 363 617 268 q 606 514 617 457 q 565 599 596 571 q 499 635 535 628 q 403 642 464 642 q 311 638 342 642 q 250 618 281 633 q 205 572 219 603 z "},"Œ":{"ha":1465,"x_min":90,"x_max":1389,"o":"m 217 766 q 212 743 217 766 q 200 655 207 721 q 193 478 193 589 q 206 288 193 367 q 257 165 219 208 q 344 110 294 122 q 483 97 394 97 q 622 112 571 97 q 709 170 672 126 q 760 292 746 214 q 774 471 774 371 q 769 626 774 571 q 759 722 765 681 q 740 795 753 764 q 715 847 726 826 q 682 883 704 868 q 643 905 660 897 q 594 917 626 913 q 492 921 551 921 q 408 919 433 921 q 346 910 383 918 q 290 887 308 903 q 250 841 272 871 q 217 766 228 811 m 138 164 q 125 192 138 164 q 101 303 113 219 q 90 514 90 388 q 110 738 90 640 q 160 892 129 836 q 246 977 192 947 q 352 1015 300 1007 q 500 1024 404 1024 q 668 1003 596 1024 q 788 921 740 982 q 933 1017 822 1017 q 949 1017 940 1017 l 1389 994 l 1389 914 l 949 914 q 898 901 915 914 q 878 874 881 888 q 876 836 876 861 l 876 558 l 1333 544 l 1333 463 l 876 449 l 876 171 q 892 119 876 136 q 921 101 907 103 q 963 99 935 99 l 1389 99 l 1389 19 l 963 -4 q 942 -4 951 -4 q 785 92 815 -4 q 665 15 738 35 q 503 -6 593 -6 q 367 0 414 -6 q 271 23 319 6 q 192 74 222 40 q 138 164 163 108 z "},"œ":{"ha":1274,"x_min":69,"x_max":1218,"o":"m 401 -7 q 306 -7 401 -7 q 140 75 211 -7 q 69 369 69 157 q 140 663 69 582 q 403 744 211 744 q 663 646 594 744 q 760 724 697 704 q 918 743 824 743 q 1056 736 1013 743 q 1140 704 1099 729 q 1200 625 1182 679 q 1218 482 1218 571 q 1028 313 1218 313 l 718 313 q 718 285 718 299 q 747 142 718 188 q 857 96 775 96 q 1204 110 1110 96 l 1204 32 q 857 -7 1067 -7 q 660 85 711 -7 q 401 -7 592 -7 m 205 572 q 198 557 205 572 q 181 490 190 542 q 172 353 172 438 q 185 214 172 268 q 231 135 199 160 q 298 103 264 110 q 394 96 332 96 q 574 148 535 96 q 614 369 614 200 q 569 590 614 538 q 394 642 525 642 q 311 638 342 642 q 250 618 281 633 q 205 572 219 603 m 1028 414 q 1115 482 1115 414 q 1084 615 1115 589 q 938 640 1053 640 q 799 625 839 640 q 744 585 760 610 q 717 446 717 538 q 718 414 717 431 l 1028 414 z "},"Ŕ":{"ha":824,"x_min":83,"x_max":789,"o":"m 356 1100 l 504 1285 l 636 1285 l 451 1100 l 356 1100 m 83 0 l 83 1017 l 517 1017 q 751 711 751 1017 q 575 419 751 444 l 789 0 l 678 0 l 464 415 l 186 435 l 186 0 l 83 0 m 186 526 l 517 526 q 619 567 599 526 q 647 724 647 615 q 611 873 647 833 q 517 913 575 913 l 186 913 l 186 526 z "},"ŕ":{"ha":592,"x_min":83,"x_max":583,"o":"m 303 831 l 451 1015 l 583 1015 l 399 831 l 303 831 m 83 0 l 83 738 l 156 738 l 186 644 q 319 717 292 708 q 369 733 347 726 q 476 746 411 746 q 564 735 542 746 l 564 633 q 469 642 531 642 q 360 631 408 642 q 284 607 313 619 q 186 561 256 594 l 186 0 l 83 0 z "},"Ŗ":{"ha":824,"x_min":83,"x_max":789,"o":"m 466 -299 q 460 -310 466 -299 q 437 -328 454 -321 q 405 -339 419 -336 q 383 -342 390 -342 q 360 -339 376 -342 l 360 -299 q 363 -299 361 -299 q 399 -261 399 -299 l 399 -229 l 385 -229 q 353 -197 353 -229 l 353 -131 q 385 -97 353 -97 l 449 -97 q 478 -131 478 -97 l 478 -243 q 466 -299 478 -276 m 83 0 l 83 1017 l 517 1017 q 751 711 751 1017 q 575 419 751 444 l 789 0 l 678 0 l 464 415 l 186 435 l 186 0 l 83 0 m 186 526 l 517 526 q 619 567 599 526 q 647 724 647 615 q 611 873 647 833 q 517 913 575 913 l 186 913 l 186 526 z "},"ŗ":{"ha":592,"x_min":72,"x_max":564,"o":"m 185 -299 q 180 -310 185 -299 q 156 -328 174 -321 q 124 -339 139 -336 q 103 -342 110 -342 q 79 -339 96 -342 l 79 -299 q 82 -299 81 -299 q 118 -261 118 -299 l 118 -229 l 104 -229 q 72 -197 72 -229 l 72 -131 q 104 -97 72 -97 l 168 -97 q 197 -131 197 -97 l 197 -243 q 185 -299 197 -276 m 83 0 l 83 738 l 156 738 l 186 644 q 319 717 292 708 q 369 733 347 726 q 476 746 411 746 q 564 735 542 746 l 564 633 q 469 642 531 642 q 360 631 408 642 q 284 607 313 619 q 186 561 256 594 l 186 0 l 83 0 z "},"Ř":{"ha":824,"x_min":83,"x_max":789,"o":"m 196 1288 l 296 1288 l 407 1189 l 503 1288 l 601 1288 l 457 1107 l 358 1107 l 196 1288 m 83 0 l 83 1017 l 517 1017 q 751 711 751 1017 q 575 419 751 444 l 789 0 l 678 0 l 464 415 l 186 435 l 186 0 l 83 0 m 186 526 l 517 526 q 619 567 599 526 q 647 724 647 615 q 611 873 647 833 q 517 913 575 913 l 186 913 l 186 526 z "},"ř":{"ha":592,"x_min":83,"x_max":564,"o":"m 121 1010 l 221 1010 l 332 911 l 428 1010 l 526 1010 l 382 829 l 283 829 l 121 1010 m 83 0 l 83 738 l 156 738 l 186 644 q 319 717 292 708 q 369 733 347 726 q 476 746 411 746 q 564 735 542 746 l 564 633 q 469 642 531 642 q 360 631 408 642 q 284 607 313 619 q 186 561 256 594 l 186 0 l 83 0 z "},"Ś":{"ha":811,"x_min":90,"x_max":749,"o":"m 378 1108 l 526 1293 l 658 1293 l 474 1108 l 378 1108 m 90 686 l 90 778 q 163 972 90 918 q 347 1025 235 1025 q 713 992 460 1025 l 713 908 l 365 922 q 343 922 354 922 q 233 897 272 922 q 193 778 193 872 l 193 686 q 227 575 193 600 q 335 550 261 550 l 532 550 q 749 311 749 550 l 749 217 q 658 28 749 76 q 468 -11 583 -11 q 297 1 419 -11 q 121 24 174 14 l 121 107 q 468 92 274 92 q 646 217 646 92 l 646 311 q 621 412 646 376 q 532 447 596 447 l 338 447 q 131 524 179 447 q 90 686 90 588 z "},"ś":{"ha":703,"x_min":56,"x_max":647,"o":"m 299 835 l 447 1019 l 579 1019 l 394 835 l 299 835 m 56 497 l 56 561 q 100 698 56 651 q 262 744 144 744 q 610 722 379 744 l 610 643 l 247 643 q 169 619 183 643 q 158 561 158 601 l 158 497 q 185 429 158 442 q 247 418 207 418 l 467 418 q 601 369 554 418 q 647 239 647 319 l 647 171 q 597 31 647 68 q 467 -7 547 -7 q 86 19 338 -7 l 86 96 l 467 96 q 474 96 467 97 q 494 99 482 94 q 517 108 506 103 q 544 171 544 122 l 544 239 q 527 297 544 278 q 467 315 510 315 l 247 315 q 101 354 146 315 q 56 497 56 393 z "},"Ŝ":{"ha":811,"x_min":90,"x_max":749,"o":"m 232 1108 l 394 1289 l 493 1289 l 638 1108 l 539 1108 l 440 1207 l 332 1108 l 232 1108 m 90 686 l 90 778 q 163 972 90 918 q 347 1025 235 1025 q 713 992 460 1025 l 713 908 l 365 922 q 343 922 354 922 q 233 897 272 922 q 193 778 193 872 l 193 686 q 227 575 193 600 q 335 550 261 550 l 532 550 q 749 311 749 550 l 749 217 q 658 28 749 76 q 468 -11 583 -11 q 297 1 419 -11 q 121 24 174 14 l 121 107 q 468 92 274 92 q 646 217 646 92 l 646 311 q 621 412 646 376 q 532 447 596 447 l 338 447 q 131 524 179 447 q 90 686 90 588 z "},"ŝ":{"ha":703,"x_min":56,"x_max":647,"o":"m 149 828 l 311 1008 l 410 1008 l 554 828 l 456 828 l 357 926 l 249 828 l 149 828 m 56 497 l 56 561 q 100 698 56 651 q 262 744 144 744 q 610 722 379 744 l 610 643 l 247 643 q 169 619 183 643 q 158 561 158 601 l 158 497 q 185 429 158 442 q 247 418 207 418 l 467 418 q 601 369 554 418 q 647 239 647 319 l 647 171 q 597 31 647 68 q 467 -7 547 -7 q 86 19 338 -7 l 86 96 l 467 96 q 474 96 467 97 q 494 99 482 94 q 517 108 506 103 q 544 171 544 122 l 544 239 q 527 297 544 278 q 467 315 510 315 l 247 315 q 101 354 146 315 q 56 497 56 393 z "},"Ş":{"ha":811,"x_min":90,"x_max":749,"o":"m 390 -62 l 483 -62 q 454 -211 483 -171 q 343 -251 425 -251 l 272 -251 l 272 -200 l 346 -179 q 390 -62 390 -160 m 90 686 l 90 778 q 163 972 90 918 q 347 1025 235 1025 q 713 992 460 1025 l 713 908 l 365 922 q 343 922 354 922 q 233 897 272 922 q 193 778 193 872 l 193 686 q 227 575 193 600 q 335 550 261 550 l 532 550 q 749 311 749 550 l 749 217 q 658 28 749 76 q 468 -11 583 -11 q 297 1 419 -11 q 121 24 174 14 l 121 107 q 468 92 274 92 q 646 217 646 92 l 646 311 q 621 412 646 376 q 532 447 596 447 l 338 447 q 131 524 179 447 q 90 686 90 588 z "},"ş":{"ha":703,"x_min":56,"x_max":647,"o":"m 325 -54 l 418 -54 q 389 -203 418 -162 q 278 -243 360 -243 l 207 -243 l 207 -192 l 281 -171 q 325 -54 325 -151 m 56 497 l 56 561 q 100 698 56 651 q 262 744 144 744 q 610 722 379 744 l 610 643 l 247 643 q 169 619 183 643 q 158 561 158 601 l 158 497 q 185 429 158 442 q 247 418 207 418 l 467 418 q 601 369 554 418 q 647 239 647 319 l 647 171 q 597 31 647 68 q 467 -7 547 -7 q 86 19 338 -7 l 86 96 l 467 96 q 474 96 467 97 q 494 99 482 94 q 517 108 506 103 q 544 171 544 122 l 544 239 q 527 297 544 278 q 467 315 510 315 l 247 315 q 101 354 146 315 q 56 497 56 393 z "},"Š":{"ha":811,"x_min":90,"x_max":749,"o":"m 221 1289 l 321 1289 l 432 1190 l 528 1289 l 626 1289 l 482 1108 l 383 1108 l 221 1289 m 90 686 l 90 778 q 163 972 90 918 q 347 1025 235 1025 q 713 992 460 1025 l 713 908 l 365 922 q 343 922 354 922 q 233 897 272 922 q 193 778 193 872 l 193 686 q 227 575 193 600 q 335 550 261 550 l 532 550 q 749 311 749 550 l 749 217 q 658 28 749 76 q 468 -11 583 -11 q 297 1 419 -11 q 121 24 174 14 l 121 107 q 468 92 274 92 q 646 217 646 92 l 646 311 q 621 412 646 376 q 532 447 596 447 l 338 447 q 131 524 179 447 q 90 686 90 588 z "},"š":{"ha":703,"x_min":56,"x_max":647,"o":"m 153 1015 l 253 1015 l 364 917 l 460 1015 l 558 1015 l 414 835 l 315 835 l 153 1015 m 56 497 l 56 561 q 100 698 56 651 q 262 744 144 744 q 610 722 379 744 l 610 643 l 247 643 q 169 619 183 643 q 158 561 158 601 l 158 497 q 185 429 158 442 q 247 418 207 418 l 467 418 q 601 369 554 418 q 647 239 647 319 l 647 171 q 597 31 647 68 q 467 -7 547 -7 q 86 19 338 -7 l 86 96 l 467 96 q 474 96 467 97 q 494 99 482 94 q 517 108 506 103 q 544 171 544 122 l 544 239 q 527 297 544 278 q 467 315 510 315 l 247 315 q 101 354 146 315 q 56 497 56 393 z "},"Ţ":{"ha":803,"x_min":63,"x_max":768,"o":"m 363 -68 l 456 -68 q 426 -217 456 -176 q 315 -257 397 -257 l 244 -257 l 244 -206 l 318 -185 q 363 -68 363 -165 m 63 914 l 63 1017 l 768 1017 l 768 914 l 463 914 l 463 0 l 360 0 l 360 914 l 63 914 z "},"ţ":{"ha":525,"x_min":28,"x_max":483,"o":"m 246 -71 l 339 -71 q 310 -219 339 -179 q 199 -260 281 -260 l 128 -260 l 128 -208 l 201 -187 q 246 -71 246 -168 m 28 636 l 28 714 l 165 739 l 190 944 l 268 944 l 268 739 l 483 739 l 483 636 l 268 636 l 268 264 q 288 147 268 179 q 347 104 307 114 q 471 75 461 75 l 471 1 l 349 1 q 165 264 165 1 l 165 636 l 28 636 z "},"Ť":{"ha":803,"x_min":63,"x_max":768,"o":"m 199 1288 l 299 1288 l 410 1189 l 506 1288 l 604 1288 l 460 1107 l 361 1107 l 199 1288 m 63 914 l 63 1017 l 768 1017 l 768 914 l 463 914 l 463 0 l 360 0 l 360 914 l 63 914 z "},"ť":{"ha":511,"x_min":28,"x_max":483,"o":"m 28 636 l 28 714 l 165 739 l 190 944 l 268 944 l 268 739 l 483 739 l 483 636 l 268 636 l 268 264 q 288 147 268 179 q 347 104 307 114 q 471 75 461 75 l 471 1 l 349 1 q 165 264 165 1 l 165 636 l 28 636 m 460 1111 l 460 1018 l 444 832 l 371 832 l 357 1018 l 356 1111 l 460 1111 z "},"Ŧ":{"ha":803,"x_min":49,"x_max":754,"o":"m 49 914 l 49 1017 l 754 1017 l 754 914 l 449 914 l 449 617 l 615 617 l 615 542 l 449 542 l 449 0 l 346 0 l 346 542 l 179 542 l 179 617 l 346 617 l 346 914 l 49 914 z "},"ŧ":{"ha":511,"x_min":28,"x_max":483,"o":"m 28 636 l 28 714 l 165 739 l 190 944 l 268 944 l 268 739 l 483 739 l 483 636 l 268 636 l 268 447 l 414 447 l 414 372 l 268 372 l 268 264 q 284 142 269 167 q 350 104 299 117 q 458 79 457 79 l 458 1 l 350 1 q 208 60 250 1 q 165 264 165 119 l 165 372 l 53 372 l 53 447 l 165 447 l 165 636 l 28 636 z "},"Ũ":{"ha":940,"x_min":111,"x_max":857,"o":"m 563 1197 q 688 1247 594 1197 l 718 1189 q 683 1161 714 1186 q 564 1101 610 1101 q 478 1125 522 1101 q 408 1149 433 1149 q 362 1141 382 1149 q 319 1120 342 1133 q 278 1100 296 1107 l 249 1157 q 305 1202 286 1188 q 355 1231 324 1217 q 419 1244 386 1246 q 498 1220 451 1243 q 553 1197 544 1197 q 563 1197 563 1197 m 111 444 l 111 1017 l 214 1017 l 214 444 q 230 244 214 318 q 289 139 246 169 q 367 102 332 108 q 442 96 401 96 l 488 96 q 610 106 586 96 q 654 127 633 115 q 688 156 675 139 q 714 200 700 174 q 736 261 728 226 q 753 444 753 338 l 753 1017 l 857 1017 l 857 444 q 833 226 857 315 q 777 92 808 136 q 688 24 746 47 q 593 -3 631 0 q 519 -7 556 -7 q 460 -7 483 -7 q 419 -6 438 -7 q 366 -3 400 -6 q 314 5 332 -1 q 267 22 296 11 q 223 49 239 32 q 186 90 207 67 q 154 148 165 114 q 132 225 143 182 q 111 444 111 304 z "},"ũ":{"ha":756,"x_min":69,"x_max":672,"o":"m 450 925 q 575 975 482 925 l 606 917 q 572 889 601 914 q 451 829 497 829 q 365 853 410 829 q 295 876 321 876 q 249 869 269 876 q 206 848 229 861 q 165 828 183 835 l 136 885 q 192 930 174 915 q 242 959 211 944 q 306 972 274 974 q 385 948 339 971 q 441 925 432 925 q 450 925 450 925 m 69 224 l 69 738 l 172 738 l 172 224 q 207 124 172 158 q 296 90 242 90 q 397 101 350 90 q 473 124 444 113 q 569 169 501 136 l 569 738 l 672 738 l 672 0 l 600 0 l 569 86 q 539 69 565 85 q 506 50 513 53 q 476 34 500 47 q 443 18 453 21 q 411 7 433 15 q 375 -4 389 -1 q 297 -12 331 -12 q 131 57 192 -12 q 69 224 69 126 z "},"Ū":{"ha":940,"x_min":111,"x_max":857,"o":"m 281 1107 l 281 1194 l 686 1194 l 686 1107 l 281 1107 m 111 444 l 111 1017 l 214 1017 l 214 444 q 230 244 214 318 q 289 139 246 169 q 367 102 332 108 q 442 96 401 96 q 488 96 442 96 q 610 106 586 96 q 654 127 633 115 q 688 156 675 139 q 714 200 700 174 q 736 261 728 226 q 753 444 753 338 l 753 1017 l 857 1017 l 857 444 q 833 226 857 315 q 777 92 808 136 q 688 24 746 47 q 593 -3 631 0 q 519 -7 556 -7 q 460 -7 483 -7 q 419 -6 438 -7 q 366 -3 400 -6 q 314 5 332 -1 q 267 22 296 11 q 223 49 239 32 q 186 90 207 67 q 154 148 165 114 q 132 225 143 182 q 111 444 111 304 z "},"ū":{"ha":756,"x_min":69,"x_max":672,"o":"m 168 828 l 168 915 l 574 915 l 574 828 l 168 828 m 69 224 l 69 738 l 172 738 l 172 224 q 207 124 172 158 q 296 90 242 90 q 397 101 350 90 q 473 124 444 113 q 569 169 501 136 l 569 738 l 672 738 l 672 0 l 600 0 l 569 86 q 539 69 565 85 q 506 50 513 53 q 476 34 500 47 q 443 18 453 21 q 411 7 433 15 q 375 -4 389 -1 q 297 -12 331 -12 q 131 57 192 -12 q 69 224 69 126 z "},"Ŭ":{"ha":940,"x_min":111,"x_max":857,"o":"m 325 1265 l 389 1265 q 418 1199 389 1226 q 485 1172 447 1172 q 551 1197 524 1172 q 578 1265 578 1222 l 644 1265 q 592 1146 644 1189 q 482 1107 543 1107 q 373 1151 421 1107 q 325 1265 325 1194 m 111 444 l 111 1017 l 214 1017 l 214 444 q 230 244 214 318 q 289 139 246 169 q 367 102 332 108 q 442 96 401 96 l 488 96 q 610 106 586 96 q 654 127 633 115 q 688 156 675 139 q 714 200 700 174 q 736 261 728 226 q 753 444 753 338 l 753 1017 l 857 1017 l 857 444 q 833 226 857 315 q 777 92 808 136 q 688 24 746 47 q 593 -3 631 0 q 519 -7 556 -7 q 460 -7 483 -7 q 419 -6 438 -7 q 366 -3 400 -6 q 314 5 332 -1 q 267 22 296 11 q 223 49 239 32 q 186 90 207 67 q 154 148 165 114 q 132 225 143 182 q 111 444 111 304 z "},"ŭ":{"ha":756,"x_min":69,"x_max":672,"o":"m 222 986 l 288 986 q 316 920 288 947 q 383 893 344 893 q 449 918 421 893 q 476 986 476 943 l 542 986 q 492 870 542 913 q 381 828 443 828 q 271 872 319 828 q 222 986 222 915 m 69 224 l 69 738 l 172 738 l 172 224 q 207 124 172 158 q 296 90 242 90 q 397 101 350 90 q 473 124 444 113 q 569 169 501 136 l 569 738 l 672 738 l 672 0 l 600 0 l 569 86 q 539 69 565 85 q 506 50 513 53 q 476 34 500 47 q 443 18 453 21 q 411 7 433 15 q 375 -4 389 -1 q 297 -12 331 -12 q 131 57 192 -12 q 69 224 69 126 z "},"Ů":{"ha":940,"x_min":111,"x_max":857,"o":"m 385 1148 q 364 1168 385 1148 q 343 1249 343 1189 q 385 1350 343 1308 q 485 1392 426 1392 q 584 1350 543 1392 q 625 1249 625 1308 q 584 1148 625 1189 q 485 1107 543 1107 q 385 1148 426 1107 m 484 1325 q 468 1325 484 1325 q 431 1303 453 1325 q 408 1249 408 1281 q 431 1196 408 1218 q 485 1174 453 1174 q 538 1195 517 1174 q 560 1249 560 1217 q 538 1303 560 1281 q 484 1325 515 1325 m 111 444 l 111 1017 l 214 1017 l 214 444 q 230 244 214 318 q 289 139 246 169 q 367 102 332 108 q 442 96 401 96 l 488 96 q 610 106 586 96 q 654 127 633 115 q 688 156 675 139 q 714 200 700 174 q 736 261 728 226 q 753 444 753 338 l 753 1017 l 857 1017 l 857 444 q 833 226 857 315 q 777 92 808 136 q 688 24 746 47 q 593 -3 631 0 q 519 -7 556 -7 q 460 -7 483 -7 q 419 -6 438 -7 q 366 -3 400 -6 q 314 5 332 -1 q 267 22 296 11 q 223 49 239 32 q 186 90 207 67 q 154 148 165 114 q 132 225 143 182 q 111 444 111 304 z "},"ů":{"ha":756,"x_min":69,"x_max":672,"o":"m 272 869 q 262 878 272 869 q 242 914 253 888 q 231 974 231 940 q 249 1041 231 1008 q 301 1093 268 1074 q 372 1113 333 1113 q 442 1093 410 1113 q 493 1041 475 1074 q 511 969 511 1008 q 493 898 511 931 q 442 847 475 865 q 376 828 410 828 q 317 839 343 828 q 272 869 290 850 m 317 1023 q 306 1011 317 1023 q 294 969 294 1000 q 317 917 294 939 q 372 894 340 894 q 425 917 403 894 q 447 970 447 939 q 425 1024 447 1001 q 372 1046 403 1046 q 317 1023 340 1046 m 69 224 l 69 738 l 172 738 l 172 224 q 207 124 172 158 q 296 90 242 90 q 397 101 350 90 q 473 124 444 113 q 569 169 501 136 l 569 738 l 672 738 l 672 0 l 600 0 l 569 86 q 539 69 565 85 q 506 50 513 53 q 476 34 500 47 q 443 18 453 21 q 411 7 433 15 q 375 -4 389 -1 q 297 -12 331 -12 q 131 57 192 -12 q 69 224 69 126 z "},"Ű":{"ha":940,"x_min":111,"x_max":857,"o":"m 342 1107 l 492 1292 l 622 1292 l 439 1107 l 342 1107 m 531 1107 l 678 1292 l 811 1292 l 625 1107 l 531 1107 m 111 444 l 111 1017 l 214 1017 l 214 444 q 230 244 214 318 q 289 139 246 169 q 367 102 332 108 q 442 96 401 96 q 488 96 442 96 q 610 106 586 96 q 654 127 633 115 q 688 156 675 139 q 714 200 700 174 q 736 261 728 226 q 753 444 753 338 l 753 1017 l 857 1017 l 857 444 q 833 226 857 315 q 777 92 808 136 q 688 24 746 47 q 593 -3 631 0 q 519 -7 556 -7 q 460 -7 483 -7 q 419 -6 438 -7 q 366 -3 400 -6 q 314 5 332 -1 q 267 22 296 11 q 223 49 239 32 q 186 90 207 67 q 154 148 165 114 q 132 225 143 182 q 111 444 111 304 z "},"ű":{"ha":756,"x_min":69,"x_max":697,"o":"m 229 828 l 378 1013 l 510 1013 l 325 828 l 229 828 m 417 828 l 565 1013 l 697 1013 l 513 828 l 417 828 m 69 224 l 69 738 l 172 738 l 172 224 q 207 124 172 158 q 296 90 242 90 q 397 101 350 90 q 473 124 444 113 q 569 169 501 136 l 569 738 l 672 738 l 672 0 l 600 0 l 569 86 q 539 69 565 85 q 506 50 513 53 q 476 34 500 47 q 443 18 453 21 q 411 7 433 15 q 375 -4 389 -1 q 297 -12 331 -12 q 131 57 192 -12 q 69 224 69 126 z "},"Ų":{"ha":940,"x_min":111,"x_max":857,"o":"m 507 -6 q 424 -121 424 -72 q 440 -155 424 -137 q 511 -174 457 -172 l 511 -257 q 475 -260 497 -260 q 417 -247 453 -260 q 361 -203 382 -233 q 336 -134 336 -168 q 365 -65 336 -100 q 453 -6 393 -31 l 507 -6 m 111 444 l 111 1017 l 214 1017 l 214 444 q 230 244 214 318 q 289 139 246 169 q 367 102 332 108 q 442 96 401 96 l 488 96 q 610 106 586 96 q 654 127 633 115 q 688 156 675 139 q 714 200 700 174 q 736 261 728 226 q 753 444 753 338 l 753 1017 l 857 1017 l 857 444 q 833 226 857 315 q 777 92 808 136 q 688 24 746 47 q 593 -3 631 0 q 519 -7 556 -7 q 460 -7 483 -7 q 419 -6 438 -7 q 366 -3 400 -6 q 314 5 332 -1 q 267 22 296 11 q 223 49 239 32 q 186 90 207 67 q 154 148 165 114 q 132 225 143 182 q 111 444 111 304 z "},"ų":{"ha":756,"x_min":69,"x_max":672,"o":"m 581 -115 q 668 -168 581 -165 l 668 -251 q 632 -253 654 -253 q 574 -240 610 -253 q 518 -197 539 -228 q 493 -128 493 -162 q 522 -60 493 -94 q 610 0 550 -25 l 664 0 q 581 -115 581 -68 m 69 224 l 69 738 l 172 738 l 172 224 q 207 124 172 158 q 296 90 242 90 q 397 101 350 90 q 473 124 444 113 q 569 169 501 136 l 569 738 l 672 738 l 672 0 l 600 0 l 569 86 q 539 69 565 85 q 506 50 513 53 q 476 34 500 47 q 443 18 453 21 q 411 7 433 15 q 375 -4 389 -1 q 297 -12 331 -12 q 131 57 192 -12 q 69 224 69 126 z "},"Ŵ":{"ha":1336,"x_min":63,"x_max":1301,"o":"m 493 1100 l 656 1281 l 754 1281 l 899 1100 l 800 1100 l 701 1199 l 593 1100 l 493 1100 m 63 1017 l 175 1017 l 471 179 l 722 1017 l 839 1017 l 744 692 l 929 171 l 1189 1017 l 1301 1017 l 983 0 l 881 0 l 690 519 l 522 0 l 419 0 l 63 1017 z "},"ŵ":{"ha":1113,"x_min":28,"x_max":1085,"o":"m 361 821 l 524 1001 l 622 1001 l 767 821 l 668 821 l 569 919 l 461 821 l 361 821 m 28 738 l 140 738 l 358 151 l 550 738 l 661 738 l 586 501 l 747 151 l 972 738 l 1085 738 l 803 0 l 700 0 l 536 361 l 415 0 l 304 0 l 28 738 z "},"Ŷ":{"ha":875,"x_min":63,"x_max":840,"o":"m 235 1100 l 397 1281 l 496 1281 l 640 1100 l 542 1100 l 443 1199 l 335 1100 l 235 1100 m 489 0 l 386 0 l 386 361 l 63 1017 l 175 1017 l 438 483 l 728 1017 l 840 1017 l 489 361 l 489 0 z "},"ŷ":{"ha":769,"x_min":29,"x_max":739,"o":"m 182 828 l 344 1008 l 443 1008 l 588 828 l 489 828 l 390 926 l 282 828 l 182 828 m 29 738 l 142 738 l 321 161 q 340 125 331 133 q 356 112 349 117 q 369 106 363 107 q 383 103 376 104 q 394 103 389 103 q 413 107 407 106 l 624 738 l 739 738 l 414 -233 l 310 -375 l 246 -375 l 376 0 q 210 153 257 0 l 29 738 z "},"Ÿ":{"ha":875,"x_min":63,"x_max":840,"o":"m 225 1128 q 215 1138 225 1128 q 204 1178 204 1149 q 225 1227 204 1207 q 275 1247 246 1247 q 324 1227 304 1247 q 344 1178 344 1207 q 324 1128 344 1149 q 275 1107 304 1107 q 225 1128 246 1107 m 579 1128 q 569 1138 579 1128 q 558 1178 558 1149 q 579 1227 558 1207 q 629 1247 600 1247 q 678 1227 658 1247 q 699 1178 699 1207 q 678 1128 699 1149 q 629 1107 658 1107 q 579 1128 600 1107 m 489 0 l 386 0 l 386 361 l 63 1017 l 175 1017 l 438 483 l 728 1017 l 840 1017 l 489 361 l 489 0 z "},"Ź":{"ha":782,"x_min":49,"x_max":733,"o":"m 343 1107 l 492 1292 l 624 1292 l 439 1107 l 343 1107 m 49 0 l 49 103 l 599 914 l 49 914 l 49 1017 l 733 1017 l 733 914 l 183 103 l 733 103 l 733 0 l 49 0 z "},"ź":{"ha":633,"x_min":42,"x_max":592,"o":"m 269 828 l 417 1013 l 550 1013 l 364 828 l 269 828 m 42 635 l 42 738 l 592 738 l 592 635 l 197 104 l 592 104 l 592 1 l 63 1 l 63 104 l 464 635 l 42 635 z "},"Ż":{"ha":782,"x_min":49,"x_max":733,"o":"m 324 1139 l 324 1214 q 357 1249 324 1249 l 426 1249 q 458 1214 458 1249 l 458 1139 q 426 1107 458 1107 l 357 1107 q 324 1139 324 1107 m 49 0 l 49 103 l 599 914 l 49 914 l 49 1017 l 733 1017 l 733 914 l 183 103 l 733 103 l 733 0 l 49 0 z "},"ż":{"ha":633,"x_min":42,"x_max":592,"o":"m 250 860 l 250 935 q 283 969 250 969 l 353 969 q 375 960 367 969 q 383 935 383 950 l 383 860 q 353 828 383 828 l 283 828 q 259 837 268 828 q 250 860 250 846 m 42 635 l 42 738 l 592 738 l 592 635 l 197 104 l 592 104 l 592 1 l 63 1 l 63 104 l 464 635 l 42 635 z "},"Ž":{"ha":782,"x_min":49,"x_max":733,"o":"m 189 1288 l 289 1288 l 400 1189 l 494 1288 l 594 1288 l 450 1107 l 350 1107 l 189 1288 m 49 0 l 49 103 l 599 914 l 49 914 l 49 1017 l 733 1017 l 733 914 l 183 103 l 733 103 l 733 0 l 49 0 z "},"ž":{"ha":633,"x_min":42,"x_max":592,"o":"m 114 1008 l 214 1008 l 325 910 l 421 1008 l 519 1008 l 375 828 l 276 828 l 114 1008 m 42 635 l 42 738 l 592 738 l 592 635 l 197 104 l 592 104 l 592 1 l 63 1 l 63 104 l 464 635 l 42 635 z "},"ƒ":{"ha":822,"x_min":28,"x_max":794,"o":"m 163 -181 q 267 -79 233 -181 q 313 122 294 4 l 379 551 l 238 551 l 256 656 l 397 656 l 404 703 q 558 1081 450 1004 q 663 1111 604 1111 q 739 1100 714 1111 l 794 1076 l 785 1008 l 663 1008 q 558 904 594 1008 q 511 703 531 824 l 504 654 l 700 654 l 682 551 l 486 551 l 419 122 q 347 -164 389 -87 q 242 -269 301 -246 q 167 -283 207 -283 q 83 -269 128 -283 q 28 -249 39 -256 l 38 -181 l 163 -181 z "},"ˆ":{"ha":544,"x_min":69,"x_max":475,"o":"m 69 738 l 232 918 l 331 918 l 475 738 l 376 738 l 278 836 l 169 738 l 69 738 z "},"ˇ":{"ha":544,"x_min":69,"x_max":475,"o":"m 69 918 l 169 918 l 281 819 l 376 918 l 475 918 l 331 738 l 232 738 l 69 918 z "},"˘":{"ha":457,"x_min":69,"x_max":389,"o":"m 69 894 l 135 894 q 163 828 135 856 q 230 801 192 801 q 296 826 268 801 q 324 894 324 851 l 389 894 q 340 778 389 821 q 228 736 290 736 q 118 780 167 736 q 69 894 69 824 z "},"˙":{"ha":274,"x_min":69,"x_max":204,"o":"m 69 772 l 69 847 q 103 882 69 882 l 172 882 q 204 847 204 882 l 204 772 q 172 740 204 740 l 103 740 q 69 772 69 740 z "},"˚":{"ha":421,"x_min":69,"x_max":351,"o":"m 111 777 q 90 798 111 777 q 69 878 69 818 q 111 979 69 938 q 211 1021 153 1021 q 310 979 269 1021 q 351 878 351 938 q 310 777 351 818 q 211 736 269 736 q 111 777 153 736 m 158 931 q 146 920 158 931 q 135 878 135 908 q 157 825 135 847 q 210 803 179 803 q 264 825 242 803 q 286 878 286 847 q 264 932 286 910 q 211 954 242 954 q 158 931 181 954 z "},"˛":{"ha":311,"x_min":67,"x_max":242,"o":"m 238 0 q 154 -115 154 -67 q 171 -149 154 -132 q 242 -168 188 -167 l 242 -251 q 206 -254 228 -254 q 148 -241 183 -254 q 92 -197 113 -228 q 67 -128 67 -162 q 95 -60 67 -94 q 183 0 124 -25 l 238 0 z "},"˜":{"ha":608,"x_min":69,"x_max":539,"o":"m 383 835 q 508 885 415 835 l 539 826 q 506 800 535 824 q 385 739 431 739 q 299 763 343 739 q 228 786 254 786 q 183 778 203 786 q 140 758 163 771 q 99 738 117 744 l 69 794 q 126 840 107 825 q 176 869 144 854 q 240 882 207 883 q 319 858 272 881 q 374 835 365 835 q 383 835 383 835 z "},"˝":{"ha":528,"x_min":28,"x_max":496,"o":"m 28 738 l 176 922 l 308 922 l 124 738 l 28 738 m 215 738 l 364 922 l 496 922 l 311 738 l 215 738 z "},"̸":{"ha":893,"x_min":97,"x_max":796,"o":"m 97 225 l 97 792 q 165 958 97 900 q 336 1017 232 1017 l 564 1017 q 740 953 683 1017 q 796 792 796 890 l 796 225 q 564 0 796 0 l 336 0 q 165 54 232 0 q 97 225 97 108 m 200 225 q 214 163 200 186 l 590 913 q 564 914 582 914 l 336 914 q 233 880 267 914 q 200 792 200 846 l 200 225 m 336 103 l 564 103 q 693 225 693 103 l 693 792 q 669 875 693 846 l 285 110 q 336 103 313 103 z "},"Ω":{"ha":1082,"x_min":90,"x_max":992,"o":"m 90 503 l 90 571 q 102 672 90 608 q 145 802 114 736 q 225 917 176 868 q 356 996 274 965 q 551 1026 438 1026 q 755 985 665 1026 q 893 872 844 944 q 985 532 985 738 q 981 410 985 457 q 961 304 976 364 q 814 107 932 192 l 992 93 l 992 0 l 675 0 l 675 108 q 867 343 839 218 q 882 517 882 418 q 867 681 882 617 q 817 803 853 746 q 542 924 742 924 q 193 528 193 924 q 197 405 193 446 q 222 312 201 364 q 285 214 242 260 q 404 108 328 168 l 404 0 l 99 0 l 99 94 l 283 108 q 147 239 186 171 q 114 304 126 275 q 97 378 101 333 q 90 503 90 433 z "},"π":{"ha":888,"x_min":28,"x_max":858,"o":"m 28 635 l 28 738 l 792 738 l 792 635 l 613 635 l 613 231 q 635 126 613 156 q 708 97 658 97 l 858 97 l 858 36 q 703 -7 794 -7 q 560 47 611 -7 q 510 231 510 100 l 510 635 l 250 635 l 250 0 l 147 0 l 147 635 l 28 635 z "},"Ḃ":{"ha":828,"x_min":111,"x_max":772,"o":"m 357 1133 l 357 1208 q 390 1243 357 1243 l 460 1243 q 492 1208 492 1243 l 492 1133 q 460 1101 492 1101 l 390 1101 q 357 1133 357 1101 m 111 0 l 111 1017 l 503 1017 q 703 936 640 1017 q 767 753 767 856 q 639 528 767 568 q 732 453 692 515 q 772 283 772 392 q 718 89 772 167 q 503 0 656 0 l 111 0 m 215 103 l 503 103 q 669 286 669 103 q 628 425 669 369 q 503 481 586 481 l 215 481 l 215 103 m 215 583 l 503 583 q 664 749 664 583 q 503 914 664 914 l 215 914 l 215 583 z "},"ḃ":{"ha":769,"x_min":69,"x_max":700,"o":"m 69 1218 l 69 1293 q 103 1328 69 1328 l 172 1328 q 204 1293 204 1328 l 204 1218 q 172 1186 204 1186 l 103 1186 q 69 1218 69 1186 m 83 0 l 83 1090 l 183 1090 l 183 693 q 326 733 246 718 q 469 749 406 749 q 583 717 532 749 q 658 625 633 685 q 700 365 700 522 q 654 117 700 222 q 579 25 629 58 q 461 -8 529 -8 q 306 24 393 -8 q 185 82 219 57 l 157 0 l 83 0 m 457 94 q 597 365 597 94 q 563 586 597 526 q 457 646 529 646 q 185 610 324 646 l 185 158 q 457 94 342 94 z "},"Ḋ":{"ha":913,"x_min":111,"x_max":850,"o":"m 375 1146 l 375 1221 q 408 1256 375 1256 l 478 1256 q 510 1221 510 1256 l 510 1146 q 478 1114 510 1114 l 408 1114 q 375 1146 375 1114 m 111 0 l 111 1017 l 489 1017 q 647 983 579 1017 q 751 897 714 949 q 813 774 789 846 q 850 504 850 658 q 800 228 850 353 q 629 31 742 86 q 489 0 567 0 l 111 0 m 214 107 l 489 107 q 636 164 576 107 q 747 494 747 268 q 681 817 747 721 q 489 914 615 914 l 214 914 l 214 107 z "},"ḋ":{"ha":769,"x_min":69,"x_max":699,"o":"m 564 1207 l 564 1282 q 597 1317 564 1317 l 667 1317 q 699 1282 699 1317 l 699 1207 q 667 1175 699 1175 l 597 1175 q 564 1207 564 1175 m 115 116 q 103 145 115 116 q 80 234 90 174 q 69 370 69 294 q 78 506 69 446 q 111 625 88 567 q 313 749 163 749 q 443 733 364 749 q 585 693 522 718 l 585 1090 l 686 1090 l 686 0 l 613 0 l 585 82 q 463 24 550 57 q 308 -8 376 -8 q 190 25 240 -8 q 115 116 140 58 m 172 365 q 313 94 172 94 q 585 158 428 94 l 585 610 q 313 646 446 646 q 206 586 240 646 q 172 365 172 526 z "},"Ḟ":{"ha":788,"x_min":111,"x_max":725,"o":"m 372 1133 l 372 1208 q 406 1243 372 1243 l 475 1243 q 507 1208 507 1243 l 507 1133 q 475 1101 507 1101 l 406 1101 q 372 1133 372 1101 m 111 0 l 111 836 q 159 974 111 932 q 278 1017 207 1017 q 286 1017 282 1017 l 725 994 l 725 914 l 286 914 q 235 901 253 914 q 216 874 218 888 q 214 836 214 861 l 214 558 l 669 544 l 669 463 l 214 449 l 214 0 l 111 0 z "},"ḟ":{"ha":556,"x_min":28,"x_max":528,"o":"m 290 1236 l 290 1311 q 324 1346 290 1346 l 393 1346 q 425 1311 425 1346 l 425 1236 q 393 1204 425 1204 l 324 1204 q 290 1236 290 1204 m 28 635 l 28 714 l 163 738 l 163 875 q 201 1039 163 988 q 252 1076 218 1060 q 353 1092 286 1092 q 528 1058 419 1092 l 528 990 l 357 992 q 278 958 293 992 q 265 875 265 929 l 265 738 l 471 738 l 471 635 l 265 635 l 265 0 l 163 0 l 163 635 l 28 635 z "},"Ṁ":{"ha":1113,"x_min":76,"x_max":1036,"o":"m 483 1139 l 483 1214 q 517 1249 483 1249 l 586 1249 q 618 1214 618 1249 l 618 1139 q 586 1107 618 1107 l 517 1107 q 483 1139 483 1107 m 76 0 l 143 1017 l 285 1017 l 556 171 l 818 1017 l 958 1017 l 1036 0 l 933 0 l 871 831 l 610 0 l 504 0 l 235 831 l 179 0 l 76 0 z "},"ṁ":{"ha":1247,"x_min":83,"x_max":1178,"o":"m 632 861 l 632 936 q 665 971 632 971 l 735 971 q 767 936 767 971 l 767 861 q 735 829 767 829 l 665 829 q 632 861 632 829 m 83 0 l 83 738 l 156 738 l 186 649 q 220 669 194 654 q 256 690 246 683 q 290 707 267 696 q 328 722 313 718 l 363 735 q 457 746 396 746 q 574 717 518 746 q 653 638 629 688 q 950 746 783 746 q 1113 679 1047 746 q 1178 508 1178 613 l 1178 0 l 1075 0 l 1075 508 q 1040 606 1075 569 q 950 643 1004 643 q 806 626 867 643 q 678 565 746 610 l 678 0 l 575 0 l 575 508 q 540 606 575 569 q 451 643 504 643 q 352 632 397 643 q 282 610 307 621 q 186 565 257 600 l 186 0 l 83 0 z "},"Ṗ":{"ha":807,"x_min":83,"x_max":744,"o":"m 339 1149 l 339 1224 q 372 1258 339 1258 l 442 1258 q 474 1224 474 1258 l 474 1149 q 442 1117 474 1117 l 372 1117 q 339 1149 339 1117 m 83 0 l 83 1017 l 501 1017 q 744 722 744 1017 q 631 439 744 494 q 567 418 594 422 q 500 414 539 414 q 326 426 461 414 q 186 442 192 439 l 186 0 l 83 0 m 186 517 l 501 517 q 604 557 568 517 q 640 722 640 597 q 586 886 638 851 q 501 913 549 913 l 186 913 l 186 517 z "},"ṗ":{"ha":769,"x_min":83,"x_max":700,"o":"m 347 878 l 347 953 q 381 988 347 988 l 450 988 q 482 953 482 988 l 482 878 q 450 846 482 846 l 381 846 q 347 878 347 846 m 83 -375 l 83 738 l 157 738 l 183 656 q 306 713 218 681 q 461 746 393 746 q 579 713 529 746 q 654 622 629 679 q 700 372 700 515 q 583 21 700 94 q 469 -11 532 -11 q 326 4 406 -11 q 183 44 246 19 l 183 -375 l 83 -375 m 457 92 q 563 151 529 92 q 597 372 597 211 q 457 643 597 643 q 183 579 340 643 l 183 128 q 457 92 322 92 z "},"Ṡ":{"ha":811,"x_min":90,"x_max":749,"o":"m 350 1154 l 350 1229 q 383 1264 350 1264 l 453 1264 q 485 1229 485 1264 l 485 1154 q 453 1122 485 1122 l 383 1122 q 350 1154 350 1122 m 90 686 l 90 778 q 163 972 90 918 q 347 1025 235 1025 q 713 992 460 1025 l 713 908 l 365 922 q 343 922 354 922 q 233 897 272 922 q 193 778 193 872 l 193 686 q 227 575 193 600 q 335 550 261 550 l 532 550 q 749 311 749 550 l 749 217 q 658 28 749 76 q 468 -11 583 -11 q 297 1 419 -11 q 121 24 174 14 l 121 107 q 468 92 274 92 q 646 217 646 92 l 646 311 q 621 412 646 376 q 532 447 596 447 l 338 447 q 131 524 179 447 q 90 686 90 588 z "},"ṡ":{"ha":703,"x_min":56,"x_max":647,"o":"m 314 876 l 314 951 q 347 986 314 986 l 417 986 q 449 951 449 986 l 449 876 q 417 844 449 844 l 347 844 q 314 876 314 844 m 56 497 l 56 561 q 100 698 56 651 q 262 744 144 744 q 610 722 379 744 l 610 643 l 247 643 q 169 619 183 643 q 158 561 158 601 l 158 497 q 185 429 158 442 q 247 418 207 418 l 467 418 q 601 369 554 418 q 647 239 647 319 l 647 171 q 597 31 647 68 q 467 -7 547 -7 q 86 19 338 -7 l 86 96 l 467 96 q 474 96 467 97 q 494 99 482 94 q 517 108 506 103 q 544 171 544 122 l 544 239 q 527 297 544 278 q 467 315 510 315 l 247 315 q 101 354 146 315 q 56 497 56 393 z "},"Ṫ":{"ha":803,"x_min":63,"x_max":768,"o":"m 333 1139 l 333 1214 q 367 1249 333 1249 l 436 1249 q 460 1239 451 1249 q 469 1214 469 1229 l 469 1139 q 436 1107 469 1107 l 367 1107 q 343 1116 353 1107 q 333 1139 333 1125 m 63 914 l 63 1017 l 768 1017 l 768 914 l 463 914 l 463 0 l 360 0 l 360 914 l 63 914 z "},"ṫ":{"ha":525,"x_min":28,"x_max":483,"o":"m 161 1061 l 161 1136 q 194 1171 161 1171 l 264 1171 q 296 1136 296 1171 l 296 1061 q 264 1029 296 1029 l 194 1029 q 161 1061 161 1029 m 28 636 l 28 714 l 165 739 l 190 944 l 268 944 l 268 739 l 483 739 l 483 636 l 268 636 l 268 264 q 288 147 268 179 q 347 104 307 114 q 471 75 461 75 l 471 1 l 349 1 q 165 264 165 1 l 165 636 l 28 636 z "},"Ẁ":{"ha":1336,"x_min":63,"x_max":1301,"o":"m 463 1285 l 594 1285 l 743 1100 l 647 1100 l 463 1285 m 63 1017 l 175 1017 l 471 179 l 722 1017 l 839 1017 l 744 692 l 929 171 l 1189 1017 l 1301 1017 l 983 0 l 881 0 l 690 519 l 522 0 l 419 0 l 63 1017 z "},"ẁ":{"ha":1113,"x_min":28,"x_max":1085,"o":"m 331 1006 l 463 1006 l 611 821 l 515 821 l 331 1006 m 28 738 l 140 738 l 358 151 l 550 738 l 661 738 l 586 501 l 747 151 l 972 738 l 1085 738 l 803 0 l 700 0 l 536 361 l 415 0 l 304 0 l 28 738 z "},"Ẃ":{"ha":1336,"x_min":63,"x_max":1301,"o":"m 649 1100 l 797 1285 l 929 1285 l 744 1100 l 649 1100 m 63 1017 l 175 1017 l 471 179 l 722 1017 l 839 1017 l 744 692 l 929 171 l 1189 1017 l 1301 1017 l 983 0 l 881 0 l 690 519 l 522 0 l 419 0 l 63 1017 z "},"ẃ":{"ha":1113,"x_min":28,"x_max":1085,"o":"m 517 821 l 665 1006 l 797 1006 l 613 821 l 517 821 m 28 738 l 140 738 l 358 151 l 550 738 l 661 738 l 586 501 l 747 151 l 972 738 l 1085 738 l 803 0 l 700 0 l 536 361 l 415 0 l 304 0 l 28 738 z "},"Ẅ":{"ha":1336,"x_min":63,"x_max":1301,"o":"m 469 1121 q 459 1131 469 1121 q 449 1171 449 1142 q 469 1220 449 1200 q 519 1240 490 1240 q 569 1220 549 1240 q 589 1171 589 1200 q 569 1121 589 1142 q 519 1100 549 1100 q 469 1121 490 1100 m 824 1121 q 813 1131 824 1121 q 803 1171 803 1142 q 824 1220 803 1200 q 874 1240 844 1240 q 923 1220 903 1240 q 943 1171 943 1200 q 923 1121 943 1142 q 874 1100 903 1100 q 824 1121 844 1100 m 63 1017 l 175 1017 l 471 179 l 722 1017 l 839 1017 l 744 692 l 929 171 l 1189 1017 l 1301 1017 l 983 0 l 881 0 l 690 519 l 522 0 l 419 0 l 63 1017 z "},"ẅ":{"ha":1113,"x_min":28,"x_max":1085,"o":"m 338 842 q 327 852 338 842 q 317 892 317 863 q 338 941 317 921 q 388 961 358 961 q 437 941 417 961 q 457 892 457 921 q 437 842 457 863 q 388 821 417 821 q 338 842 358 821 m 692 842 q 681 852 692 842 q 671 892 671 863 q 692 941 671 921 q 742 961 713 961 q 791 941 771 961 q 811 892 811 921 q 791 842 811 863 q 742 821 771 821 q 692 842 713 821 m 28 738 l 140 738 l 358 151 l 550 738 l 661 738 l 586 501 l 747 151 l 972 738 l 1085 738 l 803 0 l 700 0 l 536 361 l 415 0 l 304 0 l 28 738 z "},"Ỳ":{"ha":875,"x_min":63,"x_max":840,"o":"m 219 1292 l 350 1292 l 500 1107 l 403 1107 l 219 1292 m 489 0 l 386 0 l 386 361 l 63 1017 l 175 1017 l 438 483 l 728 1017 l 840 1017 l 489 361 l 489 0 z "},"ỳ":{"ha":769,"x_min":29,"x_max":739,"o":"m 165 1013 l 297 1013 l 446 828 l 350 828 l 165 1013 m 29 738 l 142 738 l 321 161 q 340 125 331 133 q 356 112 349 117 q 369 106 363 107 q 383 103 376 104 q 394 103 389 103 q 413 107 407 106 l 624 738 l 739 738 l 414 -233 l 310 -375 l 246 -375 l 376 0 q 210 153 257 0 l 29 738 z "},"–":{"ha":713,"x_min":28,"x_max":685,"o":"m 28 347 l 28 451 l 685 451 l 685 347 l 28 347 z "},"—":{"ha":1022,"x_min":28,"x_max":994,"o":"m 28 350 l 28 454 l 994 454 l 994 350 l 28 350 z "},"‘":{"ha":375,"x_min":111,"x_max":264,"o":"m 235 1031 q 256 1028 243 1031 l 256 979 q 253 979 254 979 q 208 932 208 979 l 208 893 l 225 893 q 264 856 264 893 l 264 774 q 225 732 264 732 l 147 732 q 111 774 111 732 l 111 911 q 235 1031 111 1031 z "},"’":{"ha":375,"x_min":111,"x_max":264,"o":"m 111 907 l 111 989 q 150 1031 111 1031 l 228 1031 q 264 989 264 1031 l 264 851 q 249 784 264 811 q 214 747 235 757 q 158 731 176 731 q 133 731 139 731 l 119 733 l 119 782 q 122 782 121 782 q 167 831 167 782 l 167 868 l 150 868 q 111 907 111 868 z "},"‚":{"ha":375,"x_min":111,"x_max":264,"o":"m 111 38 l 111 119 q 150 161 111 161 l 228 161 q 264 119 264 161 l 264 -18 q 249 -86 264 -58 q 214 -122 235 -114 q 157 -139 175 -139 q 133 -139 139 -139 l 119 -136 l 119 -87 q 122 -87 121 -87 q 167 -39 167 -87 l 167 -1 l 150 -1 q 111 38 111 -1 z "},"“":{"ha":581,"x_min":101,"x_max":479,"o":"m 326 774 l 326 911 q 342 978 326 951 q 444 1031 371 1031 q 457 1031 451 1031 l 472 1028 l 472 979 q 469 979 471 979 q 424 932 424 979 l 424 894 l 442 894 q 479 856 479 894 l 479 774 q 442 732 479 732 l 364 732 q 326 774 326 732 m 225 1031 q 246 1028 233 1031 l 246 979 q 243 979 244 979 q 199 932 199 979 l 199 894 l 215 894 q 254 856 254 894 l 254 774 q 215 732 254 732 l 138 732 q 101 774 101 732 l 101 911 q 225 1031 101 1031 z "},"”":{"ha":581,"x_min":101,"x_max":479,"o":"m 101 907 l 101 989 q 139 1031 101 1031 l 217 1031 q 254 989 254 1031 l 254 851 q 239 784 254 811 q 203 747 224 757 q 148 731 167 731 q 124 731 129 731 l 108 733 l 108 782 q 111 782 110 782 q 156 831 156 782 l 156 868 l 139 868 q 101 907 101 868 m 326 907 l 326 989 q 365 1031 326 1031 l 443 1031 q 479 989 479 1031 l 479 851 q 465 784 479 811 q 428 747 450 757 q 373 731 392 731 q 350 731 354 731 l 335 733 l 335 782 q 338 782 336 782 q 382 831 382 782 l 382 868 l 365 868 q 326 907 326 868 z "},"„":{"ha":581,"x_min":101,"x_max":479,"o":"m 101 38 l 101 119 q 139 161 101 161 l 217 161 q 254 119 254 161 l 254 -18 q 239 -86 254 -58 q 203 -122 224 -114 q 147 -139 165 -139 q 124 -139 129 -139 l 108 -136 l 108 -87 q 111 -87 110 -87 q 156 -39 156 -87 l 156 -1 l 139 -1 q 101 38 101 -1 m 326 38 l 326 119 q 365 161 326 161 l 443 161 q 479 119 479 161 l 479 -18 q 465 -86 479 -58 q 428 -122 450 -114 q 372 -139 390 -139 q 350 -139 354 -139 l 335 -136 l 335 -87 q 338 -87 336 -87 q 382 -39 382 -87 l 382 -1 l 365 -1 q 326 38 326 -1 z "},"†":{"ha":533,"x_min":28,"x_max":506,"o":"m 28 679 l 28 761 l 213 775 l 224 1069 l 311 1069 l 322 775 l 506 761 l 506 679 l 322 665 l 310 -100 l 222 -100 l 213 665 l 28 679 z "},"‡":{"ha":561,"x_min":28,"x_max":506,"o":"m 28 242 l 28 324 l 214 338 l 213 665 l 28 679 l 28 761 l 213 775 l 225 1069 l 311 1069 l 322 775 l 506 761 l 506 679 l 322 665 l 318 338 l 506 324 l 506 242 l 315 228 l 310 -100 l 222 -100 l 217 228 l 28 242 z "},"•":{"ha":433,"x_min":118,"x_max":315,"o":"m 118 474 l 118 585 q 164 633 118 633 l 267 633 q 315 585 315 633 l 315 474 q 267 429 315 429 l 164 429 q 118 474 118 429 z "},"…":{"ha":1133,"x_min":118,"x_max":1015,"o":"m 874 32 l 874 111 q 907 146 874 146 l 981 146 q 1015 111 1015 146 l 1015 32 q 981 0 1015 0 l 907 0 q 874 32 874 0 m 496 32 l 496 111 q 529 146 496 146 l 603 146 q 638 111 638 146 l 638 32 q 603 0 638 0 l 529 0 q 496 32 496 0 m 118 32 l 118 111 q 151 146 118 146 l 225 146 q 260 111 260 146 l 260 32 q 225 0 260 0 l 151 0 q 118 32 118 0 z "},"‰":{"ha":1918,"x_min":58,"x_max":1860,"o":"m 58 658 l 58 843 q 97 976 58 935 q 238 1017 136 1017 l 378 1017 q 515 976 476 1017 q 554 843 554 935 l 554 658 q 515 526 554 567 q 375 485 476 485 l 235 485 q 97 526 136 485 q 58 658 58 567 m 149 658 q 167 592 149 608 q 235 575 185 575 l 375 575 q 449 592 433 575 q 464 658 464 608 l 464 843 q 446 910 464 893 q 378 926 428 926 l 238 926 q 165 910 181 926 q 149 843 149 893 l 149 658 m 315 0 l 924 1017 l 1022 1017 l 414 0 l 315 0 m 772 176 l 772 361 q 811 494 772 453 q 951 535 850 535 l 1092 535 q 1229 494 1190 535 q 1268 361 1268 453 l 1268 176 q 1229 44 1268 85 q 1089 3 1190 3 l 949 3 q 811 44 850 3 q 772 176 772 85 m 863 176 q 881 110 863 126 q 949 93 899 93 l 1089 93 q 1163 110 1147 93 q 1178 176 1178 126 l 1178 361 q 1160 428 1178 411 q 1092 444 1142 444 l 951 444 q 878 428 894 444 q 863 361 863 411 l 863 176 m 1364 176 l 1364 361 q 1403 494 1364 453 q 1543 535 1442 535 l 1683 535 q 1821 494 1782 535 q 1860 361 1860 453 l 1860 176 q 1821 44 1860 85 q 1681 3 1782 3 l 1540 3 q 1403 44 1442 3 q 1364 176 1364 85 m 1454 176 q 1472 110 1454 126 q 1540 93 1490 93 l 1681 93 q 1754 110 1739 93 q 1769 176 1769 126 l 1769 361 q 1751 428 1769 411 q 1683 444 1733 444 l 1543 444 q 1470 428 1486 444 q 1454 361 1454 411 l 1454 176 z "},"‹":{"ha":496,"x_min":69,"x_max":435,"o":"m 69 492 l 356 774 l 428 701 l 213 492 l 435 275 l 363 203 l 69 492 z "},"›":{"ha":496,"x_min":69,"x_max":435,"o":"m 69 275 l 292 492 l 76 701 l 149 774 l 435 492 l 142 203 l 69 275 z "},"⁄":{"ha":324,"x_min":-125,"x_max":449,"o":"m -125 0 l 358 1017 l 449 1017 l -35 0 l -125 0 z "},"⁰":{"ha":650,"x_min":83,"x_max":565,"o":"m 83 715 l 83 1069 q 125 1188 83 1153 q 246 1222 167 1222 l 408 1222 q 565 1069 565 1222 l 565 715 q 526 593 565 624 q 408 563 486 563 l 246 563 q 97 633 126 563 q 83 715 83 665 m 171 721 q 186 663 171 678 q 251 649 201 649 l 403 649 q 467 665 453 649 q 481 721 481 681 l 481 1064 q 465 1119 481 1103 q 403 1136 450 1136 l 251 1136 q 187 1119 203 1136 q 171 1064 171 1101 l 171 721 z "},"⁴":{"ha":579,"x_min":22,"x_max":558,"o":"m 390 821 l 390 989 l 429 1056 l 476 1056 l 476 821 l 558 821 l 558 749 l 476 731 l 476 564 l 390 564 l 390 731 l 53 731 l 22 764 l 311 1222 l 410 1222 l 158 821 l 390 821 z "},"⁵":{"ha":582,"x_min":76,"x_max":526,"o":"m 286 974 l 375 971 q 490 926 453 971 q 526 804 526 882 l 526 715 q 485 595 526 633 q 375 557 444 557 q 76 576 189 557 l 76 644 l 369 644 q 440 721 440 644 l 440 819 q 431 861 440 850 q 369 885 406 885 l 210 885 q 149 817 149 885 l 76 817 l 97 1222 l 507 1222 l 507 1136 l 178 1136 l 167 944 q 286 974 196 974 z "},"⁶":{"ha":611,"x_min":75,"x_max":554,"o":"m 131 1172 q 183 1216 157 1204 q 242 1231 210 1228 q 338 1233 275 1233 q 532 1214 400 1233 l 532 1144 l 251 1144 q 163 932 167 1144 q 416 951 340 951 q 523 913 492 951 q 554 811 554 874 l 554 710 q 515 601 554 638 q 408 564 475 564 l 260 564 q 188 578 218 564 q 76 892 76 625 q 131 1172 76 1104 m 163 865 q 256 650 163 650 l 403 650 q 453 667 438 650 q 468 721 468 683 l 468 806 q 453 853 468 840 q 403 865 438 865 l 163 865 z "},"⁷":{"ha":510,"x_min":21,"x_max":488,"o":"m 21 1139 l 21 1225 l 464 1225 l 488 1182 l 235 564 l 138 564 l 375 1139 l 21 1139 z "},"⁸":{"ha":647,"x_min":92,"x_max":557,"o":"m 92 706 l 92 786 q 168 886 92 863 q 92 1011 92 911 l 92 1067 q 134 1193 92 1157 q 253 1229 176 1229 l 406 1229 q 518 1192 481 1229 q 556 1067 556 1154 l 556 1011 q 556 998 556 1006 q 553 975 556 990 q 535 937 551 960 q 489 907 518 914 q 539 863 522 901 q 556 786 556 824 l 556 706 q 410 561 556 561 l 243 561 q 124 600 156 561 q 92 706 92 639 m 178 711 q 192 663 178 676 q 249 649 207 649 l 404 649 q 469 711 469 649 l 469 781 q 406 853 469 853 l 246 853 q 178 781 178 853 l 178 711 m 178 1017 q 246 940 178 940 l 400 940 q 469 1017 469 940 l 469 1061 q 452 1126 469 1110 q 393 1143 435 1143 l 258 1143 q 194 1126 211 1143 q 178 1061 178 1108 l 178 1017 z "},"⁹":{"ha":611,"x_min":63,"x_max":542,"o":"m 63 983 l 63 1085 q 102 1194 63 1157 q 208 1231 142 1231 l 357 1231 q 429 1217 399 1231 q 540 903 540 1169 q 489 622 540 686 q 436 579 463 592 q 290 561 397 561 q 85 581 183 561 l 85 650 l 364 650 q 454 863 450 650 q 201 843 276 843 q 94 882 125 843 q 63 983 63 921 m 149 989 q 164 942 149 954 q 214 929 179 929 l 454 929 q 365 1144 454 1144 l 214 1144 q 164 1128 179 1144 q 149 1074 149 1111 l 149 989 z "},"₀":{"ha":650,"x_min":83,"x_max":565,"o":"m 83 -125 l 83 229 q 125 347 83 313 q 246 382 167 382 l 408 382 q 565 229 565 382 l 565 -125 q 526 -247 565 -217 q 408 -278 486 -278 l 246 -278 q 97 -207 126 -278 q 83 -125 83 -175 m 171 -119 q 186 -177 171 -162 q 251 -192 201 -192 l 403 -192 q 467 -176 453 -192 q 481 -119 481 -160 l 481 224 q 465 279 481 263 q 403 296 450 296 l 251 296 q 187 278 203 296 q 171 224 171 261 l 171 -119 z "},"₁":{"ha":376,"x_min":22,"x_max":286,"o":"m 286 385 l 286 -276 l 200 -276 l 200 289 l 22 240 l 22 308 l 200 385 l 286 385 z "},"₂":{"ha":538,"x_min":43,"x_max":479,"o":"m 44 307 q 43 324 43 307 q 44 356 43 340 l 44 372 q 299 393 217 393 q 479 204 479 393 q 454 100 479 156 q 402 6 429 44 q 325 -82 375 -32 q 258 -146 275 -132 q 206 -190 242 -160 l 478 -190 l 478 -276 l 49 -276 l 49 -196 q 105 -152 60 -186 q 179 -94 150 -118 q 252 -30 208 -71 q 322 44 296 11 q 389 194 389 131 q 365 282 389 257 q 283 307 342 307 l 44 307 z "},"₃":{"ha":564,"x_min":42,"x_max":481,"o":"m 47 -257 l 49 -197 l 294 -196 q 372 -176 350 -196 q 394 -111 394 -157 l 394 -79 q 300 17 394 14 l 103 24 l 103 89 l 300 99 q 396 188 396 103 l 396 218 q 300 301 396 301 l 42 301 l 42 361 q 214 386 117 386 q 313 386 264 386 q 439 340 397 386 q 481 224 481 293 l 481 175 q 461 97 481 129 q 413 53 442 64 q 481 -78 481 10 l 481 -117 q 442 -240 481 -197 q 306 -282 403 -282 q 190 -282 258 -282 q 47 -257 122 -282 z "},"₄":{"ha":579,"x_min":22,"x_max":558,"o":"m 390 -19 l 390 149 l 429 215 l 476 215 l 476 -19 l 558 -19 l 558 -92 l 476 -110 l 476 -276 l 390 -276 l 390 -110 l 53 -110 l 22 -76 l 311 382 l 410 382 l 158 -19 l 390 -19 z "},"₅":{"ha":582,"x_min":76,"x_max":526,"o":"m 286 133 l 375 131 q 490 86 453 131 q 526 -36 526 42 l 526 -125 q 485 -245 526 -207 q 375 -283 444 -283 q 76 -264 189 -283 l 76 -196 l 369 -196 q 440 -119 440 -196 l 440 -19 q 431 19 440 10 q 369 44 406 44 l 210 44 q 149 -24 149 44 l 76 -24 l 97 382 l 507 382 l 507 296 l 178 296 l 167 104 q 286 133 196 133 z "},"₆":{"ha":611,"x_min":75,"x_max":554,"o":"m 131 332 q 183 376 157 364 q 249 390 210 388 q 360 393 288 393 q 532 374 433 393 l 532 304 l 251 304 q 163 92 167 304 q 416 111 340 111 q 523 72 492 111 q 554 -29 554 33 l 554 -131 q 515 -240 554 -203 q 408 -276 475 -276 l 260 -276 q 188 -264 218 -276 q 76 51 76 -215 q 131 332 76 264 m 163 25 q 256 -190 163 -190 l 403 -190 q 453 -174 438 -190 q 468 -119 468 -157 l 468 -35 q 453 13 468 0 q 403 25 438 25 l 163 25 z "},"₇":{"ha":510,"x_min":21,"x_max":488,"o":"m 21 299 l 21 385 l 464 385 l 488 342 l 235 -276 l 138 -276 l 375 299 l 21 299 z "},"₈":{"ha":647,"x_min":92,"x_max":557,"o":"m 92 -54 q 168 46 92 22 q 92 171 92 71 l 92 226 q 134 353 92 317 q 253 389 176 389 l 406 389 q 518 351 481 389 q 556 226 556 314 l 556 171 q 556 158 556 165 q 553 135 556 150 q 535 97 551 119 q 489 67 518 74 q 539 22 522 61 q 556 -54 556 -17 l 556 -135 q 410 -279 556 -279 l 243 -279 q 124 -240 156 -279 q 92 -135 92 -201 l 92 -54 m 178 -60 l 178 -129 q 192 -178 178 -164 q 249 -192 207 -192 l 404 -192 q 469 -129 469 -192 l 469 -60 q 406 13 469 13 l 246 13 q 178 -60 178 13 m 178 176 q 246 100 178 100 l 400 100 q 469 176 469 100 l 469 221 q 452 286 469 269 q 393 303 435 303 l 258 303 q 194 285 211 303 q 178 221 178 268 l 178 176 z "},"₉":{"ha":611,"x_min":63,"x_max":542,"o":"m 63 143 l 63 244 q 102 353 63 317 q 208 390 142 390 l 357 390 q 429 378 399 390 q 540 63 540 329 q 489 -217 540 -154 q 436 -261 463 -249 q 291 -279 397 -279 q 85 -260 185 -279 l 85 -190 l 364 -190 q 454 22 450 -190 q 201 3 276 3 q 94 42 125 3 q 63 143 63 81 m 149 149 q 164 101 149 114 q 214 89 179 89 l 454 89 q 365 304 454 304 l 214 304 q 164 288 179 304 q 149 233 149 271 l 149 149 z "},"€":{"ha":849,"x_min":28,"x_max":821,"o":"m 267 976 q 284 986 267 976 q 354 1013 301 997 q 499 1028 407 1028 q 815 986 590 1028 l 815 904 q 494 925 589 925 q 353 907 400 925 q 286 848 307 889 q 259 765 265 807 q 253 653 253 724 l 578 643 l 578 579 l 253 569 l 253 429 l 578 419 l 578 354 q 393 350 535 354 q 253 344 251 346 q 475 94 253 94 q 764 111 608 94 l 821 118 l 821 40 q 475 -8 650 -8 q 328 20 389 -8 q 233 85 268 49 q 174 188 199 121 q 150 344 150 256 l 28 354 l 28 419 l 150 429 l 150 569 l 28 581 l 28 640 l 150 653 q 150 678 150 657 q 151 719 150 699 q 158 783 151 740 q 175 853 164 825 q 210 918 186 882 q 267 976 233 954 z "},"ℓ":{"ha":536,"x_min":42,"x_max":450,"o":"m 121 878 q 167 986 122 946 q 285 1026 213 1026 q 403 969 357 1026 q 449 819 449 913 q 388 615 449 726 q 224 408 328 503 l 224 263 q 254 121 224 142 q 285 106 268 111 q 364 87 303 101 q 426 74 425 72 l 426 0 q 304 0 365 0 q 163 61 204 1 q 121 263 121 121 l 121 326 q 78 300 101 314 l 42 344 q 121 422 76 376 l 121 878 m 346 828 q 300 922 346 904 q 276 926 289 926 q 249 919 263 926 q 224 869 224 906 l 224 550 q 346 828 346 715 z "},"№":{"ha":1474,"x_min":100,"x_max":1418,"o":"m 100 0 l 100 906 q 147 1004 100 972 q 204 1025 178 1025 q 333 944 299 1025 l 706 115 q 726 100 714 97 q 739 119 739 103 l 739 789 q 803 965 739 908 q 972 1021 868 1021 l 1235 1019 q 1378 958 1338 1017 q 1418 774 1418 899 q 1377 589 1418 649 q 1235 529 1336 529 l 1143 529 q 998 599 1036 529 q 960 854 960 669 l 1046 854 q 1076 647 1046 688 q 1108 621 1093 626 q 1151 615 1124 615 l 1226 615 q 1306 643 1281 615 q 1332 756 1332 671 q 1319 876 1332 840 q 1286 919 1306 911 q 1226 929 1267 928 q 969 931 1069 931 q 876 896 911 931 q 842 792 842 861 l 842 110 q 803 20 842 50 q 725 -10 764 -10 q 614 68 647 -10 l 238 906 q 217 917 231 921 q 203 896 203 914 l 203 0 l 100 0 z "},"™":{"ha":961,"x_min":28,"x_max":940,"o":"m 28 928 l 28 1017 l 388 1017 l 388 928 l 253 928 l 253 532 l 164 532 l 164 928 l 28 928 m 442 532 l 479 1017 l 567 1017 l 696 688 l 807 1017 l 897 1017 l 940 532 l 851 532 l 828 813 l 735 532 l 661 532 l 551 814 l 531 532 l 442 532 z "},"℮":{"ha":1003,"x_min":83,"x_max":919,"o":"m 919 358 q 242 358 581 358 q 238 343 238 358 l 238 158 q 316 76 238 124 q 486 29 394 29 q 649 62 578 29 q 767 146 721 94 l 844 146 q 685 31 764 61 q 501 0 607 0 q 197 105 310 0 q 83 368 83 210 q 200 636 83 526 q 494 740 317 740 q 792 648 672 740 q 919 358 911 556 m 238 394 q 250 382 238 382 l 746 382 q 756 382 750 382 q 764 392 764 388 l 764 576 q 676 667 764 621 q 510 714 589 714 q 367 688 431 714 q 270 632 303 661 q 238 585 238 603 l 238 394 z "},"∂":{"ha":897,"x_min":79,"x_max":783,"o":"m 424 -7 q 178 76 276 -7 q 79 316 79 158 q 172 560 79 474 q 439 646 265 646 q 679 567 578 646 q 606 849 668 772 q 408 925 543 925 q 158 854 272 925 l 126 919 q 218 976 186 958 q 410 1028 308 1028 q 783 538 783 1028 q 700 164 783 319 q 586 39 657 85 q 424 -7 515 -7 m 443 543 q 374 543 443 543 q 244 483 306 543 q 182 317 182 422 q 251 154 182 213 q 421 96 319 96 q 547 141 493 96 q 628 253 601 186 q 681 488 681 383 q 443 543 581 543 z "},"∆":{"ha":1006,"x_min":28,"x_max":978,"o":"m 28 0 l 460 1017 l 563 1017 l 978 0 l 28 0 m 185 103 l 826 103 l 513 881 l 185 103 z "},"∏":{"ha":894,"x_min":28,"x_max":867,"o":"m 28 914 l 28 1017 l 867 1017 l 867 914 l 746 914 l 746 0 l 643 0 l 643 914 l 250 914 l 250 0 l 147 0 l 147 914 l 28 914 z "},"∑":{"ha":814,"x_min":56,"x_max":786,"o":"m 56 1017 l 786 1017 l 786 914 l 179 914 l 475 375 l 179 -171 l 786 -171 l 786 -278 l 56 -278 l 56 -171 l 353 375 l 56 914 l 56 1017 z "},"−":{"ha":633,"x_min":28,"x_max":606,"o":"m 28 443 l 28 546 l 606 546 l 606 443 l 28 443 z "},"√":{"ha":872,"x_min":28,"x_max":844,"o":"m 28 394 l 28 497 l 213 497 l 393 143 l 742 1111 l 844 1111 l 449 0 l 354 0 l 150 394 l 28 394 z "},"∞":{"ha":1092,"x_min":69,"x_max":1022,"o":"m 69 474 q 300 714 69 714 q 440 674 375 714 q 546 568 504 633 q 652 674 588 633 q 792 714 717 714 q 1022 474 1022 714 q 969 301 1022 367 q 792 235 915 235 q 544 385 629 235 q 300 235 460 235 q 123 301 176 235 q 69 474 69 367 m 300 611 q 195 577 218 611 q 172 476 172 543 q 199 373 172 408 q 300 338 226 338 q 501 474 410 338 q 410 571 465 531 q 300 611 354 611 m 792 338 q 919 474 919 338 q 896 577 919 543 q 805 611 872 611 q 682 571 738 611 q 590 474 626 531 q 792 338 682 338 z "},"∫":{"ha":613,"x_min":28,"x_max":585,"o":"m 28 -181 l 153 -181 q 222 -131 201 -181 q 247 -28 244 -81 q 254 122 254 65 l 254 703 q 350 1081 254 1004 q 447 1111 389 1111 q 528 1102 506 1111 q 565 1085 550 1093 q 585 1076 581 1078 l 585 1008 l 463 1008 q 415 989 435 1008 q 384 942 394 969 q 367 869 374 914 q 357 703 357 793 l 357 122 q 325 -161 357 -60 q 168 -283 289 -283 q 28 -249 79 -283 l 28 -181 z "},"≈":{"ha":738,"x_min":69,"x_max":668,"o":"m 191 428 q 211 437 191 428 q 274 446 232 446 q 377 420 315 446 q 474 394 439 394 q 533 401 510 394 q 586 424 556 408 q 638 449 617 440 l 668 390 q 628 360 656 382 q 583 325 600 338 q 485 290 535 290 q 374 317 436 290 q 276 343 313 343 q 213 335 239 343 q 154 312 186 326 q 99 290 122 297 l 69 347 q 131 395 111 381 q 191 428 150 410 m 191 674 q 211 683 191 674 q 274 692 232 692 q 377 666 315 692 q 474 640 439 640 q 533 647 510 640 q 586 670 556 654 q 638 694 617 686 l 668 636 q 628 606 656 628 q 583 571 600 583 q 485 536 535 536 q 374 563 436 536 q 276 589 313 589 q 213 581 239 589 q 154 558 186 572 q 99 536 122 543 l 69 593 q 131 641 111 626 q 191 674 150 656 z "},"≠":{"ha":649,"x_min":28,"x_max":621,"o":"m 28 294 l 28 404 l 232 404 l 338 578 l 28 578 l 28 688 l 404 688 l 468 792 l 553 792 l 489 688 l 621 688 l 621 578 l 422 578 l 317 404 l 621 404 l 621 294 l 250 294 l 178 175 l 93 175 l 165 294 l 28 294 z "},"≤":{"ha":660,"x_min":69,"x_max":592,"o":"m 69 144 l 69 247 l 592 247 l 592 144 l 69 144 m 69 547 l 69 658 l 590 883 l 590 772 l 207 603 l 590 419 l 590 306 l 69 547 z "},"≥":{"ha":660,"x_min":69,"x_max":592,"o":"m 69 144 l 69 247 l 592 247 l 592 144 l 69 144 m 71 306 l 71 419 l 454 603 l 71 772 l 71 883 l 592 658 l 592 547 l 71 306 z "},"◊":{"ha":725,"x_min":28,"x_max":697,"o":"m 28 518 l 315 1017 l 418 1017 l 697 518 l 418 0 l 315 0 l 28 518 m 151 518 l 367 136 l 575 518 l 367 888 l 151 518 z "},"ﬀ":{"ha":1086,"x_min":28,"x_max":1058,"o":"m 28 635 l 28 714 l 165 738 l 165 861 q 204 1025 165 974 q 255 1062 221 1046 q 356 1078 289 1078 q 531 1044 422 1078 l 531 976 l 360 978 q 281 944 296 978 q 268 861 268 915 l 268 738 l 693 738 l 693 875 q 732 1039 693 988 q 783 1076 749 1060 q 883 1092 817 1092 q 1058 1058 950 1092 l 1058 990 l 888 992 q 808 958 824 992 q 796 875 796 929 l 796 738 l 999 738 l 999 635 l 793 635 l 793 0 l 690 0 l 690 635 l 265 635 l 265 0 l 163 0 l 163 635 l 28 635 z "},"ﬁ":{"ha":844,"x_min":28,"x_max":768,"o":"m 28 635 l 28 714 l 164 738 l 164 811 q 239 1013 164 935 q 430 1092 314 1092 q 700 1044 546 1092 l 700 976 l 461 992 q 443 992 451 992 q 321 953 375 992 q 267 811 267 914 l 267 738 l 768 724 l 768 0 l 664 0 l 664 635 l 267 635 l 267 0 l 164 0 l 164 635 l 28 635 z "},"ﬂ":{"ha":996,"x_min":28,"x_max":968,"o":"m 28 635 l 28 714 l 165 738 l 165 811 q 220 1013 165 935 q 392 1092 275 1092 l 765 1092 l 765 263 q 781 145 765 175 q 844 103 797 115 q 968 74 958 74 l 968 0 l 846 0 q 705 58 747 0 q 663 263 663 117 l 663 992 l 415 992 q 305 954 342 992 q 268 811 268 917 l 268 738 l 471 738 l 471 635 l 265 635 l 265 0 l 163 0 l 163 635 l 28 635 z "},"ﬃ":{"ha":1350,"x_min":28,"x_max":1267,"o":"m 28 635 l 28 714 l 165 738 l 165 861 q 204 1025 165 974 q 255 1062 221 1046 q 356 1078 289 1078 q 531 1044 422 1078 l 531 976 l 360 978 q 281 944 296 978 q 268 861 268 915 l 265 738 l 665 738 l 665 811 q 740 1014 665 936 q 929 1092 814 1092 q 1199 1044 1044 1092 l 1199 976 l 961 992 q 943 992 951 992 q 822 953 875 992 q 768 811 768 914 l 768 738 l 1267 724 l 1267 0 l 1163 0 l 1163 635 l 765 635 l 765 0 l 663 0 l 663 635 l 265 635 l 265 0 l 163 0 l 163 635 l 28 635 z "},"ﬄ":{"ha":1496,"x_min":28,"x_max":1468,"o":"m 28 635 l 28 714 l 165 738 l 165 861 q 204 1025 165 974 q 255 1062 221 1046 q 356 1078 289 1078 q 531 1044 422 1078 l 531 976 l 360 978 q 281 944 296 978 q 268 861 268 915 l 265 738 l 665 738 l 665 811 q 719 1012 665 935 q 892 1089 774 1089 l 1265 1089 l 1265 263 q 1281 145 1265 175 q 1344 103 1297 115 q 1468 74 1458 74 l 1468 0 l 1346 0 q 1205 58 1247 0 q 1163 263 1163 117 l 1163 992 l 915 992 q 805 954 842 992 q 768 811 768 917 l 768 738 l 971 738 l 971 635 l 765 635 l 765 0 l 663 0 l 663 635 l 265 635 l 265 0 l 163 0 l 163 635 l 28 635 z "},"ﬆ":{"ha":1229,"x_min":56,"x_max":1193,"o":"m 56 489 l 56 556 q 100 692 56 646 q 247 739 144 739 l 875 739 l 900 944 l 978 944 l 978 739 l 1193 739 l 1193 639 l 978 639 l 978 264 q 1010 122 978 144 q 1095 96 1024 113 q 1168 79 1167 79 l 1168 1 l 1060 1 q 917 60 960 1 q 875 264 875 119 l 875 639 l 247 638 q 169 614 183 638 q 158 556 158 596 l 158 489 q 185 421 158 433 q 247 410 207 410 l 467 410 q 601 360 554 410 q 647 231 647 311 l 647 171 q 597 31 647 68 q 467 -7 547 -7 q 86 19 338 -7 l 86 96 l 467 96 q 474 96 467 97 q 494 99 482 94 q 517 108 506 103 q 544 171 544 122 l 544 231 q 527 288 544 269 q 467 307 510 307 l 247 307 q 101 346 146 307 q 56 489 56 385 z "}}}
